<?xml version="1.0" encoding="utf-8" ?>
<svg baseProfile="tiny" height="100%" version="1.2" width="100%" xmlns="http://www.w3.org/2000/svg" xmlns:ev="http://www.w3.org/2001/xml-events" xmlns:xlink="http://www.w3.org/1999/xlink"><defs /><line stroke="rgb(10%,10%,16%)" x1="237" x2="122.509" y1="363" y2="327.0582" /><line stroke="rgb(10%,10%,16%)" x1="160" x2="40.0091" y1="353" y2="351.5244" /><line stroke="rgb(10%,10%,16%)" x1="281" x2="353.2016" y1="290" y2="194.1515" /><line stroke="rgb(10%,10%,16%)" x1="287" x2="385.614" y1="137" y2="205.376" /><line stroke="rgb(10%,10%,16%)" x1="267" x2="385.3615" y1="201" y2="220.7626" /><line stroke="rgb(10%,10%,16%)" x1="282" x2="354.2016" y1="339" y2="243.1515" /><line stroke="rgb(10%,10%,16%)" x1="346" x2="413.5767" y1="138" y2="237.1635" /><line stroke="rgb(10%,10%,16%)" x1="317" x2="362.532" y1="292" y2="403.0263" /><line stroke="rgb(10%,10%,16%)" x1="326" x2="356.2294" y1="299" y2="415.13" /><line stroke="rgb(10%,10%,16%)" x1="296" x2="274.9918" y1="376" y2="257.8533" /><line stroke="rgb(10%,10%,16%)" x1="144" x2="24.7199" y1="228" y2="214.8752" /><line stroke="rgb(10%,10%,16%)" x1="369" x2="249.8953" y1="280" y2="294.6314" /><line stroke="rgb(10%,10%,16%)" x1="250" x2="253.9617" y1="151" y2="31.0654" /><line stroke="rgb(10%,10%,16%)" x1="250" x2="277.5705" y1="261" y2="377.7898" /><line stroke="rgb(10%,10%,16%)" x1="125" x2="26.9657" y1="197" y2="266.2046" /><line stroke="rgb(10%,10%,16%)" x1="176" x2="284.8496" y1="345" y2="395.5149" /><line stroke="rgb(10%,10%,16%)" x1="284" x2="165.8093" y1="355" y2="375.7593" /><line stroke="rgb(10%,10%,16%)" x1="165" x2="283.8117" y1="259" y2="242.1539" /><line stroke="rgb(10%,10%,16%)" x1="187" x2="229.5133" y1="152" y2="39.7831" /><line stroke="rgb(10%,10%,16%)" x1="133" x2="82.9068" y1="300" y2="190.9557" /><line stroke="rgb(10%,10%,16%)" x1="340" x2="459.9427" y1="345" y2="348.709" /><line stroke="rgb(10%,10%,16%)" x1="180" x2="291.7628" y1="374" y2="330.3071" /><line stroke="rgb(10%,10%,16%)" x1="322" x2="204.88" y1="135" y2="161.1323" /><line stroke="rgb(10%,10%,16%)" x1="344" x2="280.5902" y1="322" y2="220.1217" /><line stroke="rgb(10%,10%,16%)" x1="211" x2="189.9918" y1="252" y2="133.8533" /><line stroke="rgb(10%,10%,16%)" x1="251" x2="150.1824" y1="328" y2="262.9169" /><line stroke="rgb(10%,10%,16%)" x1="364" x2="246.88" y1="362" y2="388.1323" /><line stroke="rgb(10%,10%,16%)" x1="267" x2="148.7228" y1="222" y2="201.7389" /><line stroke="rgb(10%,10%,16%)" x1="127" x2="9.9262" y1="172" y2="145.6612" /><line stroke="rgb(10%,10%,16%)" x1="289" x2="394.3802" y1="284" y2="226.5978" /><line stroke="rgb(10%,10%,16%)" x1="236" x2="123.4432" y1="360" y2="401.6048" /><line stroke="rgb(10%,10%,16%)" x1="354" x2="473.9742" y1="303" y2="300.5134" /><line stroke="rgb(10%,10%,16%)" x1="228" x2="114.9263" y1="197" y2="156.8212" /><line stroke="rgb(10%,10%,16%)" x1="228" x2="162.281" y1="299" y2="198.5957" /><line stroke="rgb(10%,10%,16%)" x1="171" x2="125.9362" y1="261" y2="149.7829" /><line stroke="rgb(10%,10%,16%)" x1="136" x2="32.3168" y1="236" y2="175.5864" /><line stroke="rgb(10%,10%,16%)" x1="282" x2="179.0887" y1="302" y2="363.7193" /><line stroke="rgb(10%,10%,16%)" x1="264" x2="383.9836" y1="361" y2="362.9811" /><line stroke="rgb(10%,10%,16%)" x1="291" x2="344.6659" y1="158" y2="265.3311" /><line stroke="rgb(10%,10%,16%)" x1="188" x2="120.0061" y1="262" y2="163.1221" /><circle cx="220.9917" cy="357.9746" r="3" /><circle cx="232.0705" cy="361.4525" r="3" /><circle cx="199.7739" cy="351.3137" r="3" /><circle cx="338.9883" cy="213.0198" r="3" /><circle cx="304.5909" cy="258.6828" r="3" /><circle cx="326.6799" cy="229.3593" r="3" /><circle cx="293.3387" cy="141.395" r="3" /><circle cx="316.6447" cy="209.2891" r="3" /><circle cx="317.1426" cy="292.3477" r="3" /><circle cx="288.0037" cy="331.03" r="3" /><circle cx="322.1044" cy="285.7609" r="3" /><circle cx="287.2064" cy="332.0884" r="3" /><circle cx="321.7431" cy="286.2406" r="3" /><circle cx="347.3898" cy="252.1942" r="3" /><circle cx="341.8046" cy="259.6086" r="3" /><circle cx="336.6512" cy="339.9178" r="3" /><circle cx="347.2406" cy="365.7394" r="3" /><circle cx="345.8512" cy="362.3515" r="3" /><circle cx="343.585" cy="366.5551" r="3" /><circle cx="342.4763" cy="362.2958" r="3" /><circle cx="280.8552" cy="290.8281" r="3" /><circle cx="288.1278" cy="331.7282" r="3" /><circle cx="293.4192" cy="361.4858" r="3" /><circle cx="89.5699" cy="222.0109" r="3" /><circle cx="97.5778" cy="222.892" r="3" /><circle cx="117.2114" cy="225.0524" r="3" /><circle cx="257.7126" cy="293.6711" r="3" /><circle cx="321.4914" cy="285.8362" r="3" /><circle cx="272.6607" cy="356.9917" r="3" /><circle cx="268.5075" cy="339.3986" r="3" /><circle cx="262.4471" cy="313.7265" r="3" /><circle cx="273.6445" cy="361.1592" r="3" /><circle cx="95.3112" cy="217.958" r="3" /><circle cx="99.7085" cy="214.8538" r="3" /><circle cx="221.2843" cy="366.0155" r="3" /><circle cx="211.7462" cy="361.5891" r="3" /><circle cx="261.7786" cy="384.8081" r="3" /><circle cx="220.5933" cy="365.6948" r="3" /><circle cx="195.3377" cy="353.9742" r="3" /><circle cx="183.4055" cy="372.6687" r="3" /><circle cx="218.3145" cy="366.5372" r="3" /><circle cx="198.6915" cy="254.223" r="3" /><circle cx="169.9077" cy="258.3042" r="3" /><circle cx="184.077" cy="256.2951" r="3" /><circle cx="191.2321" cy="140.8289" r="3" /><circle cx="91.7567" cy="210.2205" r="3" /><circle cx="312.4113" cy="271.2475" r="3" /><circle cx="203.7386" cy="211.1632" r="3" /><circle cx="199.414" cy="186.8425" r="3" /><circle cx="245.0509" cy="324.1596" r="3" /><circle cx="361.2828" cy="362.6063" r="3" /><circle cx="166.3103" cy="204.7516" r="3" /><circle cx="125.9484" cy="171.7634" r="3" /><circle cx="340.0865" cy="256.1724" r="3" /><circle cx="131.1194" cy="162.5751" r="3" /><circle cx="147.6006" cy="203.2504" r="3" /></svg>