<?xml version="1.0" encoding="utf-8" ?>
<svg baseProfile="tiny" height="100%" version="1.2" width="100%" xmlns="http://www.w3.org/2000/svg" xmlns:ev="http://www.w3.org/2001/xml-events" xmlns:xlink="http://www.w3.org/1999/xlink"><defs /><line stroke="rgb(10%,10%,16%)" x1="102.8112" x2="102.8112" y1="230.8112" y2="228.8112" /><line stroke="rgb(10%,10%,16%)" x1="102.8112" x2="102.8112" y1="228.8112" y2="226.8112" /><line stroke="rgb(10%,10%,16%)" x1="102.8112" x2="102.8112" y1="226.8112" y2="224.8112" /><line stroke="rgb(10%,10%,16%)" x1="102.8112" x2="102.8112" y1="224.8112" y2="222.8112" /><line stroke="rgb(10%,10%,16%)" x1="102.8112" x2="102.8112" y1="222.8112" y2="220.8112" /><line stroke="rgb(10%,10%,16%)" x1="102.8112" x2="102.8112" y1="220.8112" y2="218.8112" /><line stroke="rgb(10%,10%,16%)" x1="102.8112" x2="102.8112" y1="218.8112" y2="216.8112" /><line stroke="rgb(10%,10%,16%)" x1="102.8112" x2="102.8112" y1="216.8112" y2="214.8112" /><line stroke="rgb(10%,10%,16%)" x1="102.8112" x2="102.8112" y1="214.8112" y2="212.8112" /><line stroke="rgb(10%,10%,16%)" x1="102.8112" x2="102.8112" y1="212.8112" y2="210.8112" /><line stroke="rgb(10%,10%,16%)" x1="102.8112" x2="102.8112" y1="210.8112" y2="208.8112" /><line stroke="rgb(10%,10%,16%)" x1="102.8112" x2="102.8112" y1="208.8112" y2="206.8112" /><line stroke="rgb(10%,10%,16%)" x1="102.8112" x2="102.8112" y1="206.8112" y2="204.8112" /><line stroke="rgb(10%,10%,16%)" x1="102.8112" x2="102.8112" y1="204.8112" y2="202.8112" /><line stroke="rgb(10%,10%,16%)" x1="102.8112" x2="102.8112" y1="202.8112" y2="200.8112" /><line stroke="rgb(10%,10%,16%)" x1="102.8112" x2="102.8112" y1="200.8112" y2="198.8112" /><line stroke="rgb(10%,10%,16%)" x1="102.8112" x2="102.8112" y1="198.8112" y2="196.8112" /><line stroke="rgb(10%,10%,16%)" x1="102.8112" x2="102.8112" y1="196.8112" y2="194.8112" /><line stroke="rgb(10%,10%,16%)" x1="102.8112" x2="102.8112" y1="194.8112" y2="192.8112" /><line stroke="rgb(10%,10%,16%)" x1="102.8112" x2="102.8112" y1="192.8112" y2="190.8112" /><line stroke="rgb(10%,10%,16%)" x1="102.8112" x2="102.8112" y1="190.8112" y2="188.8112" /><line stroke="rgb(10%,10%,16%)" x1="102.8112" x2="102.8112" y1="188.8112" y2="186.8112" /><line stroke="rgb(10%,10%,16%)" x1="102.8112" x2="102.8112" y1="186.8112" y2="184.8112" /><line stroke="rgb(10%,10%,16%)" x1="102.8112" x2="102.8112" y1="184.8112" y2="182.8112" /><line stroke="rgb(10%,10%,16%)" x1="102.8112" x2="102.8112" y1="182.8112" y2="180.8112" /><line stroke="rgb(10%,10%,16%)" x1="102.8112" x2="102.8112" y1="180.8112" y2="178.8112" /><line stroke="rgb(10%,10%,16%)" x1="102.8112" x2="102.8112" y1="178.8112" y2="176.8112" /><line stroke="rgb(10%,10%,16%)" x1="102.8112" x2="102.8112" y1="176.8112" y2="174.8112" /><line stroke="rgb(10%,10%,16%)" x1="102.8112" x2="102.8112" y1="174.8112" y2="172.8112" /><line stroke="rgb(10%,10%,16%)" x1="102.8112" x2="102.8112" y1="172.8112" y2="170.8112" /><line stroke="rgb(10%,10%,16%)" x1="102.8112" x2="102.8112" y1="170.8112" y2="168.8112" /><line stroke="rgb(10%,10%,16%)" x1="102.8112" x2="102.8112" y1="168.8112" y2="166.8112" /><line stroke="rgb(10%,10%,16%)" x1="102.8112" x2="102.8112" y1="166.8112" y2="164.8112" /><line stroke="rgb(10%,10%,16%)" x1="102.8112" x2="102.8112" y1="164.8112" y2="162.8112" /><line stroke="rgb(10%,10%,16%)" x1="102.8112" x2="102.8112" y1="162.8112" y2="160.8112" /><line stroke="rgb(10%,10%,16%)" x1="102.8112" x2="102.8112" y1="160.8112" y2="158.8112" /><line stroke="rgb(10%,10%,16%)" x1="102.8112" x2="102.8112" y1="158.8112" y2="156.8112" /><line stroke="rgb(10%,10%,16%)" x1="102.8112" x2="102.8112" y1="156.8112" y2="154.8112" /><line stroke="rgb(10%,10%,16%)" x1="102.8112" x2="102.8112" y1="154.8112" y2="152.8112" /><line stroke="rgb(10%,10%,16%)" x1="102.8112" x2="102.8112" y1="152.8112" y2="150.8112" /><line stroke="rgb(10%,10%,16%)" x1="102.8112" x2="102.8112" y1="150.8112" y2="148.8112" /><line stroke="rgb(10%,10%,16%)" x1="102.8112" x2="102.8112" y1="148.8112" y2="146.8112" /><line stroke="rgb(10%,10%,16%)" x1="102.8112" x2="102.8112" y1="146.8112" y2="144.8112" /><line stroke="rgb(10%,10%,16%)" x1="102.8112" x2="102.8112" y1="144.8112" y2="142.8112" /><line stroke="rgb(10%,10%,16%)" x1="102.8112" x2="102.8112" y1="142.8112" y2="140.8112" /><line stroke="rgb(10%,10%,16%)" x1="102.8112" x2="102.8112" y1="140.8112" y2="138.8112" /><line stroke="rgb(10%,10%,16%)" x1="102.8112" x2="102.8112" y1="138.8112" y2="136.8112" /><line stroke="rgb(10%,10%,16%)" x1="102.8112" x2="102.8112" y1="136.8112" y2="134.8112" /><line stroke="rgb(10%,10%,16%)" x1="102.8112" x2="102.8112" y1="134.8112" y2="132.8112" /><line stroke="rgb(10%,10%,16%)" x1="102.8112" x2="102.8112" y1="132.8112" y2="130.8112" /><line stroke="rgb(10%,10%,16%)" x1="102.8112" x2="102.8112" y1="130.8112" y2="128.8112" /><line stroke="rgb(10%,10%,16%)" x1="102.8112" x2="102.8112" y1="128.8112" y2="126.8112" /><line stroke="rgb(10%,10%,16%)" x1="102.8112" x2="102.8112" y1="126.8112" y2="124.8112" /><line stroke="rgb(10%,10%,16%)" x1="102.8112" x2="102.8112" y1="124.8112" y2="122.8112" /><line stroke="rgb(10%,10%,16%)" x1="102.8112" x2="102.8112" y1="122.8112" y2="120.8112" /><line stroke="rgb(10%,10%,16%)" x1="102.8112" x2="102.8112" y1="120.8112" y2="118.8112" /><line stroke="rgb(10%,10%,16%)" x1="102.8112" x2="102.8112" y1="118.8112" y2="116.8112" /><line stroke="rgb(10%,10%,16%)" x1="102.8112" x2="102.8112" y1="116.8112" y2="114.8112" /><line stroke="rgb(10%,10%,16%)" x1="102.8112" x2="102.8112" y1="114.8112" y2="112.8112" /><line stroke="rgb(10%,10%,16%)" x1="102.8112" x2="102.8112" y1="112.8112" y2="110.8112" /><line stroke="rgb(10%,10%,16%)" x1="102.8112" x2="102.8112" y1="110.8112" y2="108.8112" /><line stroke="rgb(10%,10%,16%)" x1="102.8112" x2="102.8112" y1="108.8112" y2="106.8112" /><line stroke="rgb(10%,10%,16%)" x1="102.8112" x2="102.8112" y1="106.8112" y2="104.8112" /><line stroke="rgb(10%,10%,16%)" x1="102.8112" x2="102.8112" y1="104.8112" y2="102.8112" /><line stroke="rgb(10%,10%,16%)" x1="102.8112" x2="104.2254" y1="102.8112" y2="101.397" /><line stroke="rgb(10%,10%,16%)" x1="104.2254" x2="105.6396" y1="101.397" y2="99.9828" /><line stroke="rgb(10%,10%,16%)" x1="105.6396" x2="107.0538" y1="99.9828" y2="98.5685" /><line stroke="rgb(10%,10%,16%)" x1="107.0538" x2="108.468" y1="98.5685" y2="97.1543" /><line stroke="rgb(10%,10%,16%)" x1="108.468" x2="109.8823" y1="97.1543" y2="95.7401" /><line stroke="rgb(10%,10%,16%)" x1="109.8823" x2="111.2965" y1="95.7401" y2="94.3259" /><line stroke="rgb(10%,10%,16%)" x1="111.2965" x2="112.7107" y1="94.3259" y2="92.9117" /><line stroke="rgb(10%,10%,16%)" x1="112.7107" x2="114.1249" y1="92.9117" y2="91.4975" /><line stroke="rgb(10%,10%,16%)" x1="114.1249" x2="115.5391" y1="91.4975" y2="90.0833" /><line stroke="rgb(10%,10%,16%)" x1="115.5391" x2="116.9533" y1="90.0833" y2="88.669" /><line stroke="rgb(10%,10%,16%)" x1="116.9533" x2="118.3675" y1="88.669" y2="87.2548" /><line stroke="rgb(10%,10%,16%)" x1="118.3675" x2="119.7817" y1="87.2548" y2="85.8406" /><line stroke="rgb(10%,10%,16%)" x1="119.7817" x2="121.196" y1="85.8406" y2="84.4264" /><line stroke="rgb(10%,10%,16%)" x1="121.196" x2="122.6102" y1="84.4264" y2="83.0122" /><line stroke="rgb(10%,10%,16%)" x1="122.6102" x2="124.0244" y1="83.0122" y2="81.598" /><line stroke="rgb(10%,10%,16%)" x1="124.0244" x2="125.4386" y1="81.598" y2="80.1838" /><line stroke="rgb(10%,10%,16%)" x1="125.4386" x2="126.8528" y1="80.1838" y2="78.7696" /><line stroke="rgb(10%,10%,16%)" x1="126.8528" x2="128.267" y1="78.7696" y2="77.3553" /><line stroke="rgb(10%,10%,16%)" x1="128.267" x2="129.6812" y1="77.3553" y2="75.9411" /><line stroke="rgb(10%,10%,16%)" x1="129.6812" x2="131.0955" y1="75.9411" y2="74.5269" /><line stroke="rgb(10%,10%,16%)" x1="131.0955" x2="132.5097" y1="74.5269" y2="73.1127" /><line stroke="rgb(10%,10%,16%)" x1="132.5097" x2="133.9239" y1="73.1127" y2="71.6985" /><line stroke="rgb(10%,10%,16%)" x1="133.9239" x2="135.3381" y1="71.6985" y2="70.2843" /><line stroke="rgb(10%,10%,16%)" x1="135.3381" x2="136.7523" y1="70.2843" y2="68.8701" /><line stroke="rgb(10%,10%,16%)" x1="136.7523" x2="138.1665" y1="68.8701" y2="67.4558" /><line stroke="rgb(10%,10%,16%)" x1="138.1665" x2="139.5807" y1="67.4558" y2="66.0416" /><line stroke="rgb(10%,10%,16%)" x1="139.5807" x2="140.9949" y1="66.0416" y2="64.6274" /><line stroke="rgb(10%,10%,16%)" x1="140.9949" x2="142.4092" y1="64.6274" y2="63.2132" /><line stroke="rgb(10%,10%,16%)" x1="142.4092" x2="143.8234" y1="63.2132" y2="61.799" /><line stroke="rgb(10%,10%,16%)" x1="143.8234" x2="145.2376" y1="61.799" y2="60.3848" /><line stroke="rgb(10%,10%,16%)" x1="145.2376" x2="146.6518" y1="60.3848" y2="58.9706" /><line stroke="rgb(10%,10%,16%)" x1="146.6518" x2="148.066" y1="58.9706" y2="57.5563" /><line stroke="rgb(10%,10%,16%)" x1="148.066" x2="150.066" y1="57.5563" y2="57.5563" /><line stroke="rgb(10%,10%,16%)" x1="150.066" x2="152.066" y1="57.5563" y2="57.5563" /><line stroke="rgb(10%,10%,16%)" x1="152.066" x2="154.066" y1="57.5563" y2="57.5563" /><line stroke="rgb(10%,10%,16%)" x1="154.066" x2="156.066" y1="57.5563" y2="57.5563" /><line stroke="rgb(10%,10%,16%)" x1="156.066" x2="158.066" y1="57.5563" y2="57.5563" /><line stroke="rgb(10%,10%,16%)" x1="158.066" x2="160.066" y1="57.5563" y2="57.5563" /><line stroke="rgb(10%,10%,16%)" x1="160.066" x2="162.066" y1="57.5563" y2="57.5563" /><line stroke="rgb(10%,10%,16%)" x1="162.066" x2="164.066" y1="57.5563" y2="57.5563" /><line stroke="rgb(10%,10%,16%)" x1="164.066" x2="166.066" y1="57.5563" y2="57.5563" /><line stroke="rgb(10%,10%,16%)" x1="166.066" x2="168.066" y1="57.5563" y2="57.5563" /><line stroke="rgb(10%,10%,16%)" x1="168.066" x2="170.066" y1="57.5563" y2="57.5563" /><line stroke="rgb(10%,10%,16%)" x1="170.066" x2="172.066" y1="57.5563" y2="57.5563" /><line stroke="rgb(10%,10%,16%)" x1="172.066" x2="174.066" y1="57.5563" y2="57.5563" /><line stroke="rgb(10%,10%,16%)" x1="174.066" x2="176.066" y1="57.5563" y2="57.5563" /><line stroke="rgb(10%,10%,16%)" x1="176.066" x2="178.066" y1="57.5563" y2="57.5563" /><line stroke="rgb(10%,10%,16%)" x1="178.066" x2="180.066" y1="57.5563" y2="57.5563" /><line stroke="rgb(10%,10%,16%)" x1="180.066" x2="181.4802" y1="57.5563" y2="58.9706" /><line stroke="rgb(10%,10%,16%)" x1="181.4802" x2="182.8944" y1="58.9706" y2="60.3848" /><line stroke="rgb(10%,10%,16%)" x1="182.8944" x2="184.3087" y1="60.3848" y2="61.799" /><line stroke="rgb(10%,10%,16%)" x1="184.3087" x2="185.7229" y1="61.799" y2="63.2132" /><line stroke="rgb(10%,10%,16%)" x1="185.7229" x2="187.1371" y1="63.2132" y2="64.6274" /><line stroke="rgb(10%,10%,16%)" x1="187.1371" x2="188.5513" y1="64.6274" y2="66.0416" /><line stroke="rgb(10%,10%,16%)" x1="188.5513" x2="189.9655" y1="66.0416" y2="67.4558" /><line stroke="rgb(10%,10%,16%)" x1="189.9655" x2="191.3797" y1="67.4558" y2="68.8701" /><line stroke="rgb(10%,10%,16%)" x1="191.3797" x2="191.3797" y1="68.8701" y2="70.8701" /><line stroke="rgb(10%,10%,16%)" x1="191.3797" x2="191.3797" y1="70.8701" y2="72.8701" /><line stroke="rgb(10%,10%,16%)" x1="191.3797" x2="191.3797" y1="72.8701" y2="74.8701" /><line stroke="rgb(10%,10%,16%)" x1="191.3797" x2="191.3797" y1="74.8701" y2="76.8701" /><line stroke="rgb(10%,10%,16%)" x1="191.3797" x2="189.9655" y1="76.8701" y2="78.2843" /><line stroke="rgb(10%,10%,16%)" x1="189.9655" x2="188.5513" y1="78.2843" y2="79.6985" /><line stroke="rgb(10%,10%,16%)" x1="188.5513" x2="186.5513" y1="79.6985" y2="79.6985" /><line stroke="rgb(10%,10%,16%)" x1="186.5513" x2="185.1371" y1="79.6985" y2="78.2843" /><line stroke="rgb(10%,10%,16%)" x1="186.5513" x2="185.1371" y1="79.6985" y2="81.1127" /><line stroke="rgb(10%,10%,16%)" x1="188.5513" x2="188.5513" y1="79.6985" y2="81.6985" /><line stroke="rgb(10%,10%,16%)" x1="188.5513" x2="187.1371" y1="81.6985" y2="83.1127" /><line stroke="rgb(10%,10%,16%)" x1="188.5513" x2="189.9655" y1="81.6985" y2="83.1127" /><line stroke="rgb(10%,10%,16%)" x1="191.3797" x2="192.7939" y1="76.8701" y2="78.2843" /><line stroke="rgb(10%,10%,16%)" x1="192.7939" x2="194.2082" y1="78.2843" y2="79.6985" /><line stroke="rgb(10%,10%,16%)" x1="194.2082" x2="194.2082" y1="79.6985" y2="81.6985" /><line stroke="rgb(10%,10%,16%)" x1="194.2082" x2="192.7939" y1="81.6985" y2="83.1127" /><line stroke="rgb(10%,10%,16%)" x1="194.2082" x2="195.6224" y1="81.6985" y2="83.1127" /><line stroke="rgb(10%,10%,16%)" x1="194.2082" x2="196.2082" y1="79.6985" y2="79.6985" /><line stroke="rgb(10%,10%,16%)" x1="196.2082" x2="197.6224" y1="79.6985" y2="81.1127" /><line stroke="rgb(10%,10%,16%)" x1="196.2082" x2="197.6224" y1="79.6985" y2="78.2843" /><line stroke="rgb(10%,10%,16%)" x1="191.3797" x2="193.3797" y1="68.8701" y2="68.8701" /><line stroke="rgb(10%,10%,16%)" x1="193.3797" x2="195.3797" y1="68.8701" y2="68.8701" /><line stroke="rgb(10%,10%,16%)" x1="195.3797" x2="197.3797" y1="68.8701" y2="68.8701" /><line stroke="rgb(10%,10%,16%)" x1="197.3797" x2="199.3797" y1="68.8701" y2="68.8701" /><line stroke="rgb(10%,10%,16%)" x1="199.3797" x2="200.7939" y1="68.8701" y2="70.2843" /><line stroke="rgb(10%,10%,16%)" x1="200.7939" x2="202.2082" y1="70.2843" y2="71.6985" /><line stroke="rgb(10%,10%,16%)" x1="202.2082" x2="202.2082" y1="71.6985" y2="73.6985" /><line stroke="rgb(10%,10%,16%)" x1="202.2082" x2="200.7939" y1="73.6985" y2="75.1127" /><line stroke="rgb(10%,10%,16%)" x1="202.2082" x2="203.6224" y1="73.6985" y2="75.1127" /><line stroke="rgb(10%,10%,16%)" x1="202.2082" x2="204.2082" y1="71.6985" y2="71.6985" /><line stroke="rgb(10%,10%,16%)" x1="204.2082" x2="205.6224" y1="71.6985" y2="73.1127" /><line stroke="rgb(10%,10%,16%)" x1="204.2082" x2="205.6224" y1="71.6985" y2="70.2843" /><line stroke="rgb(10%,10%,16%)" x1="199.3797" x2="200.7939" y1="68.8701" y2="67.4558" /><line stroke="rgb(10%,10%,16%)" x1="200.7939" x2="202.2082" y1="67.4558" y2="66.0416" /><line stroke="rgb(10%,10%,16%)" x1="202.2082" x2="204.2082" y1="66.0416" y2="66.0416" /><line stroke="rgb(10%,10%,16%)" x1="204.2082" x2="205.6224" y1="66.0416" y2="67.4558" /><line stroke="rgb(10%,10%,16%)" x1="204.2082" x2="205.6224" y1="66.0416" y2="64.6274" /><line stroke="rgb(10%,10%,16%)" x1="202.2082" x2="202.2082" y1="66.0416" y2="64.0416" /><line stroke="rgb(10%,10%,16%)" x1="202.2082" x2="203.6224" y1="64.0416" y2="62.6274" /><line stroke="rgb(10%,10%,16%)" x1="202.2082" x2="200.7939" y1="64.0416" y2="62.6274" /><line stroke="rgb(10%,10%,16%)" x1="180.066" x2="181.4802" y1="57.5563" y2="56.1421" /><line stroke="rgb(10%,10%,16%)" x1="181.4802" x2="182.8944" y1="56.1421" y2="54.7279" /><line stroke="rgb(10%,10%,16%)" x1="182.8944" x2="184.3087" y1="54.7279" y2="53.3137" /><line stroke="rgb(10%,10%,16%)" x1="184.3087" x2="185.7229" y1="53.3137" y2="51.8995" /><line stroke="rgb(10%,10%,16%)" x1="185.7229" x2="187.1371" y1="51.8995" y2="50.4853" /><line stroke="rgb(10%,10%,16%)" x1="187.1371" x2="188.5513" y1="50.4853" y2="49.0711" /><line stroke="rgb(10%,10%,16%)" x1="188.5513" x2="189.9655" y1="49.0711" y2="47.6569" /><line stroke="rgb(10%,10%,16%)" x1="189.9655" x2="191.3797" y1="47.6569" y2="46.2426" /><line stroke="rgb(10%,10%,16%)" x1="191.3797" x2="193.3797" y1="46.2426" y2="46.2426" /><line stroke="rgb(10%,10%,16%)" x1="193.3797" x2="195.3797" y1="46.2426" y2="46.2426" /><line stroke="rgb(10%,10%,16%)" x1="195.3797" x2="197.3797" y1="46.2426" y2="46.2426" /><line stroke="rgb(10%,10%,16%)" x1="197.3797" x2="199.3797" y1="46.2426" y2="46.2426" /><line stroke="rgb(10%,10%,16%)" x1="199.3797" x2="200.7939" y1="46.2426" y2="47.6569" /><line stroke="rgb(10%,10%,16%)" x1="200.7939" x2="202.2082" y1="47.6569" y2="49.0711" /><line stroke="rgb(10%,10%,16%)" x1="202.2082" x2="202.2082" y1="49.0711" y2="51.0711" /><line stroke="rgb(10%,10%,16%)" x1="202.2082" x2="200.7939" y1="51.0711" y2="52.4853" /><line stroke="rgb(10%,10%,16%)" x1="202.2082" x2="203.6224" y1="51.0711" y2="52.4853" /><line stroke="rgb(10%,10%,16%)" x1="202.2082" x2="204.2082" y1="49.0711" y2="49.0711" /><line stroke="rgb(10%,10%,16%)" x1="204.2082" x2="205.6224" y1="49.0711" y2="50.4853" /><line stroke="rgb(10%,10%,16%)" x1="204.2082" x2="205.6224" y1="49.0711" y2="47.6569" /><line stroke="rgb(10%,10%,16%)" x1="199.3797" x2="200.7939" y1="46.2426" y2="44.8284" /><line stroke="rgb(10%,10%,16%)" x1="200.7939" x2="202.2082" y1="44.8284" y2="43.4142" /><line stroke="rgb(10%,10%,16%)" x1="202.2082" x2="204.2082" y1="43.4142" y2="43.4142" /><line stroke="rgb(10%,10%,16%)" x1="204.2082" x2="205.6224" y1="43.4142" y2="44.8284" /><line stroke="rgb(10%,10%,16%)" x1="204.2082" x2="205.6224" y1="43.4142" y2="42.0" /><line stroke="rgb(10%,10%,16%)" x1="202.2082" x2="202.2082" y1="43.4142" y2="41.4142" /><line stroke="rgb(10%,10%,16%)" x1="202.2082" x2="203.6224" y1="41.4142" y2="40.0" /><line stroke="rgb(10%,10%,16%)" x1="202.2082" x2="200.7939" y1="41.4142" y2="40.0" /><line stroke="rgb(10%,10%,16%)" x1="191.3797" x2="191.3797" y1="46.2426" y2="44.2426" /><line stroke="rgb(10%,10%,16%)" x1="191.3797" x2="191.3797" y1="44.2426" y2="42.2426" /><line stroke="rgb(10%,10%,16%)" x1="191.3797" x2="191.3797" y1="42.2426" y2="40.2426" /><line stroke="rgb(10%,10%,16%)" x1="191.3797" x2="191.3797" y1="40.2426" y2="38.2426" /><line stroke="rgb(10%,10%,16%)" x1="191.3797" x2="192.7939" y1="38.2426" y2="36.8284" /><line stroke="rgb(10%,10%,16%)" x1="192.7939" x2="194.2082" y1="36.8284" y2="35.4142" /><line stroke="rgb(10%,10%,16%)" x1="194.2082" x2="196.2082" y1="35.4142" y2="35.4142" /><line stroke="rgb(10%,10%,16%)" x1="196.2082" x2="197.6224" y1="35.4142" y2="36.8284" /><line stroke="rgb(10%,10%,16%)" x1="196.2082" x2="197.6224" y1="35.4142" y2="34.0" /><line stroke="rgb(10%,10%,16%)" x1="194.2082" x2="194.2082" y1="35.4142" y2="33.4142" /><line stroke="rgb(10%,10%,16%)" x1="194.2082" x2="195.6224" y1="33.4142" y2="32.0" /><line stroke="rgb(10%,10%,16%)" x1="194.2082" x2="192.7939" y1="33.4142" y2="32.0" /><line stroke="rgb(10%,10%,16%)" x1="191.3797" x2="189.9655" y1="38.2426" y2="36.8284" /><line stroke="rgb(10%,10%,16%)" x1="189.9655" x2="188.5513" y1="36.8284" y2="35.4142" /><line stroke="rgb(10%,10%,16%)" x1="188.5513" x2="188.5513" y1="35.4142" y2="33.4142" /><line stroke="rgb(10%,10%,16%)" x1="188.5513" x2="189.9655" y1="33.4142" y2="32.0" /><line stroke="rgb(10%,10%,16%)" x1="188.5513" x2="187.1371" y1="33.4142" y2="32.0" /><line stroke="rgb(10%,10%,16%)" x1="188.5513" x2="186.5513" y1="35.4142" y2="35.4142" /><line stroke="rgb(10%,10%,16%)" x1="186.5513" x2="185.1371" y1="35.4142" y2="34.0" /><line stroke="rgb(10%,10%,16%)" x1="186.5513" x2="185.1371" y1="35.4142" y2="36.8284" /><line stroke="rgb(10%,10%,16%)" x1="148.066" x2="148.066" y1="57.5563" y2="55.5563" /><line stroke="rgb(10%,10%,16%)" x1="148.066" x2="148.066" y1="55.5563" y2="53.5563" /><line stroke="rgb(10%,10%,16%)" x1="148.066" x2="148.066" y1="53.5563" y2="51.5563" /><line stroke="rgb(10%,10%,16%)" x1="148.066" x2="148.066" y1="51.5563" y2="49.5563" /><line stroke="rgb(10%,10%,16%)" x1="148.066" x2="148.066" y1="49.5563" y2="47.5563" /><line stroke="rgb(10%,10%,16%)" x1="148.066" x2="148.066" y1="47.5563" y2="45.5563" /><line stroke="rgb(10%,10%,16%)" x1="148.066" x2="148.066" y1="45.5563" y2="43.5563" /><line stroke="rgb(10%,10%,16%)" x1="148.066" x2="148.066" y1="43.5563" y2="41.5563" /><line stroke="rgb(10%,10%,16%)" x1="148.066" x2="148.066" y1="41.5563" y2="39.5563" /><line stroke="rgb(10%,10%,16%)" x1="148.066" x2="148.066" y1="39.5563" y2="37.5563" /><line stroke="rgb(10%,10%,16%)" x1="148.066" x2="148.066" y1="37.5563" y2="35.5563" /><line stroke="rgb(10%,10%,16%)" x1="148.066" x2="148.066" y1="35.5563" y2="33.5563" /><line stroke="rgb(10%,10%,16%)" x1="148.066" x2="148.066" y1="33.5563" y2="31.5563" /><line stroke="rgb(10%,10%,16%)" x1="148.066" x2="148.066" y1="31.5563" y2="29.5563" /><line stroke="rgb(10%,10%,16%)" x1="148.066" x2="148.066" y1="29.5563" y2="27.5563" /><line stroke="rgb(10%,10%,16%)" x1="148.066" x2="148.066" y1="27.5563" y2="25.5563" /><line stroke="rgb(10%,10%,16%)" x1="148.066" x2="149.4802" y1="25.5563" y2="24.1421" /><line stroke="rgb(10%,10%,16%)" x1="149.4802" x2="150.8944" y1="24.1421" y2="22.7279" /><line stroke="rgb(10%,10%,16%)" x1="150.8944" x2="152.3087" y1="22.7279" y2="21.3137" /><line stroke="rgb(10%,10%,16%)" x1="152.3087" x2="153.7229" y1="21.3137" y2="19.8995" /><line stroke="rgb(10%,10%,16%)" x1="153.7229" x2="155.1371" y1="19.8995" y2="18.4853" /><line stroke="rgb(10%,10%,16%)" x1="155.1371" x2="156.5513" y1="18.4853" y2="17.0711" /><line stroke="rgb(10%,10%,16%)" x1="156.5513" x2="157.9655" y1="17.0711" y2="15.6569" /><line stroke="rgb(10%,10%,16%)" x1="157.9655" x2="159.3797" y1="15.6569" y2="14.2426" /><line stroke="rgb(10%,10%,16%)" x1="159.3797" x2="161.3797" y1="14.2426" y2="14.2426" /><line stroke="rgb(10%,10%,16%)" x1="161.3797" x2="163.3797" y1="14.2426" y2="14.2426" /><line stroke="rgb(10%,10%,16%)" x1="163.3797" x2="165.3797" y1="14.2426" y2="14.2426" /><line stroke="rgb(10%,10%,16%)" x1="165.3797" x2="167.3797" y1="14.2426" y2="14.2426" /><line stroke="rgb(10%,10%,16%)" x1="167.3797" x2="168.7939" y1="14.2426" y2="15.6569" /><line stroke="rgb(10%,10%,16%)" x1="168.7939" x2="170.2082" y1="15.6569" y2="17.0711" /><line stroke="rgb(10%,10%,16%)" x1="170.2082" x2="170.2082" y1="17.0711" y2="19.0711" /><line stroke="rgb(10%,10%,16%)" x1="170.2082" x2="168.7939" y1="19.0711" y2="20.4853" /><line stroke="rgb(10%,10%,16%)" x1="170.2082" x2="171.6224" y1="19.0711" y2="20.4853" /><line stroke="rgb(10%,10%,16%)" x1="170.2082" x2="172.2082" y1="17.0711" y2="17.0711" /><line stroke="rgb(10%,10%,16%)" x1="172.2082" x2="173.6224" y1="17.0711" y2="18.4853" /><line stroke="rgb(10%,10%,16%)" x1="172.2082" x2="173.6224" y1="17.0711" y2="15.6569" /><line stroke="rgb(10%,10%,16%)" x1="167.3797" x2="168.7939" y1="14.2426" y2="12.8284" /><line stroke="rgb(10%,10%,16%)" x1="168.7939" x2="170.2082" y1="12.8284" y2="11.4142" /><line stroke="rgb(10%,10%,16%)" x1="170.2082" x2="172.2082" y1="11.4142" y2="11.4142" /><line stroke="rgb(10%,10%,16%)" x1="172.2082" x2="173.6224" y1="11.4142" y2="12.8284" /><line stroke="rgb(10%,10%,16%)" x1="172.2082" x2="173.6224" y1="11.4142" y2="10.0" /><line stroke="rgb(10%,10%,16%)" x1="170.2082" x2="170.2082" y1="11.4142" y2="9.4142" /><line stroke="rgb(10%,10%,16%)" x1="170.2082" x2="171.6224" y1="9.4142" y2="8.0" /><line stroke="rgb(10%,10%,16%)" x1="170.2082" x2="168.7939" y1="9.4142" y2="8.0" /><line stroke="rgb(10%,10%,16%)" x1="159.3797" x2="159.3797" y1="14.2426" y2="12.2426" /><line stroke="rgb(10%,10%,16%)" x1="159.3797" x2="159.3797" y1="12.2426" y2="10.2426" /><line stroke="rgb(10%,10%,16%)" x1="159.3797" x2="159.3797" y1="10.2426" y2="8.2426" /><line stroke="rgb(10%,10%,16%)" x1="159.3797" x2="159.3797" y1="8.2426" y2="6.2426" /><line stroke="rgb(10%,10%,16%)" x1="159.3797" x2="160.7939" y1="6.2426" y2="4.8284" /><line stroke="rgb(10%,10%,16%)" x1="160.7939" x2="162.2082" y1="4.8284" y2="3.4142" /><line stroke="rgb(10%,10%,16%)" x1="162.2082" x2="164.2082" y1="3.4142" y2="3.4142" /><line stroke="rgb(10%,10%,16%)" x1="164.2082" x2="165.6224" y1="3.4142" y2="4.8284" /><line stroke="rgb(10%,10%,16%)" x1="164.2082" x2="165.6224" y1="3.4142" y2="2.0" /><line stroke="rgb(10%,10%,16%)" x1="162.2082" x2="162.2082" y1="3.4142" y2="1.4142" /><line stroke="rgb(10%,10%,16%)" x1="162.2082" x2="163.6224" y1="1.4142" y2="0.0" /><line stroke="rgb(10%,10%,16%)" x1="162.2082" x2="160.7939" y1="1.4142" y2="0.0" /><line stroke="rgb(10%,10%,16%)" x1="159.3797" x2="157.9655" y1="6.2426" y2="4.8284" /><line stroke="rgb(10%,10%,16%)" x1="157.9655" x2="156.5513" y1="4.8284" y2="3.4142" /><line stroke="rgb(10%,10%,16%)" x1="156.5513" x2="156.5513" y1="3.4142" y2="1.4142" /><line stroke="rgb(10%,10%,16%)" x1="156.5513" x2="157.9655" y1="1.4142" y2="0.0" /><line stroke="rgb(10%,10%,16%)" x1="156.5513" x2="155.1371" y1="1.4142" y2="0.0" /><line stroke="rgb(10%,10%,16%)" x1="156.5513" x2="154.5513" y1="3.4142" y2="3.4142" /><line stroke="rgb(10%,10%,16%)" x1="154.5513" x2="153.1371" y1="3.4142" y2="2.0" /><line stroke="rgb(10%,10%,16%)" x1="154.5513" x2="153.1371" y1="3.4142" y2="4.8284" /><line stroke="rgb(10%,10%,16%)" x1="148.066" x2="146.6518" y1="25.5563" y2="24.1421" /><line stroke="rgb(10%,10%,16%)" x1="146.6518" x2="145.2376" y1="24.1421" y2="22.7279" /><line stroke="rgb(10%,10%,16%)" x1="145.2376" x2="143.8234" y1="22.7279" y2="21.3137" /><line stroke="rgb(10%,10%,16%)" x1="143.8234" x2="142.4092" y1="21.3137" y2="19.8995" /><line stroke="rgb(10%,10%,16%)" x1="142.4092" x2="140.9949" y1="19.8995" y2="18.4853" /><line stroke="rgb(10%,10%,16%)" x1="140.9949" x2="139.5807" y1="18.4853" y2="17.0711" /><line stroke="rgb(10%,10%,16%)" x1="139.5807" x2="138.1665" y1="17.0711" y2="15.6569" /><line stroke="rgb(10%,10%,16%)" x1="138.1665" x2="136.7523" y1="15.6569" y2="14.2426" /><line stroke="rgb(10%,10%,16%)" x1="136.7523" x2="136.7523" y1="14.2426" y2="12.2426" /><line stroke="rgb(10%,10%,16%)" x1="136.7523" x2="136.7523" y1="12.2426" y2="10.2426" /><line stroke="rgb(10%,10%,16%)" x1="136.7523" x2="136.7523" y1="10.2426" y2="8.2426" /><line stroke="rgb(10%,10%,16%)" x1="136.7523" x2="136.7523" y1="8.2426" y2="6.2426" /><line stroke="rgb(10%,10%,16%)" x1="136.7523" x2="138.1665" y1="6.2426" y2="4.8284" /><line stroke="rgb(10%,10%,16%)" x1="138.1665" x2="139.5807" y1="4.8284" y2="3.4142" /><line stroke="rgb(10%,10%,16%)" x1="139.5807" x2="141.5807" y1="3.4142" y2="3.4142" /><line stroke="rgb(10%,10%,16%)" x1="141.5807" x2="142.9949" y1="3.4142" y2="4.8284" /><line stroke="rgb(10%,10%,16%)" x1="141.5807" x2="142.9949" y1="3.4142" y2="2.0" /><line stroke="rgb(10%,10%,16%)" x1="139.5807" x2="139.5807" y1="3.4142" y2="1.4142" /><line stroke="rgb(10%,10%,16%)" x1="139.5807" x2="140.9949" y1="1.4142" y2="0.0" /><line stroke="rgb(10%,10%,16%)" x1="139.5807" x2="138.1665" y1="1.4142" y2="0.0" /><line stroke="rgb(10%,10%,16%)" x1="136.7523" x2="135.3381" y1="6.2426" y2="4.8284" /><line stroke="rgb(10%,10%,16%)" x1="135.3381" x2="133.9239" y1="4.8284" y2="3.4142" /><line stroke="rgb(10%,10%,16%)" x1="133.9239" x2="133.9239" y1="3.4142" y2="1.4142" /><line stroke="rgb(10%,10%,16%)" x1="133.9239" x2="135.3381" y1="1.4142" y2="0.0" /><line stroke="rgb(10%,10%,16%)" x1="133.9239" x2="132.5097" y1="1.4142" y2="0.0" /><line stroke="rgb(10%,10%,16%)" x1="133.9239" x2="131.9239" y1="3.4142" y2="3.4142" /><line stroke="rgb(10%,10%,16%)" x1="131.9239" x2="130.5097" y1="3.4142" y2="2.0" /><line stroke="rgb(10%,10%,16%)" x1="131.9239" x2="130.5097" y1="3.4142" y2="4.8284" /><line stroke="rgb(10%,10%,16%)" x1="136.7523" x2="134.7523" y1="14.2426" y2="14.2426" /><line stroke="rgb(10%,10%,16%)" x1="134.7523" x2="132.7523" y1="14.2426" y2="14.2426" /><line stroke="rgb(10%,10%,16%)" x1="132.7523" x2="130.7523" y1="14.2426" y2="14.2426" /><line stroke="rgb(10%,10%,16%)" x1="130.7523" x2="128.7523" y1="14.2426" y2="14.2426" /><line stroke="rgb(10%,10%,16%)" x1="128.7523" x2="127.3381" y1="14.2426" y2="12.8284" /><line stroke="rgb(10%,10%,16%)" x1="127.3381" x2="125.9239" y1="12.8284" y2="11.4142" /><line stroke="rgb(10%,10%,16%)" x1="125.9239" x2="125.9239" y1="11.4142" y2="9.4142" /><line stroke="rgb(10%,10%,16%)" x1="125.9239" x2="127.3381" y1="9.4142" y2="8.0" /><line stroke="rgb(10%,10%,16%)" x1="125.9239" x2="124.5097" y1="9.4142" y2="8.0" /><line stroke="rgb(10%,10%,16%)" x1="125.9239" x2="123.9239" y1="11.4142" y2="11.4142" /><line stroke="rgb(10%,10%,16%)" x1="123.9239" x2="122.5097" y1="11.4142" y2="10.0" /><line stroke="rgb(10%,10%,16%)" x1="123.9239" x2="122.5097" y1="11.4142" y2="12.8284" /><line stroke="rgb(10%,10%,16%)" x1="128.7523" x2="127.3381" y1="14.2426" y2="15.6569" /><line stroke="rgb(10%,10%,16%)" x1="127.3381" x2="125.9239" y1="15.6569" y2="17.0711" /><line stroke="rgb(10%,10%,16%)" x1="125.9239" x2="123.9239" y1="17.0711" y2="17.0711" /><line stroke="rgb(10%,10%,16%)" x1="123.9239" x2="122.5097" y1="17.0711" y2="15.6569" /><line stroke="rgb(10%,10%,16%)" x1="123.9239" x2="122.5097" y1="17.0711" y2="18.4853" /><line stroke="rgb(10%,10%,16%)" x1="125.9239" x2="125.9239" y1="17.0711" y2="19.0711" /><line stroke="rgb(10%,10%,16%)" x1="125.9239" x2="124.5097" y1="19.0711" y2="20.4853" /><line stroke="rgb(10%,10%,16%)" x1="125.9239" x2="127.3381" y1="19.0711" y2="20.4853" /><line stroke="rgb(10%,10%,16%)" x1="102.8112" x2="101.397" y1="102.8112" y2="101.397" /><line stroke="rgb(10%,10%,16%)" x1="101.397" x2="99.9828" y1="101.397" y2="99.9828" /><line stroke="rgb(10%,10%,16%)" x1="99.9828" x2="98.5685" y1="99.9828" y2="98.5685" /><line stroke="rgb(10%,10%,16%)" x1="98.5685" x2="97.1543" y1="98.5685" y2="97.1543" /><line stroke="rgb(10%,10%,16%)" x1="97.1543" x2="95.7401" y1="97.1543" y2="95.7401" /><line stroke="rgb(10%,10%,16%)" x1="95.7401" x2="94.3259" y1="95.7401" y2="94.3259" /><line stroke="rgb(10%,10%,16%)" x1="94.3259" x2="92.9117" y1="94.3259" y2="92.9117" /><line stroke="rgb(10%,10%,16%)" x1="92.9117" x2="91.4975" y1="92.9117" y2="91.4975" /><line stroke="rgb(10%,10%,16%)" x1="91.4975" x2="90.0833" y1="91.4975" y2="90.0833" /><line stroke="rgb(10%,10%,16%)" x1="90.0833" x2="88.669" y1="90.0833" y2="88.669" /><line stroke="rgb(10%,10%,16%)" x1="88.669" x2="87.2548" y1="88.669" y2="87.2548" /><line stroke="rgb(10%,10%,16%)" x1="87.2548" x2="85.8406" y1="87.2548" y2="85.8406" /><line stroke="rgb(10%,10%,16%)" x1="85.8406" x2="84.4264" y1="85.8406" y2="84.4264" /><line stroke="rgb(10%,10%,16%)" x1="84.4264" x2="83.0122" y1="84.4264" y2="83.0122" /><line stroke="rgb(10%,10%,16%)" x1="83.0122" x2="81.598" y1="83.0122" y2="81.598" /><line stroke="rgb(10%,10%,16%)" x1="81.598" x2="80.1838" y1="81.598" y2="80.1838" /><line stroke="rgb(10%,10%,16%)" x1="80.1838" x2="78.7696" y1="80.1838" y2="78.7696" /><line stroke="rgb(10%,10%,16%)" x1="78.7696" x2="77.3553" y1="78.7696" y2="77.3553" /><line stroke="rgb(10%,10%,16%)" x1="77.3553" x2="75.9411" y1="77.3553" y2="75.9411" /><line stroke="rgb(10%,10%,16%)" x1="75.9411" x2="74.5269" y1="75.9411" y2="74.5269" /><line stroke="rgb(10%,10%,16%)" x1="74.5269" x2="73.1127" y1="74.5269" y2="73.1127" /><line stroke="rgb(10%,10%,16%)" x1="73.1127" x2="71.6985" y1="73.1127" y2="71.6985" /><line stroke="rgb(10%,10%,16%)" x1="71.6985" x2="70.2843" y1="71.6985" y2="70.2843" /><line stroke="rgb(10%,10%,16%)" x1="70.2843" x2="68.8701" y1="70.2843" y2="68.8701" /><line stroke="rgb(10%,10%,16%)" x1="68.8701" x2="67.4558" y1="68.8701" y2="67.4558" /><line stroke="rgb(10%,10%,16%)" x1="67.4558" x2="66.0416" y1="67.4558" y2="66.0416" /><line stroke="rgb(10%,10%,16%)" x1="66.0416" x2="64.6274" y1="66.0416" y2="64.6274" /><line stroke="rgb(10%,10%,16%)" x1="64.6274" x2="63.2132" y1="64.6274" y2="63.2132" /><line stroke="rgb(10%,10%,16%)" x1="63.2132" x2="61.799" y1="63.2132" y2="61.799" /><line stroke="rgb(10%,10%,16%)" x1="61.799" x2="60.3848" y1="61.799" y2="60.3848" /><line stroke="rgb(10%,10%,16%)" x1="60.3848" x2="58.9706" y1="60.3848" y2="58.9706" /><line stroke="rgb(10%,10%,16%)" x1="58.9706" x2="57.5563" y1="58.9706" y2="57.5563" /><line stroke="rgb(10%,10%,16%)" x1="57.5563" x2="57.5563" y1="57.5563" y2="55.5563" /><line stroke="rgb(10%,10%,16%)" x1="57.5563" x2="57.5563" y1="55.5563" y2="53.5563" /><line stroke="rgb(10%,10%,16%)" x1="57.5563" x2="57.5563" y1="53.5563" y2="51.5563" /><line stroke="rgb(10%,10%,16%)" x1="57.5563" x2="57.5563" y1="51.5563" y2="49.5563" /><line stroke="rgb(10%,10%,16%)" x1="57.5563" x2="57.5563" y1="49.5563" y2="47.5563" /><line stroke="rgb(10%,10%,16%)" x1="57.5563" x2="57.5563" y1="47.5563" y2="45.5563" /><line stroke="rgb(10%,10%,16%)" x1="57.5563" x2="57.5563" y1="45.5563" y2="43.5563" /><line stroke="rgb(10%,10%,16%)" x1="57.5563" x2="57.5563" y1="43.5563" y2="41.5563" /><line stroke="rgb(10%,10%,16%)" x1="57.5563" x2="57.5563" y1="41.5563" y2="39.5563" /><line stroke="rgb(10%,10%,16%)" x1="57.5563" x2="57.5563" y1="39.5563" y2="37.5563" /><line stroke="rgb(10%,10%,16%)" x1="57.5563" x2="57.5563" y1="37.5563" y2="35.5563" /><line stroke="rgb(10%,10%,16%)" x1="57.5563" x2="57.5563" y1="35.5563" y2="33.5563" /><line stroke="rgb(10%,10%,16%)" x1="57.5563" x2="57.5563" y1="33.5563" y2="31.5563" /><line stroke="rgb(10%,10%,16%)" x1="57.5563" x2="57.5563" y1="31.5563" y2="29.5563" /><line stroke="rgb(10%,10%,16%)" x1="57.5563" x2="57.5563" y1="29.5563" y2="27.5563" /><line stroke="rgb(10%,10%,16%)" x1="57.5563" x2="57.5563" y1="27.5563" y2="25.5563" /><line stroke="rgb(10%,10%,16%)" x1="57.5563" x2="58.9706" y1="25.5563" y2="24.1421" /><line stroke="rgb(10%,10%,16%)" x1="58.9706" x2="60.3848" y1="24.1421" y2="22.7279" /><line stroke="rgb(10%,10%,16%)" x1="60.3848" x2="61.799" y1="22.7279" y2="21.3137" /><line stroke="rgb(10%,10%,16%)" x1="61.799" x2="63.2132" y1="21.3137" y2="19.8995" /><line stroke="rgb(10%,10%,16%)" x1="63.2132" x2="64.6274" y1="19.8995" y2="18.4853" /><line stroke="rgb(10%,10%,16%)" x1="64.6274" x2="66.0416" y1="18.4853" y2="17.0711" /><line stroke="rgb(10%,10%,16%)" x1="66.0416" x2="67.4558" y1="17.0711" y2="15.6569" /><line stroke="rgb(10%,10%,16%)" x1="67.4558" x2="68.8701" y1="15.6569" y2="14.2426" /><line stroke="rgb(10%,10%,16%)" x1="68.8701" x2="70.8701" y1="14.2426" y2="14.2426" /><line stroke="rgb(10%,10%,16%)" x1="70.8701" x2="72.8701" y1="14.2426" y2="14.2426" /><line stroke="rgb(10%,10%,16%)" x1="72.8701" x2="74.8701" y1="14.2426" y2="14.2426" /><line stroke="rgb(10%,10%,16%)" x1="74.8701" x2="76.8701" y1="14.2426" y2="14.2426" /><line stroke="rgb(10%,10%,16%)" x1="76.8701" x2="78.2843" y1="14.2426" y2="15.6569" /><line stroke="rgb(10%,10%,16%)" x1="78.2843" x2="79.6985" y1="15.6569" y2="17.0711" /><line stroke="rgb(10%,10%,16%)" x1="79.6985" x2="79.6985" y1="17.0711" y2="19.0711" /><line stroke="rgb(10%,10%,16%)" x1="79.6985" x2="78.2843" y1="19.0711" y2="20.4853" /><line stroke="rgb(10%,10%,16%)" x1="79.6985" x2="81.1127" y1="19.0711" y2="20.4853" /><line stroke="rgb(10%,10%,16%)" x1="79.6985" x2="81.6985" y1="17.0711" y2="17.0711" /><line stroke="rgb(10%,10%,16%)" x1="81.6985" x2="83.1127" y1="17.0711" y2="18.4853" /><line stroke="rgb(10%,10%,16%)" x1="81.6985" x2="83.1127" y1="17.0711" y2="15.6569" /><line stroke="rgb(10%,10%,16%)" x1="76.8701" x2="78.2843" y1="14.2426" y2="12.8284" /><line stroke="rgb(10%,10%,16%)" x1="78.2843" x2="79.6985" y1="12.8284" y2="11.4142" /><line stroke="rgb(10%,10%,16%)" x1="79.6985" x2="81.6985" y1="11.4142" y2="11.4142" /><line stroke="rgb(10%,10%,16%)" x1="81.6985" x2="83.1127" y1="11.4142" y2="12.8284" /><line stroke="rgb(10%,10%,16%)" x1="81.6985" x2="83.1127" y1="11.4142" y2="10.0" /><line stroke="rgb(10%,10%,16%)" x1="79.6985" x2="79.6985" y1="11.4142" y2="9.4142" /><line stroke="rgb(10%,10%,16%)" x1="79.6985" x2="81.1127" y1="9.4142" y2="8.0" /><line stroke="rgb(10%,10%,16%)" x1="79.6985" x2="78.2843" y1="9.4142" y2="8.0" /><line stroke="rgb(10%,10%,16%)" x1="68.8701" x2="68.8701" y1="14.2426" y2="12.2426" /><line stroke="rgb(10%,10%,16%)" x1="68.8701" x2="68.8701" y1="12.2426" y2="10.2426" /><line stroke="rgb(10%,10%,16%)" x1="68.8701" x2="68.8701" y1="10.2426" y2="8.2426" /><line stroke="rgb(10%,10%,16%)" x1="68.8701" x2="68.8701" y1="8.2426" y2="6.2426" /><line stroke="rgb(10%,10%,16%)" x1="68.8701" x2="70.2843" y1="6.2426" y2="4.8284" /><line stroke="rgb(10%,10%,16%)" x1="70.2843" x2="71.6985" y1="4.8284" y2="3.4142" /><line stroke="rgb(10%,10%,16%)" x1="71.6985" x2="73.6985" y1="3.4142" y2="3.4142" /><line stroke="rgb(10%,10%,16%)" x1="73.6985" x2="75.1127" y1="3.4142" y2="4.8284" /><line stroke="rgb(10%,10%,16%)" x1="73.6985" x2="75.1127" y1="3.4142" y2="2.0" /><line stroke="rgb(10%,10%,16%)" x1="71.6985" x2="71.6985" y1="3.4142" y2="1.4142" /><line stroke="rgb(10%,10%,16%)" x1="71.6985" x2="73.1127" y1="1.4142" y2="0.0" /><line stroke="rgb(10%,10%,16%)" x1="71.6985" x2="70.2843" y1="1.4142" y2="0.0" /><line stroke="rgb(10%,10%,16%)" x1="68.8701" x2="67.4558" y1="6.2426" y2="4.8284" /><line stroke="rgb(10%,10%,16%)" x1="67.4558" x2="66.0416" y1="4.8284" y2="3.4142" /><line stroke="rgb(10%,10%,16%)" x1="66.0416" x2="66.0416" y1="3.4142" y2="1.4142" /><line stroke="rgb(10%,10%,16%)" x1="66.0416" x2="67.4558" y1="1.4142" y2="0.0" /><line stroke="rgb(10%,10%,16%)" x1="66.0416" x2="64.6274" y1="1.4142" y2="0.0" /><line stroke="rgb(10%,10%,16%)" x1="66.0416" x2="64.0416" y1="3.4142" y2="3.4142" /><line stroke="rgb(10%,10%,16%)" x1="64.0416" x2="62.6274" y1="3.4142" y2="2.0" /><line stroke="rgb(10%,10%,16%)" x1="64.0416" x2="62.6274" y1="3.4142" y2="4.8284" /><line stroke="rgb(10%,10%,16%)" x1="57.5563" x2="56.1421" y1="25.5563" y2="24.1421" /><line stroke="rgb(10%,10%,16%)" x1="56.1421" x2="54.7279" y1="24.1421" y2="22.7279" /><line stroke="rgb(10%,10%,16%)" x1="54.7279" x2="53.3137" y1="22.7279" y2="21.3137" /><line stroke="rgb(10%,10%,16%)" x1="53.3137" x2="51.8995" y1="21.3137" y2="19.8995" /><line stroke="rgb(10%,10%,16%)" x1="51.8995" x2="50.4853" y1="19.8995" y2="18.4853" /><line stroke="rgb(10%,10%,16%)" x1="50.4853" x2="49.0711" y1="18.4853" y2="17.0711" /><line stroke="rgb(10%,10%,16%)" x1="49.0711" x2="47.6569" y1="17.0711" y2="15.6569" /><line stroke="rgb(10%,10%,16%)" x1="47.6569" x2="46.2426" y1="15.6569" y2="14.2426" /><line stroke="rgb(10%,10%,16%)" x1="46.2426" x2="46.2426" y1="14.2426" y2="12.2426" /><line stroke="rgb(10%,10%,16%)" x1="46.2426" x2="46.2426" y1="12.2426" y2="10.2426" /><line stroke="rgb(10%,10%,16%)" x1="46.2426" x2="46.2426" y1="10.2426" y2="8.2426" /><line stroke="rgb(10%,10%,16%)" x1="46.2426" x2="46.2426" y1="8.2426" y2="6.2426" /><line stroke="rgb(10%,10%,16%)" x1="46.2426" x2="47.6569" y1="6.2426" y2="4.8284" /><line stroke="rgb(10%,10%,16%)" x1="47.6569" x2="49.0711" y1="4.8284" y2="3.4142" /><line stroke="rgb(10%,10%,16%)" x1="49.0711" x2="51.0711" y1="3.4142" y2="3.4142" /><line stroke="rgb(10%,10%,16%)" x1="51.0711" x2="52.4853" y1="3.4142" y2="4.8284" /><line stroke="rgb(10%,10%,16%)" x1="51.0711" x2="52.4853" y1="3.4142" y2="2.0" /><line stroke="rgb(10%,10%,16%)" x1="49.0711" x2="49.0711" y1="3.4142" y2="1.4142" /><line stroke="rgb(10%,10%,16%)" x1="49.0711" x2="50.4853" y1="1.4142" y2="0.0" /><line stroke="rgb(10%,10%,16%)" x1="49.0711" x2="47.6569" y1="1.4142" y2="0.0" /><line stroke="rgb(10%,10%,16%)" x1="46.2426" x2="44.8284" y1="6.2426" y2="4.8284" /><line stroke="rgb(10%,10%,16%)" x1="44.8284" x2="43.4142" y1="4.8284" y2="3.4142" /><line stroke="rgb(10%,10%,16%)" x1="43.4142" x2="43.4142" y1="3.4142" y2="1.4142" /><line stroke="rgb(10%,10%,16%)" x1="43.4142" x2="44.8284" y1="1.4142" y2="0.0" /><line stroke="rgb(10%,10%,16%)" x1="43.4142" x2="42.0" y1="1.4142" y2="0.0" /><line stroke="rgb(10%,10%,16%)" x1="43.4142" x2="41.4142" y1="3.4142" y2="3.4142" /><line stroke="rgb(10%,10%,16%)" x1="41.4142" x2="40.0" y1="3.4142" y2="2.0" /><line stroke="rgb(10%,10%,16%)" x1="41.4142" x2="40.0" y1="3.4142" y2="4.8284" /><line stroke="rgb(10%,10%,16%)" x1="46.2426" x2="44.2426" y1="14.2426" y2="14.2426" /><line stroke="rgb(10%,10%,16%)" x1="44.2426" x2="42.2426" y1="14.2426" y2="14.2426" /><line stroke="rgb(10%,10%,16%)" x1="42.2426" x2="40.2426" y1="14.2426" y2="14.2426" /><line stroke="rgb(10%,10%,16%)" x1="40.2426" x2="38.2426" y1="14.2426" y2="14.2426" /><line stroke="rgb(10%,10%,16%)" x1="38.2426" x2="36.8284" y1="14.2426" y2="12.8284" /><line stroke="rgb(10%,10%,16%)" x1="36.8284" x2="35.4142" y1="12.8284" y2="11.4142" /><line stroke="rgb(10%,10%,16%)" x1="35.4142" x2="35.4142" y1="11.4142" y2="9.4142" /><line stroke="rgb(10%,10%,16%)" x1="35.4142" x2="36.8284" y1="9.4142" y2="8.0" /><line stroke="rgb(10%,10%,16%)" x1="35.4142" x2="34.0" y1="9.4142" y2="8.0" /><line stroke="rgb(10%,10%,16%)" x1="35.4142" x2="33.4142" y1="11.4142" y2="11.4142" /><line stroke="rgb(10%,10%,16%)" x1="33.4142" x2="32.0" y1="11.4142" y2="10.0" /><line stroke="rgb(10%,10%,16%)" x1="33.4142" x2="32.0" y1="11.4142" y2="12.8284" /><line stroke="rgb(10%,10%,16%)" x1="38.2426" x2="36.8284" y1="14.2426" y2="15.6569" /><line stroke="rgb(10%,10%,16%)" x1="36.8284" x2="35.4142" y1="15.6569" y2="17.0711" /><line stroke="rgb(10%,10%,16%)" x1="35.4142" x2="33.4142" y1="17.0711" y2="17.0711" /><line stroke="rgb(10%,10%,16%)" x1="33.4142" x2="32.0" y1="17.0711" y2="15.6569" /><line stroke="rgb(10%,10%,16%)" x1="33.4142" x2="32.0" y1="17.0711" y2="18.4853" /><line stroke="rgb(10%,10%,16%)" x1="35.4142" x2="35.4142" y1="17.0711" y2="19.0711" /><line stroke="rgb(10%,10%,16%)" x1="35.4142" x2="34.0" y1="19.0711" y2="20.4853" /><line stroke="rgb(10%,10%,16%)" x1="35.4142" x2="36.8284" y1="19.0711" y2="20.4853" /><line stroke="rgb(10%,10%,16%)" x1="57.5563" x2="55.5563" y1="57.5563" y2="57.5563" /><line stroke="rgb(10%,10%,16%)" x1="55.5563" x2="53.5563" y1="57.5563" y2="57.5563" /><line stroke="rgb(10%,10%,16%)" x1="53.5563" x2="51.5563" y1="57.5563" y2="57.5563" /><line stroke="rgb(10%,10%,16%)" x1="51.5563" x2="49.5563" y1="57.5563" y2="57.5563" /><line stroke="rgb(10%,10%,16%)" x1="49.5563" x2="47.5563" y1="57.5563" y2="57.5563" /><line stroke="rgb(10%,10%,16%)" x1="47.5563" x2="45.5563" y1="57.5563" y2="57.5563" /><line stroke="rgb(10%,10%,16%)" x1="45.5563" x2="43.5563" y1="57.5563" y2="57.5563" /><line stroke="rgb(10%,10%,16%)" x1="43.5563" x2="41.5563" y1="57.5563" y2="57.5563" /><line stroke="rgb(10%,10%,16%)" x1="41.5563" x2="39.5563" y1="57.5563" y2="57.5563" /><line stroke="rgb(10%,10%,16%)" x1="39.5563" x2="37.5563" y1="57.5563" y2="57.5563" /><line stroke="rgb(10%,10%,16%)" x1="37.5563" x2="35.5563" y1="57.5563" y2="57.5563" /><line stroke="rgb(10%,10%,16%)" x1="35.5563" x2="33.5563" y1="57.5563" y2="57.5563" /><line stroke="rgb(10%,10%,16%)" x1="33.5563" x2="31.5563" y1="57.5563" y2="57.5563" /><line stroke="rgb(10%,10%,16%)" x1="31.5563" x2="29.5563" y1="57.5563" y2="57.5563" /><line stroke="rgb(10%,10%,16%)" x1="29.5563" x2="27.5563" y1="57.5563" y2="57.5563" /><line stroke="rgb(10%,10%,16%)" x1="27.5563" x2="25.5563" y1="57.5563" y2="57.5563" /><line stroke="rgb(10%,10%,16%)" x1="25.5563" x2="24.1421" y1="57.5563" y2="56.1421" /><line stroke="rgb(10%,10%,16%)" x1="24.1421" x2="22.7279" y1="56.1421" y2="54.7279" /><line stroke="rgb(10%,10%,16%)" x1="22.7279" x2="21.3137" y1="54.7279" y2="53.3137" /><line stroke="rgb(10%,10%,16%)" x1="21.3137" x2="19.8995" y1="53.3137" y2="51.8995" /><line stroke="rgb(10%,10%,16%)" x1="19.8995" x2="18.4853" y1="51.8995" y2="50.4853" /><line stroke="rgb(10%,10%,16%)" x1="18.4853" x2="17.0711" y1="50.4853" y2="49.0711" /><line stroke="rgb(10%,10%,16%)" x1="17.0711" x2="15.6569" y1="49.0711" y2="47.6569" /><line stroke="rgb(10%,10%,16%)" x1="15.6569" x2="14.2426" y1="47.6569" y2="46.2426" /><line stroke="rgb(10%,10%,16%)" x1="14.2426" x2="14.2426" y1="46.2426" y2="44.2426" /><line stroke="rgb(10%,10%,16%)" x1="14.2426" x2="14.2426" y1="44.2426" y2="42.2426" /><line stroke="rgb(10%,10%,16%)" x1="14.2426" x2="14.2426" y1="42.2426" y2="40.2426" /><line stroke="rgb(10%,10%,16%)" x1="14.2426" x2="14.2426" y1="40.2426" y2="38.2426" /><line stroke="rgb(10%,10%,16%)" x1="14.2426" x2="15.6569" y1="38.2426" y2="36.8284" /><line stroke="rgb(10%,10%,16%)" x1="15.6569" x2="17.0711" y1="36.8284" y2="35.4142" /><line stroke="rgb(10%,10%,16%)" x1="17.0711" x2="19.0711" y1="35.4142" y2="35.4142" /><line stroke="rgb(10%,10%,16%)" x1="19.0711" x2="20.4853" y1="35.4142" y2="36.8284" /><line stroke="rgb(10%,10%,16%)" x1="19.0711" x2="20.4853" y1="35.4142" y2="34.0" /><line stroke="rgb(10%,10%,16%)" x1="17.0711" x2="17.0711" y1="35.4142" y2="33.4142" /><line stroke="rgb(10%,10%,16%)" x1="17.0711" x2="18.4853" y1="33.4142" y2="32.0" /><line stroke="rgb(10%,10%,16%)" x1="17.0711" x2="15.6569" y1="33.4142" y2="32.0" /><line stroke="rgb(10%,10%,16%)" x1="14.2426" x2="12.8284" y1="38.2426" y2="36.8284" /><line stroke="rgb(10%,10%,16%)" x1="12.8284" x2="11.4142" y1="36.8284" y2="35.4142" /><line stroke="rgb(10%,10%,16%)" x1="11.4142" x2="11.4142" y1="35.4142" y2="33.4142" /><line stroke="rgb(10%,10%,16%)" x1="11.4142" x2="12.8284" y1="33.4142" y2="32.0" /><line stroke="rgb(10%,10%,16%)" x1="11.4142" x2="10.0" y1="33.4142" y2="32.0" /><line stroke="rgb(10%,10%,16%)" x1="11.4142" x2="9.4142" y1="35.4142" y2="35.4142" /><line stroke="rgb(10%,10%,16%)" x1="9.4142" x2="8.0" y1="35.4142" y2="34.0" /><line stroke="rgb(10%,10%,16%)" x1="9.4142" x2="8.0" y1="35.4142" y2="36.8284" /><line stroke="rgb(10%,10%,16%)" x1="14.2426" x2="12.2426" y1="46.2426" y2="46.2426" /><line stroke="rgb(10%,10%,16%)" x1="12.2426" x2="10.2426" y1="46.2426" y2="46.2426" /><line stroke="rgb(10%,10%,16%)" x1="10.2426" x2="8.2426" y1="46.2426" y2="46.2426" /><line stroke="rgb(10%,10%,16%)" x1="8.2426" x2="6.2426" y1="46.2426" y2="46.2426" /><line stroke="rgb(10%,10%,16%)" x1="6.2426" x2="4.8284" y1="46.2426" y2="44.8284" /><line stroke="rgb(10%,10%,16%)" x1="4.8284" x2="3.4142" y1="44.8284" y2="43.4142" /><line stroke="rgb(10%,10%,16%)" x1="3.4142" x2="3.4142" y1="43.4142" y2="41.4142" /><line stroke="rgb(10%,10%,16%)" x1="3.4142" x2="4.8284" y1="41.4142" y2="40.0" /><line stroke="rgb(10%,10%,16%)" x1="3.4142" x2="2.0" y1="41.4142" y2="40.0" /><line stroke="rgb(10%,10%,16%)" x1="3.4142" x2="1.4142" y1="43.4142" y2="43.4142" /><line stroke="rgb(10%,10%,16%)" x1="1.4142" x2="0.0" y1="43.4142" y2="42.0" /><line stroke="rgb(10%,10%,16%)" x1="1.4142" x2="0.0" y1="43.4142" y2="44.8284" /><line stroke="rgb(10%,10%,16%)" x1="6.2426" x2="4.8284" y1="46.2426" y2="47.6569" /><line stroke="rgb(10%,10%,16%)" x1="4.8284" x2="3.4142" y1="47.6569" y2="49.0711" /><line stroke="rgb(10%,10%,16%)" x1="3.4142" x2="1.4142" y1="49.0711" y2="49.0711" /><line stroke="rgb(10%,10%,16%)" x1="1.4142" x2="0.0" y1="49.0711" y2="47.6569" /><line stroke="rgb(10%,10%,16%)" x1="1.4142" x2="0.0" y1="49.0711" y2="50.4853" /><line stroke="rgb(10%,10%,16%)" x1="3.4142" x2="3.4142" y1="49.0711" y2="51.0711" /><line stroke="rgb(10%,10%,16%)" x1="3.4142" x2="2.0" y1="51.0711" y2="52.4853" /><line stroke="rgb(10%,10%,16%)" x1="3.4142" x2="4.8284" y1="51.0711" y2="52.4853" /><line stroke="rgb(10%,10%,16%)" x1="25.5563" x2="24.1421" y1="57.5563" y2="58.9706" /><line stroke="rgb(10%,10%,16%)" x1="24.1421" x2="22.7279" y1="58.9706" y2="60.3848" /><line stroke="rgb(10%,10%,16%)" x1="22.7279" x2="21.3137" y1="60.3848" y2="61.799" /><line stroke="rgb(10%,10%,16%)" x1="21.3137" x2="19.8995" y1="61.799" y2="63.2132" /><line stroke="rgb(10%,10%,16%)" x1="19.8995" x2="18.4853" y1="63.2132" y2="64.6274" /><line stroke="rgb(10%,10%,16%)" x1="18.4853" x2="17.0711" y1="64.6274" y2="66.0416" /><line stroke="rgb(10%,10%,16%)" x1="17.0711" x2="15.6569" y1="66.0416" y2="67.4558" /><line stroke="rgb(10%,10%,16%)" x1="15.6569" x2="14.2426" y1="67.4558" y2="68.8701" /><line stroke="rgb(10%,10%,16%)" x1="14.2426" x2="12.2426" y1="68.8701" y2="68.8701" /><line stroke="rgb(10%,10%,16%)" x1="12.2426" x2="10.2426" y1="68.8701" y2="68.8701" /><line stroke="rgb(10%,10%,16%)" x1="10.2426" x2="8.2426" y1="68.8701" y2="68.8701" /><line stroke="rgb(10%,10%,16%)" x1="8.2426" x2="6.2426" y1="68.8701" y2="68.8701" /><line stroke="rgb(10%,10%,16%)" x1="6.2426" x2="4.8284" y1="68.8701" y2="67.4558" /><line stroke="rgb(10%,10%,16%)" x1="4.8284" x2="3.4142" y1="67.4558" y2="66.0416" /><line stroke="rgb(10%,10%,16%)" x1="3.4142" x2="3.4142" y1="66.0416" y2="64.0416" /><line stroke="rgb(10%,10%,16%)" x1="3.4142" x2="4.8284" y1="64.0416" y2="62.6274" /><line stroke="rgb(10%,10%,16%)" x1="3.4142" x2="2.0" y1="64.0416" y2="62.6274" /><line stroke="rgb(10%,10%,16%)" x1="3.4142" x2="1.4142" y1="66.0416" y2="66.0416" /><line stroke="rgb(10%,10%,16%)" x1="1.4142" x2="0.0" y1="66.0416" y2="64.6274" /><line stroke="rgb(10%,10%,16%)" x1="1.4142" x2="0.0" y1="66.0416" y2="67.4558" /><line stroke="rgb(10%,10%,16%)" x1="6.2426" x2="4.8284" y1="68.8701" y2="70.2843" /><line stroke="rgb(10%,10%,16%)" x1="4.8284" x2="3.4142" y1="70.2843" y2="71.6985" /><line stroke="rgb(10%,10%,16%)" x1="3.4142" x2="1.4142" y1="71.6985" y2="71.6985" /><line stroke="rgb(10%,10%,16%)" x1="1.4142" x2="0.0" y1="71.6985" y2="70.2843" /><line stroke="rgb(10%,10%,16%)" x1="1.4142" x2="0.0" y1="71.6985" y2="73.1127" /><line stroke="rgb(10%,10%,16%)" x1="3.4142" x2="3.4142" y1="71.6985" y2="73.6985" /><line stroke="rgb(10%,10%,16%)" x1="3.4142" x2="2.0" y1="73.6985" y2="75.1127" /><line stroke="rgb(10%,10%,16%)" x1="3.4142" x2="4.8284" y1="73.6985" y2="75.1127" /><line stroke="rgb(10%,10%,16%)" x1="14.2426" x2="14.2426" y1="68.8701" y2="70.8701" /><line stroke="rgb(10%,10%,16%)" x1="14.2426" x2="14.2426" y1="70.8701" y2="72.8701" /><line stroke="rgb(10%,10%,16%)" x1="14.2426" x2="14.2426" y1="72.8701" y2="74.8701" /><line stroke="rgb(10%,10%,16%)" x1="14.2426" x2="14.2426" y1="74.8701" y2="76.8701" /><line stroke="rgb(10%,10%,16%)" x1="14.2426" x2="12.8284" y1="76.8701" y2="78.2843" /><line stroke="rgb(10%,10%,16%)" x1="12.8284" x2="11.4142" y1="78.2843" y2="79.6985" /><line stroke="rgb(10%,10%,16%)" x1="11.4142" x2="9.4142" y1="79.6985" y2="79.6985" /><line stroke="rgb(10%,10%,16%)" x1="9.4142" x2="8.0" y1="79.6985" y2="78.2843" /><line stroke="rgb(10%,10%,16%)" x1="9.4142" x2="8.0" y1="79.6985" y2="81.1127" /><line stroke="rgb(10%,10%,16%)" x1="11.4142" x2="11.4142" y1="79.6985" y2="81.6985" /><line stroke="rgb(10%,10%,16%)" x1="11.4142" x2="10.0" y1="81.6985" y2="83.1127" /><line stroke="rgb(10%,10%,16%)" x1="11.4142" x2="12.8284" y1="81.6985" y2="83.1127" /><line stroke="rgb(10%,10%,16%)" x1="14.2426" x2="15.6569" y1="76.8701" y2="78.2843" /><line stroke="rgb(10%,10%,16%)" x1="15.6569" x2="17.0711" y1="78.2843" y2="79.6985" /><line stroke="rgb(10%,10%,16%)" x1="17.0711" x2="17.0711" y1="79.6985" y2="81.6985" /><line stroke="rgb(10%,10%,16%)" x1="17.0711" x2="15.6569" y1="81.6985" y2="83.1127" /><line stroke="rgb(10%,10%,16%)" x1="17.0711" x2="18.4853" y1="81.6985" y2="83.1127" /><line stroke="rgb(10%,10%,16%)" x1="17.0711" x2="19.0711" y1="79.6985" y2="79.6985" /><line stroke="rgb(10%,10%,16%)" x1="19.0711" x2="20.4853" y1="79.6985" y2="81.1127" /><line stroke="rgb(10%,10%,16%)" x1="19.0711" x2="20.4853" y1="79.6985" y2="78.2843" /></svg>