<?xml version="1.0" encoding="utf-8" ?>
<svg baseProfile="full" height="100%" version="1.1" width="100%" xmlns="http://www.w3.org/2000/svg" xmlns:ev="http://www.w3.org/2001/xml-events" xmlns:xlink="http://www.w3.org/1999/xlink"><defs /><line stroke="black" x1="200" x2="400" y1="200" y2="200" /><line stroke="black" x1="200" x2="0" y1="200" y2="200" /><line stroke="black" x1="200" x2="0" y1="200" y2="200" /><line stroke="black" x1="200" x2="400" y1="200" y2="200" /><line stroke="black" x1="200" x2="387" y1="213" y2="200" /><line stroke="black" x1="200" x2="13" y1="187" y2="200" /><line stroke="black" x1="200" x2="13" y1="213" y2="200" /><line stroke="black" x1="200" x2="387" y1="187" y2="200" /><line stroke="black" x1="200" x2="374" y1="226" y2="200" /><line stroke="black" x1="200" x2="26" y1="174" y2="200" /><line stroke="black" x1="200" x2="26" y1="226" y2="200" /><line stroke="black" x1="200" x2="374" y1="174" y2="200" /><line stroke="black" x1="200" x2="361" y1="239" y2="200" /><line stroke="black" x1="200" x2="39" y1="161" y2="200" /><line stroke="black" x1="200" x2="39" y1="239" y2="200" /><line stroke="black" x1="200" x2="361" y1="161" y2="200" /><line stroke="black" x1="200" x2="348" y1="252" y2="200" /><line stroke="black" x1="200" x2="52" y1="148" y2="200" /><line stroke="black" x1="200" x2="52" y1="252" y2="200" /><line stroke="black" x1="200" x2="348" y1="148" y2="200" /><line stroke="black" x1="200" x2="335" y1="265" y2="200" /><line stroke="black" x1="200" x2="65" y1="135" y2="200" /><line stroke="black" x1="200" x2="65" y1="265" y2="200" /><line stroke="black" x1="200" x2="335" y1="135" y2="200" /><line stroke="black" x1="200" x2="322" y1="278" y2="200" /><line stroke="black" x1="200" x2="78" y1="122" y2="200" /><line stroke="black" x1="200" x2="78" y1="278" y2="200" /><line stroke="black" x1="200" x2="322" y1="122" y2="200" /><line stroke="black" x1="200" x2="309" y1="291" y2="200" /><line stroke="black" x1="200" x2="91" y1="109" y2="200" /><line stroke="black" x1="200" x2="91" y1="291" y2="200" /><line stroke="black" x1="200" x2="309" y1="109" y2="200" /><line stroke="black" x1="200" x2="296" y1="304" y2="200" /><line stroke="black" x1="200" x2="104" y1="96" y2="200" /><line stroke="black" x1="200" x2="104" y1="304" y2="200" /><line stroke="black" x1="200" x2="296" y1="96" y2="200" /><line stroke="black" x1="200" x2="283" y1="317" y2="200" /><line stroke="black" x1="200" x2="117" y1="83" y2="200" /><line stroke="black" x1="200" x2="117" y1="317" y2="200" /><line stroke="black" x1="200" x2="283" y1="83" y2="200" /><line stroke="black" x1="200" x2="270" y1="330" y2="200" /><line stroke="black" x1="200" x2="130" y1="70" y2="200" /><line stroke="black" x1="200" x2="130" y1="330" y2="200" /><line stroke="black" x1="200" x2="270" y1="70" y2="200" /><line stroke="black" x1="200" x2="257" y1="343" y2="200" /><line stroke="black" x1="200" x2="143" y1="57" y2="200" /><line stroke="black" x1="200" x2="143" y1="343" y2="200" /><line stroke="black" x1="200" x2="257" y1="57" y2="200" /><line stroke="black" x1="200" x2="244" y1="356" y2="200" /><line stroke="black" x1="200" x2="156" y1="44" y2="200" /><line stroke="black" x1="200" x2="156" y1="356" y2="200" /><line stroke="black" x1="200" x2="244" y1="44" y2="200" /><line stroke="black" x1="200" x2="231" y1="369" y2="200" /><line stroke="black" x1="200" x2="169" y1="31" y2="200" /><line stroke="black" x1="200" x2="169" y1="369" y2="200" /><line stroke="black" x1="200" x2="231" y1="31" y2="200" /><line stroke="black" x1="200" x2="218" y1="382" y2="200" /><line stroke="black" x1="200" x2="182" y1="18" y2="200" /><line stroke="black" x1="200" x2="182" y1="382" y2="200" /><line stroke="black" x1="200" x2="218" y1="18" y2="200" /><line stroke="black" x1="200" x2="205" y1="395" y2="200" /><line stroke="black" x1="200" x2="195" y1="5" y2="200" /><line stroke="black" x1="200" x2="195" y1="395" y2="200" /><line stroke="black" x1="200" x2="205" y1="5" y2="200" /></svg>