<?xml version="1.0" encoding="utf-8" ?>
<svg baseProfile="tiny" height="100%" version="1.2" width="100%" xmlns="http://www.w3.org/2000/svg" xmlns:ev="http://www.w3.org/2001/xml-events" xmlns:xlink="http://www.w3.org/1999/xlink"><defs /><line stroke="rgb(10%,10%,16%)" x1="505.7422" x2="505.7422" y1="253.0244" y2="153.0244" /><line stroke="rgb(10%,10%,16%)" x1="505.7422" x2="459.0732" y1="153.0244" y2="106.3553" /><line stroke="rgb(10%,10%,16%)" x1="459.0732" x2="415.0732" y1="106.3553" y2="106.3553" /><line stroke="rgb(10%,10%,16%)" x1="415.0732" x2="394.5671" y1="106.3553" y2="126.8614" /><line stroke="rgb(10%,10%,16%)" x1="394.5671" x2="394.5671" y1="126.8614" y2="145.8614" /><line stroke="rgb(10%,10%,16%)" x1="394.5671" x2="403.0523" y1="145.8614" y2="154.3467" /><line stroke="rgb(10%,10%,16%)" x1="403.0523" x2="411.0523" y1="154.3467" y2="154.3467" /><line stroke="rgb(10%,10%,16%)" x1="411.0523" x2="405.3955" y1="154.3467" y2="160.0036" /><line stroke="rgb(10%,10%,16%)" x1="405.3955" x2="405.3955" y1="160.0036" y2="148.0036" /><line stroke="rgb(10%,10%,16%)" x1="405.3955" x2="399.7386" y1="148.0036" y2="142.3467" /><line stroke="rgb(10%,10%,16%)" x1="399.7386" x2="407.7386" y1="142.3467" y2="142.3467" /><line stroke="rgb(10%,10%,16%)" x1="407.7386" x2="394.3036" y1="142.3467" y2="155.7817" /><line stroke="rgb(10%,10%,16%)" x1="394.3036" x2="394.3036" y1="155.7817" y2="167.7817" /><line stroke="rgb(10%,10%,16%)" x1="394.3036" x2="399.9605" y1="167.7817" y2="173.4386" /><line stroke="rgb(10%,10%,16%)" x1="399.9605" x2="391.9605" y1="173.4386" y2="173.4386" /><line stroke="rgb(10%,10%,16%)" x1="391.9605" x2="400.4457" y1="173.4386" y2="164.9533" /><line stroke="rgb(10%,10%,16%)" x1="400.4457" x2="400.4457" y1="164.9533" y2="156.9533" /><line stroke="rgb(10%,10%,16%)" x1="400.4457" x2="406.1026" y1="156.9533" y2="162.6102" /><line stroke="rgb(10%,10%,16%)" x1="406.1026" x2="377.1026" y1="162.6102" y2="162.6102" /><line stroke="rgb(10%,10%,16%)" x1="377.1026" x2="363.6676" y1="162.6102" y2="176.0452" /><line stroke="rgb(10%,10%,16%)" x1="363.6676" x2="363.6676" y1="176.0452" y2="188.0452" /><line stroke="rgb(10%,10%,16%)" x1="363.6676" x2="369.3244" y1="188.0452" y2="193.7021" /><line stroke="rgb(10%,10%,16%)" x1="369.3244" x2="361.3244" y1="193.7021" y2="193.7021" /><line stroke="rgb(10%,10%,16%)" x1="361.3244" x2="369.8097" y1="193.7021" y2="185.2168" /><line stroke="rgb(10%,10%,16%)" x1="369.8097" x2="369.8097" y1="185.2168" y2="177.2168" /><line stroke="rgb(10%,10%,16%)" x1="369.8097" x2="375.4666" y1="177.2168" y2="182.8736" /><line stroke="rgb(10%,10%,16%)" x1="375.4666" x2="356.4666" y1="182.8736" y2="182.8736" /><line stroke="rgb(10%,10%,16%)" x1="356.4666" x2="347.9813" y1="182.8736" y2="191.3589" /><line stroke="rgb(10%,10%,16%)" x1="347.9813" x2="347.9813" y1="191.3589" y2="199.3589" /><line stroke="rgb(10%,10%,16%)" x1="347.9813" x2="342.3244" y1="199.3589" y2="193.7021" /><line stroke="rgb(10%,10%,16%)" x1="342.3244" x2="354.3244" y1="193.7021" y2="193.7021" /><line stroke="rgb(10%,10%,16%)" x1="354.3244" x2="359.9813" y1="193.7021" y2="188.0452" /><line stroke="rgb(10%,10%,16%)" x1="359.9813" x2="359.9813" y1="188.0452" y2="196.0452" /><line stroke="rgb(10%,10%,16%)" x1="359.9813" x2="328.8686" y1="196.0452" y2="164.9325" /><line stroke="rgb(10%,10%,16%)" x1="328.8686" x2="299.8686" y1="164.9325" y2="164.9325" /><line stroke="rgb(10%,10%,16%)" x1="299.8686" x2="286.4335" y1="164.9325" y2="178.3675" /><line stroke="rgb(10%,10%,16%)" x1="286.4335" x2="286.4335" y1="178.3675" y2="190.3675" /><line stroke="rgb(10%,10%,16%)" x1="286.4335" x2="292.0904" y1="190.3675" y2="196.0244" /><line stroke="rgb(10%,10%,16%)" x1="292.0904" x2="284.0904" y1="196.0244" y2="196.0244" /><line stroke="rgb(10%,10%,16%)" x1="284.0904" x2="292.5757" y1="196.0244" y2="187.5391" /><line stroke="rgb(10%,10%,16%)" x1="292.5757" x2="292.5757" y1="187.5391" y2="179.5391" /><line stroke="rgb(10%,10%,16%)" x1="292.5757" x2="298.2325" y1="179.5391" y2="185.196" /><line stroke="rgb(10%,10%,16%)" x1="298.2325" x2="279.2325" y1="185.196" y2="185.196" /><line stroke="rgb(10%,10%,16%)" x1="279.2325" x2="270.7473" y1="185.196" y2="193.6812" /><line stroke="rgb(10%,10%,16%)" x1="270.7473" x2="270.7473" y1="193.6812" y2="201.6812" /><line stroke="rgb(10%,10%,16%)" x1="270.7473" x2="265.0904" y1="201.6812" y2="196.0244" /><line stroke="rgb(10%,10%,16%)" x1="265.0904" x2="277.0904" y1="196.0244" y2="196.0244" /><line stroke="rgb(10%,10%,16%)" x1="277.0904" x2="282.7473" y1="196.0244" y2="190.3675" /><line stroke="rgb(10%,10%,16%)" x1="282.7473" x2="282.7473" y1="190.3675" y2="198.3675" /><line stroke="rgb(10%,10%,16%)" x1="282.7473" x2="262.2412" y1="198.3675" y2="177.8614" /><line stroke="rgb(10%,10%,16%)" x1="262.2412" x2="243.2412" y1="177.8614" y2="177.8614" /><line stroke="rgb(10%,10%,16%)" x1="243.2412" x2="234.7559" y1="177.8614" y2="186.3467" /><line stroke="rgb(10%,10%,16%)" x1="234.7559" x2="234.7559" y1="186.3467" y2="194.3467" /><line stroke="rgb(10%,10%,16%)" x1="234.7559" x2="229.099" y1="194.3467" y2="188.6899" /><line stroke="rgb(10%,10%,16%)" x1="229.099" x2="241.099" y1="188.6899" y2="188.6899" /><line stroke="rgb(10%,10%,16%)" x1="241.099" x2="246.7559" y1="188.6899" y2="183.033" /><line stroke="rgb(10%,10%,16%)" x1="246.7559" x2="246.7559" y1="183.033" y2="191.033" /><line stroke="rgb(10%,10%,16%)" x1="246.7559" x2="233.3209" y1="191.033" y2="177.598" /><line stroke="rgb(10%,10%,16%)" x1="233.3209" x2="221.3209" y1="177.598" y2="177.598" /><line stroke="rgb(10%,10%,16%)" x1="221.3209" x2="215.664" y1="177.598" y2="183.2548" /><line stroke="rgb(10%,10%,16%)" x1="215.664" x2="215.664" y1="183.2548" y2="175.2548" /><line stroke="rgb(10%,10%,16%)" x1="215.664" x2="224.1493" y1="175.2548" y2="183.7401" /><line stroke="rgb(10%,10%,16%)" x1="224.1493" x2="232.1493" y1="183.7401" y2="183.7401" /><line stroke="rgb(10%,10%,16%)" x1="232.1493" x2="226.4924" y1="183.7401" y2="189.397" /><line stroke="rgb(10%,10%,16%)" x1="226.4924" x2="226.4924" y1="189.397" y2="123.397" /><line stroke="rgb(10%,10%,16%)" x1="226.4924" x2="195.3797" y1="123.397" y2="92.2843" /><line stroke="rgb(10%,10%,16%)" x1="195.3797" x2="166.3797" y1="92.2843" y2="92.2843" /><line stroke="rgb(10%,10%,16%)" x1="166.3797" x2="152.9447" y1="92.2843" y2="105.7193" /><line stroke="rgb(10%,10%,16%)" x1="152.9447" x2="152.9447" y1="105.7193" y2="117.7193" /><line stroke="rgb(10%,10%,16%)" x1="152.9447" x2="158.6016" y1="117.7193" y2="123.3762" /><line stroke="rgb(10%,10%,16%)" x1="158.6016" x2="150.6016" y1="123.3762" y2="123.3762" /><line stroke="rgb(10%,10%,16%)" x1="150.6016" x2="159.0868" y1="123.3762" y2="114.8909" /><line stroke="rgb(10%,10%,16%)" x1="159.0868" x2="159.0868" y1="114.8909" y2="106.8909" /><line stroke="rgb(10%,10%,16%)" x1="159.0868" x2="164.7437" y1="106.8909" y2="112.5477" /><line stroke="rgb(10%,10%,16%)" x1="164.7437" x2="145.7437" y1="112.5477" y2="112.5477" /><line stroke="rgb(10%,10%,16%)" x1="145.7437" x2="137.2584" y1="112.5477" y2="121.033" /><line stroke="rgb(10%,10%,16%)" x1="137.2584" x2="137.2584" y1="121.033" y2="129.033" /><line stroke="rgb(10%,10%,16%)" x1="137.2584" x2="131.6016" y1="129.033" y2="123.3762" /><line stroke="rgb(10%,10%,16%)" x1="131.6016" x2="143.6016" y1="123.3762" y2="123.3762" /><line stroke="rgb(10%,10%,16%)" x1="143.6016" x2="149.2584" y1="123.3762" y2="117.7193" /><line stroke="rgb(10%,10%,16%)" x1="149.2584" x2="149.2584" y1="117.7193" y2="125.7193" /><line stroke="rgb(10%,10%,16%)" x1="149.2584" x2="128.7523" y1="125.7193" y2="105.2132" /><line stroke="rgb(10%,10%,16%)" x1="128.7523" x2="109.7523" y1="105.2132" y2="105.2132" /><line stroke="rgb(10%,10%,16%)" x1="109.7523" x2="101.267" y1="105.2132" y2="113.6985" /><line stroke="rgb(10%,10%,16%)" x1="101.267" x2="101.267" y1="113.6985" y2="121.6985" /><line stroke="rgb(10%,10%,16%)" x1="101.267" x2="95.6102" y1="121.6985" y2="116.0416" /><line stroke="rgb(10%,10%,16%)" x1="95.6102" x2="107.6102" y1="116.0416" y2="116.0416" /><line stroke="rgb(10%,10%,16%)" x1="107.6102" x2="113.267" y1="116.0416" y2="110.3848" /><line stroke="rgb(10%,10%,16%)" x1="113.267" x2="113.267" y1="110.3848" y2="118.3848" /><line stroke="rgb(10%,10%,16%)" x1="113.267" x2="99.832" y1="118.3848" y2="104.9497" /><line stroke="rgb(10%,10%,16%)" x1="99.832" x2="87.832" y1="104.9497" y2="104.9497" /><line stroke="rgb(10%,10%,16%)" x1="87.832" x2="82.1751" y1="104.9497" y2="110.6066" /><line stroke="rgb(10%,10%,16%)" x1="82.1751" x2="82.1751" y1="110.6066" y2="102.6066" /><line stroke="rgb(10%,10%,16%)" x1="82.1751" x2="90.6604" y1="102.6066" y2="111.0919" /><line stroke="rgb(10%,10%,16%)" x1="90.6604" x2="98.6604" y1="111.0919" y2="111.0919" /><line stroke="rgb(10%,10%,16%)" x1="98.6604" x2="93.0036" y1="111.0919" y2="116.7487" /><line stroke="rgb(10%,10%,16%)" x1="93.0036" x2="93.0036" y1="116.7487" y2="72.7487" /><line stroke="rgb(10%,10%,16%)" x1="93.0036" x2="72.4975" y1="72.7487" y2="52.2426" /><line stroke="rgb(10%,10%,16%)" x1="72.4975" x2="53.4975" y1="52.2426" y2="52.2426" /><line stroke="rgb(10%,10%,16%)" x1="53.4975" x2="45.0122" y1="52.2426" y2="60.7279" /><line stroke="rgb(10%,10%,16%)" x1="45.0122" x2="45.0122" y1="60.7279" y2="68.7279" /><line stroke="rgb(10%,10%,16%)" x1="45.0122" x2="39.3553" y1="68.7279" y2="63.0711" /><line stroke="rgb(10%,10%,16%)" x1="39.3553" x2="51.3553" y1="63.0711" y2="63.0711" /><line stroke="rgb(10%,10%,16%)" x1="51.3553" x2="57.0122" y1="63.0711" y2="57.4142" /><line stroke="rgb(10%,10%,16%)" x1="57.0122" x2="57.0122" y1="57.4142" y2="65.4142" /><line stroke="rgb(10%,10%,16%)" x1="57.0122" x2="43.5772" y1="65.4142" y2="51.9792" /><line stroke="rgb(10%,10%,16%)" x1="43.5772" x2="31.5772" y1="51.9792" y2="51.9792" /><line stroke="rgb(10%,10%,16%)" x1="31.5772" x2="25.9203" y1="51.9792" y2="57.636" /><line stroke="rgb(10%,10%,16%)" x1="25.9203" x2="25.9203" y1="57.636" y2="49.636" /><line stroke="rgb(10%,10%,16%)" x1="25.9203" x2="34.4056" y1="49.636" y2="58.1213" /><line stroke="rgb(10%,10%,16%)" x1="34.4056" x2="42.4056" y1="58.1213" y2="58.1213" /><line stroke="rgb(10%,10%,16%)" x1="42.4056" x2="36.7487" y1="58.1213" y2="63.7782" /><line stroke="rgb(10%,10%,16%)" x1="36.7487" x2="36.7487" y1="63.7782" y2="34.7782" /><line stroke="rgb(10%,10%,16%)" x1="36.7487" x2="23.3137" y1="34.7782" y2="21.3431" /><line stroke="rgb(10%,10%,16%)" x1="23.3137" x2="11.3137" y1="21.3431" y2="21.3431" /><line stroke="rgb(10%,10%,16%)" x1="11.3137" x2="5.6569" y1="21.3431" y2="27.0" /><line stroke="rgb(10%,10%,16%)" x1="5.6569" x2="5.6569" y1="27.0" y2="19.0" /><line stroke="rgb(10%,10%,16%)" x1="5.6569" x2="14.1421" y1="19.0" y2="27.4853" /><line stroke="rgb(10%,10%,16%)" x1="14.1421" x2="22.1421" y1="27.4853" y2="27.4853" /><line stroke="rgb(10%,10%,16%)" x1="22.1421" x2="16.4853" y1="27.4853" y2="33.1421" /><line stroke="rgb(10%,10%,16%)" x1="16.4853" x2="16.4853" y1="33.1421" y2="14.1421" /><line stroke="rgb(10%,10%,16%)" x1="16.4853" x2="8.0" y1="14.1421" y2="5.6569" /><line stroke="rgb(10%,10%,16%)" x1="8.0" x2="0.0" y1="5.6569" y2="5.6569" /><line stroke="rgb(10%,10%,16%)" x1="0.0" x2="5.6569" y1="5.6569" y2="0.0" /><line stroke="rgb(10%,10%,16%)" x1="5.6569" x2="5.6569" y1="0.0" y2="12.0" /><line stroke="rgb(10%,10%,16%)" x1="5.6569" x2="11.3137" y1="12.0" y2="17.6569" /><line stroke="rgb(10%,10%,16%)" x1="11.3137" x2="3.3137" y1="17.6569" y2="17.6569" /></svg>