<?xml version="1.0" encoding="utf-8" ?>
<svg baseProfile="tiny" height="100%" version="1.2" width="100%" xmlns="http://www.w3.org/2000/svg" xmlns:ev="http://www.w3.org/2001/xml-events" xmlns:xlink="http://www.w3.org/1999/xlink"><defs /><line stroke="rgb(10%,10%,16%)" x1="74.641" x2="74.641" y1="74.641" y2="94.641" /><line stroke="rgb(10%,10%,16%)" x1="74.641" x2="84.641" y1="94.641" y2="111.9615" /><line stroke="rgb(10%,10%,16%)" x1="84.641" x2="101.9615" y1="111.9615" y2="121.9615" /><line stroke="rgb(10%,10%,16%)" x1="101.9615" x2="121.9615" y1="121.9615" y2="121.9615" /><line stroke="rgb(10%,10%,16%)" x1="121.9615" x2="139.282" y1="121.9615" y2="111.9615" /><line stroke="rgb(10%,10%,16%)" x1="139.282" x2="149.282" y1="111.9615" y2="94.641" /><line stroke="rgb(10%,10%,16%)" x1="149.282" x2="149.282" y1="94.641" y2="74.641" /><line stroke="rgb(10%,10%,16%)" x1="149.282" x2="139.282" y1="74.641" y2="57.3205" /><line stroke="rgb(10%,10%,16%)" x1="139.282" x2="121.9615" y1="57.3205" y2="47.3205" /><line stroke="rgb(10%,10%,16%)" x1="121.9615" x2="101.9615" y1="47.3205" y2="47.3205" /><line stroke="rgb(10%,10%,16%)" x1="101.9615" x2="84.641" y1="47.3205" y2="57.3205" /><line stroke="rgb(10%,10%,16%)" x1="84.641" x2="74.641" y1="57.3205" y2="74.641" /><line stroke="rgb(10%,10%,16%)" x1="74.641" x2="84.641" y1="74.641" y2="91.9615" /><line stroke="rgb(10%,10%,16%)" x1="84.641" x2="101.9615" y1="91.9615" y2="101.9615" /><line stroke="rgb(10%,10%,16%)" x1="101.9615" x2="121.9615" y1="101.9615" y2="101.9615" /><line stroke="rgb(10%,10%,16%)" x1="121.9615" x2="139.282" y1="101.9615" y2="91.9615" /><line stroke="rgb(10%,10%,16%)" x1="139.282" x2="149.282" y1="91.9615" y2="74.641" /><line stroke="rgb(10%,10%,16%)" x1="149.282" x2="149.282" y1="74.641" y2="54.641" /><line stroke="rgb(10%,10%,16%)" x1="149.282" x2="139.282" y1="54.641" y2="37.3205" /><line stroke="rgb(10%,10%,16%)" x1="139.282" x2="121.9615" y1="37.3205" y2="27.3205" /><line stroke="rgb(10%,10%,16%)" x1="121.9615" x2="101.9615" y1="27.3205" y2="27.3205" /><line stroke="rgb(10%,10%,16%)" x1="101.9615" x2="84.641" y1="27.3205" y2="37.3205" /><line stroke="rgb(10%,10%,16%)" x1="84.641" x2="74.641" y1="37.3205" y2="54.641" /><line stroke="rgb(10%,10%,16%)" x1="74.641" x2="74.641" y1="54.641" y2="74.641" /><line stroke="rgb(10%,10%,16%)" x1="74.641" x2="91.9615" y1="74.641" y2="84.641" /><line stroke="rgb(10%,10%,16%)" x1="91.9615" x2="111.9615" y1="84.641" y2="84.641" /><line stroke="rgb(10%,10%,16%)" x1="111.9615" x2="129.282" y1="84.641" y2="74.641" /><line stroke="rgb(10%,10%,16%)" x1="129.282" x2="139.282" y1="74.641" y2="57.3205" /><line stroke="rgb(10%,10%,16%)" x1="139.282" x2="139.282" y1="57.3205" y2="37.3205" /><line stroke="rgb(10%,10%,16%)" x1="139.282" x2="129.282" y1="37.3205" y2="20.0" /><line stroke="rgb(10%,10%,16%)" x1="129.282" x2="111.9615" y1="20.0" y2="10.0" /><line stroke="rgb(10%,10%,16%)" x1="111.9615" x2="91.9615" y1="10.0" y2="10.0" /><line stroke="rgb(10%,10%,16%)" x1="91.9615" x2="74.641" y1="10.0" y2="20.0" /><line stroke="rgb(10%,10%,16%)" x1="74.641" x2="64.641" y1="20.0" y2="37.3205" /><line stroke="rgb(10%,10%,16%)" x1="64.641" x2="64.641" y1="37.3205" y2="57.3205" /><line stroke="rgb(10%,10%,16%)" x1="64.641" x2="74.641" y1="57.3205" y2="74.641" /><line stroke="rgb(10%,10%,16%)" x1="74.641" x2="94.641" y1="74.641" y2="74.641" /><line stroke="rgb(10%,10%,16%)" x1="94.641" x2="111.9615" y1="74.641" y2="64.641" /><line stroke="rgb(10%,10%,16%)" x1="111.9615" x2="121.9615" y1="64.641" y2="47.3205" /><line stroke="rgb(10%,10%,16%)" x1="121.9615" x2="121.9615" y1="47.3205" y2="27.3205" /><line stroke="rgb(10%,10%,16%)" x1="121.9615" x2="111.9615" y1="27.3205" y2="10.0" /><line stroke="rgb(10%,10%,16%)" x1="111.9615" x2="94.641" y1="10.0" y2="0.0" /><line stroke="rgb(10%,10%,16%)" x1="94.641" x2="74.641" y1="0.0" y2="0.0" /><line stroke="rgb(10%,10%,16%)" x1="74.641" x2="57.3205" y1="0.0" y2="10.0" /><line stroke="rgb(10%,10%,16%)" x1="57.3205" x2="47.3205" y1="10.0" y2="27.3205" /><line stroke="rgb(10%,10%,16%)" x1="47.3205" x2="47.3205" y1="27.3205" y2="47.3205" /><line stroke="rgb(10%,10%,16%)" x1="47.3205" x2="57.3205" y1="47.3205" y2="64.641" /><line stroke="rgb(10%,10%,16%)" x1="57.3205" x2="74.641" y1="64.641" y2="74.641" /><line stroke="rgb(10%,10%,16%)" x1="74.641" x2="91.9615" y1="74.641" y2="64.641" /><line stroke="rgb(10%,10%,16%)" x1="91.9615" x2="101.9615" y1="64.641" y2="47.3205" /><line stroke="rgb(10%,10%,16%)" x1="101.9615" x2="101.9615" y1="47.3205" y2="27.3205" /><line stroke="rgb(10%,10%,16%)" x1="101.9615" x2="91.9615" y1="27.3205" y2="10.0" /><line stroke="rgb(10%,10%,16%)" x1="91.9615" x2="74.641" y1="10.0" y2="0.0" /><line stroke="rgb(10%,10%,16%)" x1="74.641" x2="54.641" y1="0.0" y2="0.0" /><line stroke="rgb(10%,10%,16%)" x1="54.641" x2="37.3205" y1="0.0" y2="10.0" /><line stroke="rgb(10%,10%,16%)" x1="37.3205" x2="27.3205" y1="10.0" y2="27.3205" /><line stroke="rgb(10%,10%,16%)" x1="27.3205" x2="27.3205" y1="27.3205" y2="47.3205" /><line stroke="rgb(10%,10%,16%)" x1="27.3205" x2="37.3205" y1="47.3205" y2="64.641" /><line stroke="rgb(10%,10%,16%)" x1="37.3205" x2="54.641" y1="64.641" y2="74.641" /><line stroke="rgb(10%,10%,16%)" x1="54.641" x2="74.641" y1="74.641" y2="74.641" /><line stroke="rgb(10%,10%,16%)" x1="74.641" x2="84.641" y1="74.641" y2="57.3205" /><line stroke="rgb(10%,10%,16%)" x1="84.641" x2="84.641" y1="57.3205" y2="37.3205" /><line stroke="rgb(10%,10%,16%)" x1="84.641" x2="74.641" y1="37.3205" y2="20.0" /><line stroke="rgb(10%,10%,16%)" x1="74.641" x2="57.3205" y1="20.0" y2="10.0" /><line stroke="rgb(10%,10%,16%)" x1="57.3205" x2="37.3205" y1="10.0" y2="10.0" /><line stroke="rgb(10%,10%,16%)" x1="37.3205" x2="20.0" y1="10.0" y2="20.0" /><line stroke="rgb(10%,10%,16%)" x1="20.0" x2="10.0" y1="20.0" y2="37.3205" /><line stroke="rgb(10%,10%,16%)" x1="10.0" x2="10.0" y1="37.3205" y2="57.3205" /><line stroke="rgb(10%,10%,16%)" x1="10.0" x2="20.0" y1="57.3205" y2="74.641" /><line stroke="rgb(10%,10%,16%)" x1="20.0" x2="37.3205" y1="74.641" y2="84.641" /><line stroke="rgb(10%,10%,16%)" x1="37.3205" x2="57.3205" y1="84.641" y2="84.641" /><line stroke="rgb(10%,10%,16%)" x1="57.3205" x2="74.641" y1="84.641" y2="74.641" /><line stroke="rgb(10%,10%,16%)" x1="74.641" x2="74.641" y1="74.641" y2="54.641" /><line stroke="rgb(10%,10%,16%)" x1="74.641" x2="64.641" y1="54.641" y2="37.3205" /><line stroke="rgb(10%,10%,16%)" x1="64.641" x2="47.3205" y1="37.3205" y2="27.3205" /><line stroke="rgb(10%,10%,16%)" x1="47.3205" x2="27.3205" y1="27.3205" y2="27.3205" /><line stroke="rgb(10%,10%,16%)" x1="27.3205" x2="10.0" y1="27.3205" y2="37.3205" /><line stroke="rgb(10%,10%,16%)" x1="10.0" x2="0.0" y1="37.3205" y2="54.641" /><line stroke="rgb(10%,10%,16%)" x1="0.0" x2="0.0" y1="54.641" y2="74.641" /><line stroke="rgb(10%,10%,16%)" x1="0.0" x2="10.0" y1="74.641" y2="91.9615" /><line stroke="rgb(10%,10%,16%)" x1="10.0" x2="27.3205" y1="91.9615" y2="101.9615" /><line stroke="rgb(10%,10%,16%)" x1="27.3205" x2="47.3205" y1="101.9615" y2="101.9615" /><line stroke="rgb(10%,10%,16%)" x1="47.3205" x2="64.641" y1="101.9615" y2="91.9615" /><line stroke="rgb(10%,10%,16%)" x1="64.641" x2="74.641" y1="91.9615" y2="74.641" /><line stroke="rgb(10%,10%,16%)" x1="74.641" x2="64.641" y1="74.641" y2="57.3205" /><line stroke="rgb(10%,10%,16%)" x1="64.641" x2="47.3205" y1="57.3205" y2="47.3205" /><line stroke="rgb(10%,10%,16%)" x1="47.3205" x2="27.3205" y1="47.3205" y2="47.3205" /><line stroke="rgb(10%,10%,16%)" x1="27.3205" x2="10.0" y1="47.3205" y2="57.3205" /><line stroke="rgb(10%,10%,16%)" x1="10.0" x2="0.0" y1="57.3205" y2="74.641" /><line stroke="rgb(10%,10%,16%)" x1="0.0" x2="0.0" y1="74.641" y2="94.641" /><line stroke="rgb(10%,10%,16%)" x1="0.0" x2="10.0" y1="94.641" y2="111.9615" /><line stroke="rgb(10%,10%,16%)" x1="10.0" x2="27.3205" y1="111.9615" y2="121.9615" /><line stroke="rgb(10%,10%,16%)" x1="27.3205" x2="47.3205" y1="121.9615" y2="121.9615" /><line stroke="rgb(10%,10%,16%)" x1="47.3205" x2="64.641" y1="121.9615" y2="111.9615" /><line stroke="rgb(10%,10%,16%)" x1="64.641" x2="74.641" y1="111.9615" y2="94.641" /><line stroke="rgb(10%,10%,16%)" x1="74.641" x2="74.641" y1="94.641" y2="74.641" /><line stroke="rgb(10%,10%,16%)" x1="74.641" x2="57.3205" y1="74.641" y2="64.641" /><line stroke="rgb(10%,10%,16%)" x1="57.3205" x2="37.3205" y1="64.641" y2="64.641" /><line stroke="rgb(10%,10%,16%)" x1="37.3205" x2="20.0" y1="64.641" y2="74.641" /><line stroke="rgb(10%,10%,16%)" x1="20.0" x2="10.0" y1="74.641" y2="91.9615" /><line stroke="rgb(10%,10%,16%)" x1="10.0" x2="10.0" y1="91.9615" y2="111.9615" /><line stroke="rgb(10%,10%,16%)" x1="10.0" x2="20.0" y1="111.9615" y2="129.282" /><line stroke="rgb(10%,10%,16%)" x1="20.0" x2="37.3205" y1="129.282" y2="139.282" /><line stroke="rgb(10%,10%,16%)" x1="37.3205" x2="57.3205" y1="139.282" y2="139.282" /><line stroke="rgb(10%,10%,16%)" x1="57.3205" x2="74.641" y1="139.282" y2="129.282" /><line stroke="rgb(10%,10%,16%)" x1="74.641" x2="84.641" y1="129.282" y2="111.9615" /><line stroke="rgb(10%,10%,16%)" x1="84.641" x2="84.641" y1="111.9615" y2="91.9615" /><line stroke="rgb(10%,10%,16%)" x1="84.641" x2="74.641" y1="91.9615" y2="74.641" /><line stroke="rgb(10%,10%,16%)" x1="74.641" x2="54.641" y1="74.641" y2="74.641" /><line stroke="rgb(10%,10%,16%)" x1="54.641" x2="37.3205" y1="74.641" y2="84.641" /><line stroke="rgb(10%,10%,16%)" x1="37.3205" x2="27.3205" y1="84.641" y2="101.9615" /><line stroke="rgb(10%,10%,16%)" x1="27.3205" x2="27.3205" y1="101.9615" y2="121.9615" /><line stroke="rgb(10%,10%,16%)" x1="27.3205" x2="37.3205" y1="121.9615" y2="139.282" /><line stroke="rgb(10%,10%,16%)" x1="37.3205" x2="54.641" y1="139.282" y2="149.282" /><line stroke="rgb(10%,10%,16%)" x1="54.641" x2="74.641" y1="149.282" y2="149.282" /><line stroke="rgb(10%,10%,16%)" x1="74.641" x2="91.9615" y1="149.282" y2="139.282" /><line stroke="rgb(10%,10%,16%)" x1="91.9615" x2="101.9615" y1="139.282" y2="121.9615" /><line stroke="rgb(10%,10%,16%)" x1="101.9615" x2="101.9615" y1="121.9615" y2="101.9615" /><line stroke="rgb(10%,10%,16%)" x1="101.9615" x2="91.9615" y1="101.9615" y2="84.641" /><line stroke="rgb(10%,10%,16%)" x1="91.9615" x2="74.641" y1="84.641" y2="74.641" /><line stroke="rgb(10%,10%,16%)" x1="74.641" x2="57.3205" y1="74.641" y2="84.641" /><line stroke="rgb(10%,10%,16%)" x1="57.3205" x2="47.3205" y1="84.641" y2="101.9615" /><line stroke="rgb(10%,10%,16%)" x1="47.3205" x2="47.3205" y1="101.9615" y2="121.9615" /><line stroke="rgb(10%,10%,16%)" x1="47.3205" x2="57.3205" y1="121.9615" y2="139.282" /><line stroke="rgb(10%,10%,16%)" x1="57.3205" x2="74.641" y1="139.282" y2="149.282" /><line stroke="rgb(10%,10%,16%)" x1="74.641" x2="94.641" y1="149.282" y2="149.282" /><line stroke="rgb(10%,10%,16%)" x1="94.641" x2="111.9615" y1="149.282" y2="139.282" /><line stroke="rgb(10%,10%,16%)" x1="111.9615" x2="121.9615" y1="139.282" y2="121.9615" /><line stroke="rgb(10%,10%,16%)" x1="121.9615" x2="121.9615" y1="121.9615" y2="101.9615" /><line stroke="rgb(10%,10%,16%)" x1="121.9615" x2="111.9615" y1="101.9615" y2="84.641" /><line stroke="rgb(10%,10%,16%)" x1="111.9615" x2="94.641" y1="84.641" y2="74.641" /><line stroke="rgb(10%,10%,16%)" x1="94.641" x2="74.641" y1="74.641" y2="74.641" /><line stroke="rgb(10%,10%,16%)" x1="74.641" x2="64.641" y1="74.641" y2="91.9615" /><line stroke="rgb(10%,10%,16%)" x1="64.641" x2="64.641" y1="91.9615" y2="111.9615" /><line stroke="rgb(10%,10%,16%)" x1="64.641" x2="74.641" y1="111.9615" y2="129.282" /><line stroke="rgb(10%,10%,16%)" x1="74.641" x2="91.9615" y1="129.282" y2="139.282" /><line stroke="rgb(10%,10%,16%)" x1="91.9615" x2="111.9615" y1="139.282" y2="139.282" /><line stroke="rgb(10%,10%,16%)" x1="111.9615" x2="129.282" y1="139.282" y2="129.282" /><line stroke="rgb(10%,10%,16%)" x1="129.282" x2="139.282" y1="129.282" y2="111.9615" /><line stroke="rgb(10%,10%,16%)" x1="139.282" x2="139.282" y1="111.9615" y2="91.9615" /><line stroke="rgb(10%,10%,16%)" x1="139.282" x2="129.282" y1="91.9615" y2="74.641" /><line stroke="rgb(10%,10%,16%)" x1="129.282" x2="111.9615" y1="74.641" y2="64.641" /><line stroke="rgb(10%,10%,16%)" x1="111.9615" x2="91.9615" y1="64.641" y2="64.641" /><line stroke="rgb(10%,10%,16%)" x1="91.9615" x2="74.641" y1="64.641" y2="74.641" /></svg>