<?xml version="1.0" encoding="utf-8" ?>
<svg baseProfile="tiny" height="100%" version="1.2" width="100%" xmlns="http://www.w3.org/2000/svg" xmlns:ev="http://www.w3.org/2001/xml-events" xmlns:xlink="http://www.w3.org/1999/xlink"><defs /><line stroke="rgb(10%,10%,16%)" x1="300.0" x2="300.0" y1="0.0" y2="300.0" /><line stroke="rgb(10%,10%,16%)" x1="300.0" x2="0.0" y1="300.0" y2="300.0" /><line stroke="rgb(10%,10%,16%)" x1="0.0" x2="0.0" y1="300.0" y2="0.0" /><line stroke="rgb(10%,10%,16%)" x1="0.0" x2="300.0" y1="0.0" y2="0.0" /><line stroke="rgb(10%,10%,16%)" x1="300.0" x2="300.0" y1="0.0" y2="75.0" /><line stroke="rgb(10%,10%,16%)" x1="300.0" x2="226.7102" y1="75.0" y2="300.5629" /><line stroke="rgb(10%,10%,16%)" x1="226.7102" x2="1.1473" y1="300.5629" y2="227.273" /><line stroke="rgb(10%,10%,16%)" x1="1.1473" x2="74.4371" y1="227.273" y2="1.7102" /><line stroke="rgb(10%,10%,16%)" x1="74.4371" x2="300.0" y1="1.7102" y2="75.0" /><line stroke="rgb(10%,10%,16%)" x1="300.0" x2="281.6775" y1="75.0" y2="131.3907" /><line stroke="rgb(10%,10%,16%)" x1="281.6775" x2="171.4678" y1="131.3907" y2="283.0814" /><line stroke="rgb(10%,10%,16%)" x1="171.4678" x2="19.7771" y1="283.0814" y2="172.8717" /><line stroke="rgb(10%,10%,16%)" x1="19.7771" x2="129.9869" y1="172.8717" y2="21.181" /><line stroke="rgb(10%,10%,16%)" x1="129.9869" x2="281.6775" y1="21.181" y2="131.3907" /><line stroke="rgb(10%,10%,16%)" x1="281.6775" x2="254.1251" y1="131.3907" y2="169.3134" /><line stroke="rgb(10%,10%,16%)" x1="254.1251" x2="134.2031" y1="169.3134" y2="256.4418" /><line stroke="rgb(10%,10%,16%)" x1="134.2031" x2="47.0746" y1="256.4418" y2="136.5198" /><line stroke="rgb(10%,10%,16%)" x1="47.0746" x2="166.9967" y1="136.5198" y2="49.3914" /><line stroke="rgb(10%,10%,16%)" x1="166.9967" x2="254.1251" y1="49.3914" y2="169.3134" /><line stroke="rgb(10%,10%,16%)" x1="254.1251" x2="224.1446" y1="169.3134" y2="191.0955" /><line stroke="rgb(10%,10%,16%)" x1="224.1446" x2="112.6927" y1="191.0955" y2="227.3084" /><line stroke="rgb(10%,10%,16%)" x1="112.6927" x2="76.4797" y1="227.3084" y2="115.8565" /><line stroke="rgb(10%,10%,16%)" x1="76.4797" x2="187.9317" y1="115.8565" y2="79.6436" /><line stroke="rgb(10%,10%,16%)" x1="187.9317" x2="224.1446" y1="79.6436" y2="191.0955" /><line stroke="rgb(10%,10%,16%)" x1="224.1446" x2="196.2816" y1="191.0955" y2="200.1487" /><line stroke="rgb(10%,10%,16%)" x1="196.2816" x2="103.6368" y1="200.1487" y2="200.1487" /><line stroke="rgb(10%,10%,16%)" x1="103.6368" x2="103.6368" y1="200.1487" y2="107.5039" /><line stroke="rgb(10%,10%,16%)" x1="103.6368" x2="196.2816" y1="107.5039" y2="107.5039" /><line stroke="rgb(10%,10%,16%)" x1="196.2816" x2="196.2816" y1="107.5039" y2="200.1487" /><line stroke="rgb(10%,10%,16%)" x1="196.2816" x2="173.1204" y1="200.1487" y2="200.1487" /><line stroke="rgb(10%,10%,16%)" x1="173.1204" x2="103.463" y1="200.1487" y2="177.5156" /><line stroke="rgb(10%,10%,16%)" x1="103.463" x2="126.096" y1="177.5156" y2="107.8582" /><line stroke="rgb(10%,10%,16%)" x1="126.096" x2="195.7535" y1="107.8582" y2="130.4913" /><line stroke="rgb(10%,10%,16%)" x1="195.7535" x2="173.1204" y1="130.4913" y2="200.1487" /><line stroke="rgb(10%,10%,16%)" x1="173.1204" x2="155.706" y1="200.1487" y2="194.4905" /><line stroke="rgb(10%,10%,16%)" x1="155.706" x2="108.8615" y1="194.4905" y2="160.4559" /><line stroke="rgb(10%,10%,16%)" x1="108.8615" x2="142.8961" y1="160.4559" y2="113.6114" /><line stroke="rgb(10%,10%,16%)" x1="142.8961" x2="189.7406" y1="113.6114" y2="147.6459" /><line stroke="rgb(10%,10%,16%)" x1="189.7406" x2="155.706" y1="147.6459" y2="194.4905" /><line stroke="rgb(10%,10%,16%)" x1="155.706" x2="143.9949" y1="194.4905" y2="185.9818" /><line stroke="rgb(10%,10%,16%)" x1="143.9949" x2="117.0882" y1="185.9818" y2="148.948" /><line stroke="rgb(10%,10%,16%)" x1="117.0882" x2="154.1221" y1="148.948" y2="122.0413" /><line stroke="rgb(10%,10%,16%)" x1="154.1221" x2="181.0288" y1="122.0413" y2="159.0751" /><line stroke="rgb(10%,10%,16%)" x1="181.0288" x2="143.9949" y1="159.0751" y2="185.9818" /><line stroke="rgb(10%,10%,16%)" x1="143.9949" x2="137.2682" y1="185.9818" y2="176.7234" /><line stroke="rgb(10%,10%,16%)" x1="137.2682" x2="126.0851" y1="176.7234" y2="142.3052" /><line stroke="rgb(10%,10%,16%)" x1="126.0851" x2="160.5033" y1="142.3052" y2="131.1221" /><line stroke="rgb(10%,10%,16%)" x1="160.5033" x2="171.6864" y1="131.1221" y2="165.5402" /><line stroke="rgb(10%,10%,16%)" x1="171.6864" x2="137.2682" y1="165.5402" y2="176.7234" /><line stroke="rgb(10%,10%,16%)" x1="137.2682" x2="134.4725" y1="176.7234" y2="168.1188" /><line stroke="rgb(10%,10%,16%)" x1="134.4725" x2="134.4725" y1="168.1188" y2="139.5086" /><line stroke="rgb(10%,10%,16%)" x1="134.4725" x2="163.0827" y1="139.5086" y2="139.5086" /><line stroke="rgb(10%,10%,16%)" x1="163.0827" x2="163.0827" y1="139.5086" y2="168.1188" /><line stroke="rgb(10%,10%,16%)" x1="163.0827" x2="134.4725" y1="168.1188" y2="168.1188" /><line stroke="rgb(10%,10%,16%)" x1="134.4725" x2="134.4725" y1="168.1188" y2="160.9663" /><line stroke="rgb(10%,10%,16%)" x1="134.4725" x2="141.4619" y1="160.9663" y2="139.4549" /><line stroke="rgb(10%,10%,16%)" x1="141.4619" x2="162.9733" y1="139.4549" y2="146.4444" /><line stroke="rgb(10%,10%,16%)" x1="162.9733" x2="155.9838" y1="146.4444" y2="167.9557" /><line stroke="rgb(10%,10%,16%)" x1="155.9838" x2="134.4725" y1="167.9557" y2="160.9663" /><line stroke="rgb(10%,10%,16%)" x1="134.4725" x2="136.2198" y1="160.9663" y2="155.5884" /><line stroke="rgb(10%,10%,16%)" x1="136.2198" x2="146.7302" y1="155.5884" y2="141.1221" /><line stroke="rgb(10%,10%,16%)" x1="146.7302" x2="161.1966" y1="141.1221" y2="151.6325" /><line stroke="rgb(10%,10%,16%)" x1="161.1966" x2="150.6862" y1="151.6325" y2="166.0988" /><line stroke="rgb(10%,10%,16%)" x1="150.6862" x2="136.2198" y1="166.0988" y2="155.5884" /><line stroke="rgb(10%,10%,16%)" x1="136.2198" x2="138.8474" y1="155.5884" y2="151.9718" /><line stroke="rgb(10%,10%,16%)" x1="138.8474" x2="150.2841" y1="151.9718" y2="143.6626" /><line stroke="rgb(10%,10%,16%)" x1="150.2841" x2="158.5933" y1="143.6626" y2="155.0993" /><line stroke="rgb(10%,10%,16%)" x1="158.5933" x2="147.1566" y1="155.0993" y2="163.4085" /><line stroke="rgb(10%,10%,16%)" x1="147.1566" x2="138.8474" y1="163.4085" y2="151.9718" /><line stroke="rgb(10%,10%,16%)" x1="138.8474" x2="141.7066" y1="151.9718" y2="149.8945" /><line stroke="rgb(10%,10%,16%)" x1="141.7066" x2="152.3355" y1="149.8945" y2="146.441" /><line stroke="rgb(10%,10%,16%)" x1="152.3355" x2="155.789" y1="146.441" y2="157.0699" /><line stroke="rgb(10%,10%,16%)" x1="155.789" x2="145.1601" y1="157.0699" y2="160.5234" /><line stroke="rgb(10%,10%,16%)" x1="145.1601" x2="141.7066" y1="160.5234" y2="149.8945" /><line stroke="rgb(10%,10%,16%)" x1="141.7066" x2="144.3638" y1="149.8945" y2="149.0311" /></svg>