<?xml version="1.0" encoding="utf-8" ?>
<svg baseProfile="tiny" height="100%" version="1.2" width="100%" xmlns="http://www.w3.org/2000/svg" xmlns:ev="http://www.w3.org/2001/xml-events" xmlns:xlink="http://www.w3.org/1999/xlink"><defs /><line stroke="rgb(10%,10%,16%)" x1="155.8846" x2="155.8846" y1="270.0" y2="430.0" /><line stroke="rgb(10%,10%,16%)" x1="155.8846" x2="294.4486" y1="430.0" y2="350.0" /><line stroke="rgb(10%,10%,16%)" x1="294.4486" x2="155.8846" y1="350.0" y2="270.0" /><line stroke="rgb(10%,10%,16%)" x1="138.5641" x2="138.5641" y1="240.0" y2="460.0" /><line stroke="rgb(10%,10%,16%)" x1="138.5641" x2="329.0897" y1="460.0" y2="350.0" /><line stroke="rgb(10%,10%,16%)" x1="329.0897" x2="138.5641" y1="350.0" y2="240.0" /><line stroke="rgb(10%,10%,16%)" x1="121.2436" x2="121.2436" y1="210.0" y2="490.0" /><line stroke="rgb(10%,10%,16%)" x1="121.2436" x2="363.7307" y1="490.0" y2="350.0" /><line stroke="rgb(10%,10%,16%)" x1="363.7307" x2="121.2436" y1="350.0" y2="210.0" /><line stroke="rgb(10%,10%,16%)" x1="103.923" x2="103.923" y1="180.0" y2="520.0" /><line stroke="rgb(10%,10%,16%)" x1="103.923" x2="398.3717" y1="520.0" y2="350.0" /><line stroke="rgb(10%,10%,16%)" x1="398.3717" x2="103.923" y1="350.0" y2="180.0" /><line stroke="rgb(10%,10%,16%)" x1="86.6025" x2="86.6025" y1="150.0" y2="550.0" /><line stroke="rgb(10%,10%,16%)" x1="86.6025" x2="433.0127" y1="550.0" y2="350.0" /><line stroke="rgb(10%,10%,16%)" x1="433.0127" x2="86.6025" y1="350.0" y2="150.0" /><line stroke="rgb(10%,10%,16%)" x1="69.282" x2="69.282" y1="120.0" y2="580.0" /><line stroke="rgb(10%,10%,16%)" x1="69.282" x2="467.6537" y1="580.0" y2="350.0" /><line stroke="rgb(10%,10%,16%)" x1="467.6537" x2="69.282" y1="350.0" y2="120.0" /><line stroke="rgb(10%,10%,16%)" x1="51.9615" x2="51.9615" y1="90.0" y2="610.0" /><line stroke="rgb(10%,10%,16%)" x1="51.9615" x2="502.2947" y1="610.0" y2="350.0" /><line stroke="rgb(10%,10%,16%)" x1="502.2947" x2="51.9615" y1="350.0" y2="90.0" /><line stroke="rgb(10%,10%,16%)" x1="34.641" x2="34.641" y1="60.0" y2="640.0" /><line stroke="rgb(10%,10%,16%)" x1="34.641" x2="536.9358" y1="640.0" y2="350.0" /><line stroke="rgb(10%,10%,16%)" x1="536.9358" x2="34.641" y1="350.0" y2="60.0" /><line stroke="rgb(10%,10%,16%)" x1="17.3205" x2="17.3205" y1="30.0" y2="670.0" /><line stroke="rgb(10%,10%,16%)" x1="17.3205" x2="571.5768" y1="670.0" y2="350.0" /><line stroke="rgb(10%,10%,16%)" x1="571.5768" x2="17.3205" y1="350.0" y2="30.0" /><line stroke="rgb(10%,10%,16%)" x1="0.0" x2="0.0" y1="0.0" y2="700.0" /><line stroke="rgb(10%,10%,16%)" x1="0.0" x2="606.2178" y1="700.0" y2="350.0" /><line stroke="rgb(10%,10%,16%)" x1="606.2178" x2="0.0" y1="350.0" y2="0.0" /></svg>