<?xml version="1.0" encoding="utf-8" ?>
<svg baseProfile="tiny" height="100%" version="1.2" width="100%" xmlns="http://www.w3.org/2000/svg" xmlns:ev="http://www.w3.org/2001/xml-events" xmlns:xlink="http://www.w3.org/1999/xlink"><defs /><line stroke="rgb(10%,10%,16%)" x1="63" x2="131" y1="127" y2="45" /><line stroke="rgb(10%,10%,16%)" x1="106" x2="155" y1="218" y2="139" /><line stroke="rgb(10%,10%,16%)" x1="125" x2="139" y1="200" y2="137" /><line stroke="rgb(10%,10%,16%)" x1="120" x2="148" y1="48" y2="235" /><line stroke="rgb(10%,10%,16%)" x1="108" x2="50" y1="177" y2="177" /><line stroke="rgb(10%,10%,16%)" x1="142" x2="148" y1="41" y2="126" /><line stroke="rgb(10%,10%,16%)" x1="156" x2="32" y1="126" y2="204" /><line stroke="rgb(10%,10%,16%)" x1="143" x2="121" y1="49" y2="153" /><line stroke="rgb(10%,10%,16%)" x1="45" x2="123" y1="186" y2="81" /><line stroke="rgb(10%,10%,16%)" x1="241" x2="71" y1="203" y2="77" /><line stroke="rgb(10%,10%,16%)" x1="196" x2="171" y1="22" y2="123" /><line stroke="rgb(10%,10%,16%)" x1="50" x2="193" y1="193" y2="108" /><line stroke="rgb(10%,10%,16%)" x1="28" x2="102" y1="119" y2="132" /><line stroke="rgb(10%,10%,16%)" x1="53" x2="227" y1="156" y2="206" /><line stroke="rgb(10%,10%,16%)" x1="160" x2="234" y1="179" y2="70" /><line stroke="rgb(10%,10%,16%)" x1="32" x2="227" y1="227" y2="22" /><line stroke="rgb(10%,10%,16%)" x1="87" x2="56" y1="172" y2="241" /><line stroke="rgb(10%,10%,16%)" x1="52" x2="231" y1="59" y2="154" /><line stroke="rgb(10%,10%,16%)" x1="241" x2="158" y1="92" y2="90" /><line stroke="rgb(10%,10%,16%)" x1="176" x2="38" y1="131" y2="86" /><line stroke="rgb(10%,10%,16%)" x1="30" x2="77" y1="227" y2="223" /><line stroke="rgb(10%,10%,16%)" x1="250" x2="134" y1="249" y2="173" /><line stroke="rgb(10%,10%,16%)" x1="148" x2="161" y1="63" y2="198" /><line stroke="rgb(10%,10%,16%)" x1="88" x2="27" y1="234" y2="66" /><line stroke="rgb(10%,10%,16%)" x1="189" x2="205" y1="87" y2="244" /><line stroke="rgb(10%,10%,16%)" x1="194" x2="71" y1="137" y2="126" /><line stroke="rgb(10%,10%,16%)" x1="171" x2="89" y1="113" y2="201" /><line stroke="rgb(10%,10%,16%)" x1="122" x2="66" y1="60" y2="233" /><line stroke="rgb(10%,10%,16%)" x1="130" x2="130" y1="232" y2="234" /><line stroke="rgb(10%,10%,16%)" x1="64" x2="55" y1="180" y2="32" /><circle cx="121" cy="56" r="3" /><circle cx="91" cy="92" r="3" /><circle cx="64" cy="125" r="3" /><circle cx="98" cy="83" r="3" /><circle cx="84" cy="101" r="3" /><circle cx="129" cy="180" r="3" /><circle cx="137" cy="166" r="3" /><circle cx="154" cy="139" r="3" /><circle cx="130" cy="178" r="3" /><circle cx="135" cy="152" r="3" /><circle cx="138" cy="140" r="3" /><circle cx="129" cy="178" r="3" /><circle cx="135" cy="150" r="3" /><circle cx="133" cy="139" r="3" /><circle cx="129" cy="112" r="3" /><circle cx="131" cy="121" r="3" /><circle cx="134" cy="142" r="3" /><circle cx="139" cy="180" r="3" /><circle cx="131" cy="122" r="3" /><circle cx="127" cy="99" r="3" /><circle cx="130" cy="116" r="3" /><circle cx="139" cy="176" r="3" /><circle cx="132" cy="131" r="3" /><circle cx="135" cy="151" r="3" /><circle cx="121" cy="60" r="3" /><circle cx="74" cy="177" r="3" /><circle cx="51" cy="177" r="3" /><circle cx="76" cy="177" r="3" /><circle cx="79" cy="177" r="3" /><circle cx="84" cy="177" r="3" /><circle cx="67" cy="177" r="3" /><circle cx="84" cy="177" r="3" /><circle cx="63" cy="177" r="3" /><circle cx="142" cy="50" r="3" /><circle cx="146" cy="106" r="3" /><circle cx="146" cy="109" r="3" /><circle cx="147" cy="121" r="3" /><circle cx="122" cy="147" r="3" /><circle cx="145" cy="132" r="3" /><circle cx="90" cy="166" r="3" /><circle cx="86" cy="169" r="3" /><circle cx="154" cy="127" r="3" /><circle cx="68" cy="180" r="3" /><circle cx="145" cy="132" r="3" /><circle cx="86" cy="169" r="3" /><circle cx="128" cy="119" r="3" /><circle cx="121" cy="150" r="3" /><circle cx="126" cy="127" r="3" /><circle cx="131" cy="101" r="3" /><circle cx="128" cy="115" r="3" /><circle cx="125" cy="130" r="3" /><circle cx="106" cy="103" r="3" /><circle cx="87" cy="129" r="3" /><circle cx="64" cy="159" r="3" /><circle cx="114" cy="92" r="3" /><circle cx="103" cy="107" r="3" /><circle cx="62" cy="162" r="3" /><circle cx="88" cy="127" r="3" /><circle cx="109" cy="99" r="3" /><circle cx="62" cy="161" r="3" /><circle cx="148" cy="134" r="3" /><circle cx="176" cy="155" r="3" /><circle cx="131" cy="122" r="3" /><circle cx="118" cy="112" r="3" /><circle cx="155" cy="139" r="3" /><circle cx="197" cy="170" r="3" /><circle cx="146" cy="132" r="3" /><circle cx="149" cy="135" r="3" /><circle cx="107" cy="104" r="3" /><circle cx="171" cy="120" r="3" /><circle cx="185" cy="66" r="3" /><circle cx="171" cy="122" r="3" /><circle cx="179" cy="90" r="3" /><circle cx="92" cy="167" r="3" /><circle cx="83" cy="173" r="3" /><circle cx="170" cy="121" r="3" /><circle cx="161" cy="126" r="3" /><circle cx="154" cy="130" r="3" /><circle cx="69" cy="181" r="3" /><circle cx="191" cy="109" r="3" /><circle cx="150" cy="133" r="3" /><circle cx="154" cy="131" r="3" /><circle cx="85" cy="171" r="3" /><circle cx="47" cy="122" r="3" /><circle cx="98" cy="131" r="3" /><circle cx="60" cy="124" r="3" /><circle cx="89" cy="166" r="3" /><circle cx="151" cy="184" r="3" /><circle cx="159" cy="186" r="3" /><circle cx="60" cy="158" r="3" /><circle cx="200" cy="198" r="3" /><circle cx="114" cy="173" r="3" /><circle cx="87" cy="165" r="3" /><circle cx="62" cy="158" r="3" /><circle cx="191" cy="132" r="3" /><circle cx="219" cy="91" r="3" /><circle cx="193" cy="129" r="3" /><circle cx="188" cy="136" r="3" /><circle cx="144" cy="108" r="3" /><circle cx="162" cy="90" r="3" /><circle cx="135" cy="117" r="3" /><circle cx="32" cy="226" r="3" /><circle cx="151" cy="101" r="3" /><circle cx="70" cy="186" r="3" /><circle cx="123" cy="130" r="3" /><circle cx="86" cy="169" r="3" /><circle cx="63" cy="224" r="3" /><circle cx="75" cy="198" r="3" /><circle cx="82" cy="181" r="3" /><circle cx="152" cy="112" r="3" /><circle cx="193" cy="134" r="3" /><circle cx="165" cy="119" r="3" /><circle cx="112" cy="90" r="3" /><circle cx="56" cy="61" r="3" /><circle cx="189" cy="90" r="3" /><circle cx="153" cy="123" r="3" /><circle cx="159" cy="125" r="3" /><circle cx="106" cy="108" r="3" /><circle cx="58" cy="92" r="3" /><circle cx="69" cy="223" r="3" /><circle cx="160" cy="190" r="3" /><circle cx="202" cy="217" r="3" /><circle cx="154" cy="133" r="3" /><circle cx="154" cy="130" r="3" /><circle cx="76" cy="201" r="3" /><circle cx="63" cy="165" r="3" /><circle cx="194" cy="137" r="3" /><circle cx="152" cy="133" r="3" /><circle cx="99" cy="128" r="3" /></svg>