<?xml version="1.0" encoding="utf-8" ?>
<svg baseProfile="tiny" height="100%" version="1.2" width="100%" xmlns="http://www.w3.org/2000/svg" xmlns:ev="http://www.w3.org/2001/xml-events" xmlns:xlink="http://www.w3.org/1999/xlink"><defs /><line stroke="rgb(10%,10%,16%)" x1="150" x2="105.4669" y1="103" y2="192.5366" /><line stroke="rgb(10%,10%,16%)" x1="207" x2="245.1382" y1="150" y2="57.5582" /><line stroke="rgb(10%,10%,16%)" x1="222" x2="231.9239" y1="131" y2="31.4936" /><line stroke="rgb(10%,10%,16%)" x1="157" x2="69.4872" y1="119" y2="70.6108" /><line stroke="rgb(10%,10%,16%)" x1="204" x2="269.3338" y1="135" y2="59.2934" /><line stroke="rgb(10%,10%,16%)" x1="171" x2="80.3808" y1="136" y2="178.2867" /><line stroke="rgb(10%,10%,16%)" x1="198" x2="289.9658" y1="230" y2="269.272" /><line stroke="rgb(10%,10%,16%)" x1="124" x2="197.3655" y1="241" y2="308.9523" /><line stroke="rgb(10%,10%,16%)" x1="146" x2="198.6626" y1="179" y2="264.0097" /><line stroke="rgb(10%,10%,16%)" x1="130" x2="57.9122" y1="125" y2="194.3062" /><line stroke="rgb(10%,10%,16%)" x1="247" x2="167.6361" y1="240" y2="179.1611" /><line stroke="rgb(10%,10%,16%)" x1="145" x2="169.579" y1="199" y2="295.9323" /><line stroke="rgb(10%,10%,16%)" x1="134" x2="82.2064" y1="201" y2="286.5419" /><line stroke="rgb(10%,10%,16%)" x1="220" x2="183.5893" y1="126" y2="219.1357" /><line stroke="rgb(10%,10%,16%)" x1="214" x2="307.8702" y1="103" y2="137.473" /><line stroke="rgb(10%,10%,16%)" x1="192" x2="247.7905" y1="107" y2="189.9905" /><line stroke="rgb(10%,10%,16%)" x1="169" x2="178.9239" y1="119" y2="19.4936" /><line stroke="rgb(10%,10%,16%)" x1="194" x2="96.7728" y1="131" y2="107.6147" /><line stroke="rgb(10%,10%,16%)" x1="117" x2="46.5131" y1="162" y2="91.0662" /><line stroke="rgb(10%,10%,16%)" x1="218" x2="227.0851" y1="153" y2="252.5865" /><line stroke="rgb(10%,10%,16%)" x1="185" x2="268.4387" y1="205" y2="260.1179" /><line stroke="rgb(10%,10%,16%)" x1="228" x2="128.671" y1="115" y2="103.4347" /><line stroke="rgb(10%,10%,16%)" x1="123" x2="206.4387" y1="112" y2="167.1179" /><line stroke="rgb(10%,10%,16%)" x1="156" x2="254.1127" y1="202" y2="221.3366" /><line stroke="rgb(10%,10%,16%)" x1="194" x2="264.7851" y1="147" y2="76.3638" /><line stroke="rgb(10%,10%,16%)" x1="102" x2="22.6361" y1="157" y2="96.1611" /><line stroke="rgb(10%,10%,16%)" x1="141" x2="65.4312" y1="232" y2="166.5069" /><line stroke="rgb(10%,10%,16%)" x1="149" x2="186.3579" y1="113" y2="205.7598" /><line stroke="rgb(10%,10%,16%)" x1="163" x2="114.4266" y1="137" y2="224.4106" /><line stroke="rgb(10%,10%,16%)" x1="177" x2="79.7728" y1="249" y2="225.6147" /><circle cx="145.2684" cy="112.5132" r="3" /><circle cx="122.2787" cy="158.7354" r="3" /><circle cx="142.2628" cy="118.5561" r="3" /><circle cx="148.6281" cy="105.7584" r="3" /><circle cx="139.9535" cy="123.1991" r="3" /><circle cx="224.283" cy="108.1083" r="3" /><circle cx="221.6047" cy="114.6003" r="3" /><circle cx="224.7602" cy="106.9516" r="3" /><circle cx="212.2889" cy="137.1805" r="3" /><circle cx="221.7404" cy="114.2712" r="3" /><circle cx="218.2013" cy="122.8497" r="3" /><circle cx="223.9009" cy="111.9395" r="3" /><circle cx="224.4112" cy="106.8234" r="3" /><circle cx="223.6463" cy="114.4931" r="3" /><circle cx="223.3225" cy="117.7392" r="3" /><circle cx="128.8975" cy="103.4611" r="3" /><circle cx="149.8168" cy="115.0281" r="3" /><circle cx="227.3763" cy="107.9123" r="3" /><circle cx="207.8354" cy="130.5557" r="3" /><circle cx="221.8752" cy="114.2869" r="3" /><circle cx="116.456" cy="161.4525" r="3" /><circle cx="164.1621" cy="139.1908" r="3" /><circle cx="160.278" cy="141.0033" r="3" /><circle cx="160.9495" cy="140.69" r="3" /><circle cx="226.12" cy="242.008" r="3" /><circle cx="268.2738" cy="260.0089" r="3" /><circle cx="165.3648" cy="279.3128" r="3" /><circle cx="160.8391" cy="202.9537" r="3" /><circle cx="104.5484" cy="149.4695" r="3" /><circle cx="99.0599" cy="154.7462" r="3" /><circle cx="76.6837" cy="176.2591" r="3" /><circle cx="191.9349" cy="197.7882" r="3" /><circle cx="224.353" cy="222.6393" r="3" /><circle cx="211.7667" cy="212.9908" r="3" /><circle cx="179.2227" cy="188.0432" r="3" /><circle cx="156.4235" cy="244.0509" r="3" /><circle cx="124.099" cy="217.3524" r="3" /><circle cx="114.0976" cy="233.8706" r="3" /><circle cx="214.4009" cy="140.3221" r="3" /><circle cx="188.2708" cy="207.1606" r="3" /><circle cx="204.4411" cy="165.7983" r="3" /><circle cx="187.8354" cy="208.2743" r="3" /><circle cx="231.6115" cy="109.4677" r="3" /><circle cx="194.7776" cy="111.1318" r="3" /><circle cx="208.8968" cy="132.1346" r="3" /><circle cx="170.0716" cy="108.2551" r="3" /><circle cx="127.5778" cy="115.024" r="3" /><circle cx="152.2003" cy="120.9462" r="3" /><circle cx="225.1643" cy="231.5317" r="3" /><circle cx="223.6872" cy="215.3402" r="3" /><circle cx="190.8588" cy="208.8702" r="3" /><circle cx="226.2694" cy="114.7985" r="3" /><circle cx="157.8756" cy="135.038" r="3" /><circle cx="162.4215" cy="138.041" r="3" /><circle cx="120.2179" cy="213.9888" r="3" /><circle cx="160.487" cy="141.5223" r="3" /></svg>