<?xml version="1.0" encoding="utf-8" ?>
<svg baseProfile="tiny" height="100%" version="1.2" width="100%" xmlns="http://www.w3.org/2000/svg" xmlns:ev="http://www.w3.org/2001/xml-events" xmlns:xlink="http://www.w3.org/1999/xlink"><defs /><line stroke="rgb(10%,10%,16%)" x1="250" x2="404.5254" y1="250" y2="446.5245" /><line stroke="rgb(10%,10%,16%)" x1="250" x2="401.6789" y1="250" y2="51.2703" /><line stroke="rgb(10%,10%,16%)" x1="250" x2="80.5061" y1="250" y2="66.2289" /><line stroke="rgb(10%,10%,16%)" x1="250" x2="373.6541" y1="250" y2="32.7221" /><line stroke="rgb(10%,10%,16%)" x1="250" x2="4.9242" y1="250" y2="200.6254" /><line stroke="rgb(10%,10%,16%)" x1="250" x2="152.3046" y1="250" y2="19.8792" /><line stroke="rgb(10%,10%,16%)" x1="250" x2="473.6065" y1="250" y2="361.804" /><line stroke="rgb(10%,10%,16%)" x1="250" x2="433.4136" y1="250" y2="419.8807" /><line stroke="rgb(10%,10%,16%)" x1="250" x2="5.2237" y1="250" y2="300.8384" /><line stroke="rgb(10%,10%,16%)" x1="250" x2="157.5832" y1="250" y2="17.7089" /><line stroke="rgb(10%,10%,16%)" x1="250" x2="360.3886" y1="250" y2="474.3086" /><line stroke="rgb(10%,10%,16%)" x1="250" x2="229.8254" y1="250" y2="499.1846" /><line stroke="rgb(10%,10%,16%)" x1="250" x2="104.9646" y1="250" y2="453.6289" /><line stroke="rgb(10%,10%,16%)" x1="250" x2="11.9551" y1="250" y2="173.6152" /><line stroke="rgb(10%,10%,16%)" x1="250" x2="127.2625" y1="250" y2="32.2031" /><line stroke="rgb(10%,10%,16%)" x1="250" x2="489.4256" y1="250" y2="321.9402" /><line stroke="rgb(10%,10%,16%)" x1="250" x2="384.7037" y1="250" y2="460.6061" /><line stroke="rgb(10%,10%,16%)" x1="250" x2="12.4159" y1="250" y2="327.8061" /><line stroke="rgb(10%,10%,16%)" x1="250" x2="3.5009" y1="250" y2="291.6915" /><line stroke="rgb(10%,10%,16%)" x1="250" x2="152.3046" y1="250" y2="19.8792" /><line stroke="rgb(10%,10%,16%)" x1="250" x2="111.3991" y1="250" y2="41.938" /><line stroke="rgb(10%,10%,16%)" x1="250" x2="20.5012" y1="250" y2="150.8522" /><line stroke="rgb(10%,10%,16%)" x1="250" x2="14.9635" y1="250" y2="164.8071" /><line stroke="rgb(10%,10%,16%)" x1="250" x2="331.3011" y1="250" y2="13.5891" /><line stroke="rgb(10%,10%,16%)" x1="250" x2="470.996" y1="250" y2="366.8793" /><line stroke="rgb(10%,10%,16%)" x1="250" x2="24.351" y1="250" y2="142.3779" /><line stroke="rgb(10%,10%,16%)" x1="250" x2="235.519" y1="250" y2="499.5803" /><line stroke="rgb(10%,10%,16%)" x1="250" x2="250.5267" y1="250" y2="0.0006" /><line stroke="rgb(10%,10%,16%)" x1="250" x2="499.9741" y1="250" y2="246.3993" /><line stroke="rgb(10%,10%,16%)" x1="250" x2="496.6726" y1="250" y2="209.3474" /><circle cx="250.0" cy="250.0" r="3" /><circle cx="250.0" cy="250.0" r="3" /><circle cx="250.0" cy="250.0" r="3" /><circle cx="250.0" cy="250.0" r="3" /><circle cx="250.0" cy="250.0" r="3" /><circle cx="250.0" cy="250.0" r="3" /><circle cx="250.0" cy="250.0" r="3" /><circle cx="250.0" cy="250.0" r="3" /><circle cx="250.0" cy="250.0" r="3" /><circle cx="250.0" cy="250.0" r="3" /><circle cx="250.0" cy="250.0" r="3" /><circle cx="250.0" cy="250.0" r="3" /><circle cx="250.0" cy="250.0" r="3" /><circle cx="250.0" cy="250.0" r="3" /><circle cx="250.0" cy="250.0" r="3" /><circle cx="250.0" cy="250.0" r="3" /><circle cx="250.0" cy="250.0" r="3" /><circle cx="250.0" cy="250.0" r="3" /><circle cx="250.0" cy="250.0" r="3" /><circle cx="250.0" cy="250.0" r="3" /><circle cx="250.0" cy="250.0" r="3" /><circle cx="250.0" cy="250.0" r="3" /><circle cx="250.0" cy="250.0" r="3" /><circle cx="250.0" cy="250.0" r="3" /><circle cx="250.0" cy="250.0" r="3" /><circle cx="250.0" cy="250.0" r="3" /><circle cx="250.0" cy="250.0" r="3" /><circle cx="250.0" cy="250.0" r="3" /><circle cx="250.0" cy="250.0" r="3" /><circle cx="250.0" cy="250.0" r="3" /><circle cx="250.0" cy="250.0" r="3" /><circle cx="250.0" cy="250.0" r="3" /><circle cx="250.0" cy="250.0" r="3" /><circle cx="250.0" cy="250.0" r="3" /><circle cx="250.0" cy="250.0" r="3" /><circle cx="250.0" cy="250.0" r="3" /><circle cx="250.0" cy="250.0" r="3" /><circle cx="250.0" cy="250.0" r="3" /><circle cx="250.0" cy="250.0" r="3" /><circle cx="250.0" cy="250.0" r="3" /><circle cx="250.0" cy="250.0" r="3" /><circle cx="250.0" cy="250.0" r="3" /><circle cx="250.0" cy="250.0" r="3" /><circle cx="250.0" cy="250.0" r="3" /><circle cx="250.0" cy="250.0" r="3" /><circle cx="250.0" cy="250.0" r="3" /><circle cx="250.0" cy="250.0" r="3" /><circle cx="250.0" cy="250.0" r="3" /><circle cx="250.0" cy="250.0" r="3" /><circle cx="250.0" cy="250.0" r="3" /><circle cx="250.0" cy="250.0" r="3" /><circle cx="250.0" cy="250.0" r="3" /><circle cx="250.0" cy="250.0" r="3" /><circle cx="250.0" cy="250.0" r="3" /><circle cx="250.0" cy="250.0" r="3" /><circle cx="250.0" cy="250.0" r="3" /><circle cx="250.0" cy="250.0" r="3" /><circle cx="250.0" cy="250.0" r="3" /><circle cx="250.0" cy="250.0" r="3" /><circle cx="250.0" cy="250.0" r="3" /><circle cx="250.0" cy="250.0" r="3" /><circle cx="250.0" cy="250.0" r="3" /><circle cx="250.0" cy="250.0" r="3" /><circle cx="250.0" cy="250.0" r="3" /><circle cx="250.0" cy="250.0" r="3" /><circle cx="250.0" cy="250.0" r="3" /><circle cx="250.0" cy="250.0" r="3" /><circle cx="250.0" cy="250.0" r="3" /><circle cx="250.0" cy="250.0" r="3" /><circle cx="250.0" cy="250.0" r="3" /><circle cx="250.0" cy="250.0" r="3" /><circle cx="250.0" cy="250.0" r="3" /><circle cx="250.0" cy="250.0" r="3" /><circle cx="250.0" cy="250.0" r="3" /><circle cx="250.0" cy="250.0" r="3" /><circle cx="250.0" cy="250.0" r="3" /><circle cx="250.0" cy="250.0" r="3" /><circle cx="250.0" cy="250.0" r="3" /><circle cx="250.0" cy="250.0" r="3" /><circle cx="250.0" cy="250.0" r="3" /><circle cx="250.0" cy="250.0" r="3" /><circle cx="250.0" cy="250.0" r="3" /><circle cx="250.0" cy="250.0" r="3" /><circle cx="250.0" cy="250.0" r="3" /><circle cx="250.0" cy="250.0" r="3" /><circle cx="250.0" cy="250.0" r="3" /><circle cx="250.0" cy="250.0" r="3" /><circle cx="250.0" cy="250.0" r="3" /><circle cx="250.0" cy="250.0" r="3" /><circle cx="250.0" cy="250.0" r="3" /><circle cx="250.0" cy="250.0" r="3" /><circle cx="250.0" cy="250.0" r="3" /><circle cx="250.0" cy="250.0" r="3" /><circle cx="250.0" cy="250.0" r="3" /><circle cx="250.0" cy="250.0" r="3" /><circle cx="250.0" cy="250.0" r="3" /><circle cx="250.0" cy="250.0" r="3" /><circle cx="250.0" cy="250.0" r="3" /><circle cx="250.0" cy="250.0" r="3" /><circle cx="250.0" cy="250.0" r="3" /><circle cx="250.0" cy="250.0" r="3" /><circle cx="250.0" cy="250.0" r="3" /></svg>