<?xml version="1.0" encoding="utf-8" ?>
<svg baseProfile="tiny" height="100%" version="1.2" width="100%" xmlns="http://www.w3.org/2000/svg" xmlns:ev="http://www.w3.org/2001/xml-events" xmlns:xlink="http://www.w3.org/1999/xlink"><defs /><line stroke="rgb(10%,10%,16%)" x1="38" x2="39" y1="166" y2="166" /><line stroke="rgb(10%,10%,16%)" x1="48" x2="47" y1="102" y2="101" /><line stroke="rgb(10%,10%,16%)" x1="114" x2="115" y1="180" y2="182" /><line stroke="rgb(10%,10%,16%)" x1="195" x2="194" y1="168" y2="170" /><line stroke="rgb(10%,10%,16%)" x1="129" x2="131" y1="5" y2="7" /><line stroke="rgb(10%,10%,16%)" x1="118" x2="116" y1="1" y2="4" /><line stroke="rgb(10%,10%,16%)" x1="1" x2="5" y1="56" y2="56" /><line stroke="rgb(10%,10%,16%)" x1="124" x2="128" y1="49" y2="47" /><line stroke="rgb(10%,10%,16%)" x1="190" x2="187" y1="68" y2="64" /><line stroke="rgb(10%,10%,16%)" x1="194" x2="193" y1="170" y2="175" /><line stroke="rgb(10%,10%,16%)" x1="79" x2="78" y1="190" y2="185" /><line stroke="rgb(10%,10%,16%)" x1="118" x2="123" y1="1" y2="3" /><line stroke="rgb(10%,10%,16%)" x1="8" x2="12" y1="108" y2="104" /><line stroke="rgb(10%,10%,16%)" x1="23" x2="27" y1="112" y2="116" /><line stroke="rgb(10%,10%,16%)" x1="101" x2="98" y1="97" y2="102" /><line stroke="rgb(10%,10%,16%)" x1="115" x2="114" y1="145" y2="139" /><line stroke="rgb(10%,10%,16%)" x1="129" x2="123" y1="5" y2="3" /><line stroke="rgb(10%,10%,16%)" x1="48" x2="43" y1="168" y2="172" /><line stroke="rgb(10%,10%,16%)" x1="115" x2="118" y1="145" y2="151" /><line stroke="rgb(10%,10%,16%)" x1="121" x2="114" y1="74" y2="74" /><line stroke="rgb(10%,10%,16%)" x1="116" x2="123" y1="4" y2="3" /><line stroke="rgb(10%,10%,16%)" x1="31" x2="27" y1="122" y2="116" /><line stroke="rgb(10%,10%,16%)" x1="43" x2="39" y1="172" y2="166" /><line stroke="rgb(10%,10%,16%)" x1="195" x2="193" y1="168" y2="175" /><line stroke="rgb(10%,10%,16%)" x1="47" x2="44" y1="23" y2="30" /><line stroke="rgb(10%,10%,16%)" x1="32" x2="25" y1="74" y2="71" /><line stroke="rgb(10%,10%,16%)" x1="46" x2="43" y1="11" y2="4" /><line stroke="rgb(10%,10%,16%)" x1="38" x2="43" y1="166" y2="172" /><line stroke="rgb(10%,10%,16%)" x1="86" x2="78" y1="185" y2="185" /><line stroke="rgb(10%,10%,16%)" x1="153" x2="161" y1="83" y2="83" /><line stroke="rgb(10%,10%,16%)" x1="91" x2="98" y1="62" y2="66" /><line stroke="rgb(10%,10%,16%)" x1="43" x2="44" y1="38" y2="30" /><line stroke="rgb(10%,10%,16%)" x1="32" x2="38" y1="74" y2="68" /><line stroke="rgb(10%,10%,16%)" x1="86" x2="79" y1="185" y2="190" /><line stroke="rgb(10%,10%,16%)" x1="48" x2="55" y1="102" y2="107" /><line stroke="rgb(10%,10%,16%)" x1="118" x2="114" y1="85" y2="93" /><line stroke="rgb(10%,10%,16%)" x1="123" x2="131" y1="3" y2="7" /><line stroke="rgb(10%,10%,16%)" x1="158" x2="151" y1="114" y2="120" /><line stroke="rgb(10%,10%,16%)" x1="48" x2="39" y1="168" y2="166" /><line stroke="rgb(10%,10%,16%)" x1="124" x2="116" y1="49" y2="44" /><line stroke="rgb(10%,10%,16%)" x1="195" x2="186" y1="168" y2="165" /><line stroke="rgb(10%,10%,16%)" x1="19" x2="10" y1="39" y2="36" /><line stroke="rgb(10%,10%,16%)" x1="68" x2="59" y1="188" y2="184" /><line stroke="rgb(10%,10%,16%)" x1="125" x2="118" y1="144" y2="151" /><line stroke="rgb(10%,10%,16%)" x1="47" x2="55" y1="101" y2="107" /><line stroke="rgb(10%,10%,16%)" x1="115" x2="125" y1="145" y2="144" /><line stroke="rgb(10%,10%,16%)" x1="115" x2="114" y1="129" y2="139" /><line stroke="rgb(10%,10%,16%)" x1="112" x2="114" y1="103" y2="93" /><line stroke="rgb(10%,10%,16%)" x1="68" x2="78" y1="188" y2="185" /><line stroke="rgb(10%,10%,16%)" x1="186" x2="181" y1="37" y2="27" /><line stroke="rgb(10%,10%,16%)" x1="68" x2="79" y1="188" y2="190" /><line stroke="rgb(10%,10%,16%)" x1="165" x2="157" y1="17" y2="9" /><line stroke="rgb(10%,10%,16%)" x1="121" x2="118" y1="74" y2="85" /><line stroke="rgb(10%,10%,16%)" x1="47" x2="57" y1="23" y2="29" /><line stroke="rgb(10%,10%,16%)" x1="129" x2="118" y1="5" y2="1" /><line stroke="rgb(10%,10%,16%)" x1="114" x2="118" y1="74" y2="85" /><line stroke="rgb(10%,10%,16%)" x1="55" x2="67" y1="107" y2="107" /><line stroke="rgb(10%,10%,16%)" x1="47" x2="46" y1="23" y2="11" /><line stroke="rgb(10%,10%,16%)" x1="114" x2="125" y1="139" y2="144" /><line stroke="rgb(10%,10%,16%)" x1="133" x2="131" y1="19" y2="7" /><line stroke="rgb(10%,10%,16%)" x1="146" x2="136" y1="179" y2="172" /><line stroke="rgb(10%,10%,16%)" x1="186" x2="193" y1="165" y2="175" /><line stroke="rgb(10%,10%,16%)" x1="177" x2="187" y1="57" y2="64" /><line stroke="rgb(10%,10%,16%)" x1="116" x2="128" y1="44" y2="47" /><line stroke="rgb(10%,10%,16%)" x1="101" x2="112" y1="97" y2="103" /><line stroke="rgb(10%,10%,16%)" x1="31" x2="23" y1="122" y2="112" /><line stroke="rgb(10%,10%,16%)" x1="47" x2="59" y1="189" y2="184" /><line stroke="rgb(10%,10%,16%)" x1="32" x2="43" y1="74" y2="81" /><line stroke="rgb(10%,10%,16%)" x1="44" x2="57" y1="30" y2="29" /><line stroke="rgb(10%,10%,16%)" x1="86" x2="99" y1="185" y2="183" /><line stroke="rgb(10%,10%,16%)" x1="56" x2="43" y1="84" y2="81" /><line stroke="rgb(10%,10%,16%)" x1="25" x2="38" y1="71" y2="68" /><line stroke="rgb(10%,10%,16%)" x1="43" x2="53" y1="38" y2="47" /><line stroke="rgb(10%,10%,16%)" x1="12" x2="23" y1="104" y2="112" /><line stroke="rgb(10%,10%,16%)" x1="101" x2="114" y1="97" y2="93" /><line stroke="rgb(10%,10%,16%)" x1="168" x2="156" y1="182" y2="189" /><line stroke="rgb(10%,10%,16%)" x1="43" x2="38" y1="81" y2="68" /><line stroke="rgb(10%,10%,16%)" x1="137" x2="151" y1="119" y2="120" /><line stroke="rgb(10%,10%,16%)" x1="33" x2="19" y1="139" y2="138" /><line stroke="rgb(10%,10%,16%)" x1="112" x2="98" y1="103" y2="102" /><line stroke="rgb(10%,10%,16%)" x1="146" x2="156" y1="179" y2="189" /><line stroke="rgb(10%,10%,16%)" x1="77" x2="86" y1="89" y2="78" /><line stroke="rgb(10%,10%,16%)" x1="93" x2="79" y1="121" y2="117" /><line stroke="rgb(10%,10%,16%)" x1="175" x2="161" y1="87" y2="83" /><line stroke="rgb(10%,10%,16%)" x1="161" x2="161" y1="68" y2="83" /><line stroke="rgb(10%,10%,16%)" x1="114" x2="99" y1="180" y2="183" /><line stroke="rgb(10%,10%,16%)" x1="116" x2="131" y1="4" y2="7" /><line stroke="rgb(10%,10%,16%)" x1="8" x2="23" y1="108" y2="112" /><line stroke="rgb(10%,10%,16%)" x1="79" x2="67" y1="117" y2="107" /><line stroke="rgb(10%,10%,16%)" x1="115" x2="99" y1="182" y2="183" /><line stroke="rgb(10%,10%,16%)" x1="43" x2="57" y1="38" y2="29" /><line stroke="rgb(10%,10%,16%)" x1="91" x2="86" y1="62" y2="78" /><line stroke="rgb(10%,10%,16%)" x1="158" x2="174" y1="114" y2="119" /><line stroke="rgb(10%,10%,16%)" x1="86" x2="98" y1="78" y2="66" /><line stroke="rgb(10%,10%,16%)" x1="25" x2="17" y1="71" y2="86" /><line stroke="rgb(10%,10%,16%)" x1="153" x2="161" y1="83" y2="68" /><line stroke="rgb(10%,10%,16%)" x1="174" x2="174" y1="119" y2="136" /><line stroke="rgb(10%,10%,16%)" x1="146" x2="133" y1="30" y2="19" /><line stroke="rgb(10%,10%,16%)" x1="190" x2="177" y1="68" y2="57" /><line stroke="rgb(10%,10%,16%)" x1="31" x2="33" y1="122" y2="139" /><line stroke="rgb(10%,10%,16%)" x1="48" x2="64" y1="168" y2="161" /><line stroke="rgb(10%,10%,16%)" x1="192" x2="175" y1="91" y2="87" /><line stroke="rgb(10%,10%,16%)" x1="47" x2="43" y1="189" y2="172" /><line stroke="rgb(10%,10%,16%)" x1="114" x2="98" y1="74" y2="66" /><line stroke="rgb(10%,10%,16%)" x1="115" x2="125" y1="129" y2="144" /><line stroke="rgb(10%,10%,16%)" x1="28" x2="44" y1="21" y2="30" /><line stroke="rgb(10%,10%,16%)" x1="57" x2="53" y1="29" y2="47" /><line stroke="rgb(10%,10%,16%)" x1="12" x2="17" y1="104" y2="86" /><line stroke="rgb(10%,10%,16%)" x1="144" x2="136" y1="155" y2="172" /><line stroke="rgb(10%,10%,16%)" x1="165" x2="181" y1="17" y2="27" /><line stroke="rgb(10%,10%,16%)" x1="112" x2="118" y1="103" y2="85" /><line stroke="rgb(10%,10%,16%)" x1="114" x2="114" y1="74" y2="93" /><line stroke="rgb(10%,10%,16%)" x1="78" x2="59" y1="185" y2="184" /><line stroke="rgb(10%,10%,16%)" x1="28" x2="47" y1="21" y2="23" /><line stroke="rgb(10%,10%,16%)" x1="32" x2="17" y1="74" y2="86" /><line stroke="rgb(10%,10%,16%)" x1="56" x2="47" y1="84" y2="101" /><line stroke="rgb(10%,10%,16%)" x1="47" x2="43" y1="23" y2="4" /><line stroke="rgb(10%,10%,16%)" x1="48" x2="59" y1="168" y2="184" /><line stroke="rgb(10%,10%,16%)" x1="177" x2="161" y1="57" y2="68" /><line stroke="rgb(10%,10%,16%)" x1="93" x2="98" y1="121" y2="102" /><line stroke="rgb(10%,10%,16%)" x1="31" x2="19" y1="122" y2="138" /><line stroke="rgb(10%,10%,16%)" x1="43" x2="59" y1="172" y2="184" /><line stroke="rgb(10%,10%,16%)" x1="28" x2="19" y1="21" y2="39" /><line stroke="rgb(10%,10%,16%)" x1="43" x2="47" y1="81" y2="101" /><line stroke="rgb(10%,10%,16%)" x1="77" x2="67" y1="89" y2="107" /><line stroke="rgb(10%,10%,16%)" x1="5" x2="10" y1="56" y2="36" /><line stroke="rgb(10%,10%,16%)" x1="47" x2="67" y1="101" y2="107" /><line stroke="rgb(10%,10%,16%)" x1="68" x2="47" y1="188" y2="189" /><line stroke="rgb(10%,10%,16%)" x1="46" x2="57" y1="11" y2="29" /><line stroke="rgb(10%,10%,16%)" x1="78" x2="99" y1="185" y2="183" /><line stroke="rgb(10%,10%,16%)" x1="79" x2="99" y1="190" y2="183" /><line stroke="rgb(10%,10%,16%)" x1="137" x2="158" y1="119" y2="114" /><line stroke="rgb(10%,10%,16%)" x1="77" x2="56" y1="89" y2="84" /><line stroke="rgb(10%,10%,16%)" x1="1" x2="10" y1="56" y2="36" /><line stroke="rgb(10%,10%,16%)" x1="186" x2="177" y1="37" y2="57" /><line stroke="rgb(10%,10%,16%)" x1="144" x2="125" y1="155" y2="144" /><line stroke="rgb(10%,10%,16%)" x1="5" x2="19" y1="56" y2="39" /><line stroke="rgb(10%,10%,16%)" x1="33" x2="55" y1="139" y2="140" /><line stroke="rgb(10%,10%,16%)" x1="146" x2="168" y1="179" y2="182" /><line stroke="rgb(10%,10%,16%)" x1="153" x2="175" y1="83" y2="87" /><line stroke="rgb(10%,10%,16%)" x1="28" x2="43" y1="21" y2="38" /><line stroke="rgb(10%,10%,16%)" x1="28" x2="43" y1="21" y2="4" /><line stroke="rgb(10%,10%,16%)" x1="133" x2="116" y1="19" y2="4" /><line stroke="rgb(10%,10%,16%)" x1="64" x2="55" y1="161" y2="140" /><line stroke="rgb(10%,10%,16%)" x1="146" x2="165" y1="30" y2="17" /><line stroke="rgb(10%,10%,16%)" x1="151" x2="174" y1="120" y2="119" /><line stroke="rgb(10%,10%,16%)" x1="192" x2="190" y1="91" y2="68" /><line stroke="rgb(10%,10%,16%)" x1="136" x2="115" y1="172" y2="182" /><line stroke="rgb(10%,10%,16%)" x1="93" x2="115" y1="121" y2="129" /><line stroke="rgb(10%,10%,16%)" x1="114" x2="136" y1="180" y2="172" /><line stroke="rgb(10%,10%,16%)" x1="28" x2="10" y1="21" y2="36" /><line stroke="rgb(10%,10%,16%)" x1="64" x2="59" y1="161" y2="184" /><line stroke="rgb(10%,10%,16%)" x1="175" x2="161" y1="87" y2="68" /><line stroke="rgb(10%,10%,16%)" x1="146" x2="157" y1="30" y2="9" /><line stroke="rgb(10%,10%,16%)" x1="8" x2="17" y1="108" y2="86" /><line stroke="rgb(10%,10%,16%)" x1="96" x2="116" y1="17" y2="4" /><line stroke="rgb(10%,10%,16%)" x1="43" x2="19" y1="38" y2="39" /><line stroke="rgb(10%,10%,16%)" x1="144" x2="146" y1="155" y2="179" /><line stroke="rgb(10%,10%,16%)" x1="56" x2="38" y1="84" y2="68" /><line stroke="rgb(10%,10%,16%)" x1="137" x2="115" y1="119" y2="129" /><line stroke="rgb(10%,10%,16%)" x1="79" x2="98" y1="117" y2="102" /><line stroke="rgb(10%,10%,16%)" x1="101" x2="86" y1="97" y2="78" /><line stroke="rgb(10%,10%,16%)" x1="190" x2="175" y1="68" y2="87" /><line stroke="rgb(10%,10%,16%)" x1="121" x2="98" y1="74" y2="66" /><line stroke="rgb(10%,10%,16%)" x1="77" x2="98" y1="89" y2="102" /><line stroke="rgb(10%,10%,16%)" x1="38" x2="47" y1="166" y2="189" /><line stroke="rgb(10%,10%,16%)" x1="146" x2="128" y1="30" y2="47" /><line stroke="rgb(10%,10%,16%)" x1="168" x2="186" y1="182" y2="165" /><line stroke="rgb(10%,10%,16%)" x1="5" x2="25" y1="56" y2="71" /><line stroke="rgb(10%,10%,16%)" x1="27" x2="47" y1="116" y2="101" /><line stroke="rgb(10%,10%,16%)" x1="121" x2="124" y1="74" y2="49" /><line stroke="rgb(10%,10%,16%)" x1="48" x2="27" y1="102" y2="116" /><line stroke="rgb(10%,10%,16%)" x1="77" x2="101" y1="89" y2="97" /><line stroke="rgb(10%,10%,16%)" x1="64" x2="39" y1="161" y2="166" /><line stroke="rgb(10%,10%,16%)" x1="56" x2="67" y1="84" y2="107" /><line stroke="rgb(10%,10%,16%)" x1="38" x2="53" y1="68" y2="47" /><line stroke="rgb(10%,10%,16%)" x1="168" x2="193" y1="182" y2="175" /><line stroke="rgb(10%,10%,16%)" x1="79" x2="55" y1="117" y2="107" /><line stroke="rgb(10%,10%,16%)" x1="133" x2="157" y1="19" y2="9" /><line stroke="rgb(10%,10%,16%)" x1="157" x2="131" y1="9" y2="7" /><line stroke="rgb(10%,10%,16%)" x1="93" x2="112" y1="121" y2="103" /><line stroke="rgb(10%,10%,16%)" x1="112" x2="115" y1="103" y2="129" /><line stroke="rgb(10%,10%,16%)" x1="31" x2="48" y1="122" y2="102" /><line stroke="rgb(10%,10%,16%)" x1="136" x2="156" y1="172" y2="189" /><line stroke="rgb(10%,10%,16%)" x1="144" x2="118" y1="155" y2="151" /><line stroke="rgb(10%,10%,16%)" x1="23" x2="19" y1="112" y2="138" /><line stroke="rgb(10%,10%,16%)" x1="23" x2="47" y1="112" y2="101" /><line stroke="rgb(10%,10%,16%)" x1="114" x2="101" y1="74" y2="97" /><line stroke="rgb(10%,10%,16%)" x1="64" x2="38" y1="161" y2="166" /><line stroke="rgb(10%,10%,16%)" x1="43" x2="17" y1="81" y2="86" /><line stroke="rgb(10%,10%,16%)" x1="23" x2="17" y1="112" y2="86" /><line stroke="rgb(10%,10%,16%)" x1="186" x2="187" y1="37" y2="64" /><line stroke="rgb(10%,10%,16%)" x1="11" x2="38" y1="168" y2="166" /><line stroke="rgb(10%,10%,16%)" x1="96" x2="118" y1="17" y2="1" /><line stroke="rgb(10%,10%,16%)" x1="33" x2="38" y1="139" y2="166" /><line stroke="rgb(10%,10%,16%)" x1="93" x2="114" y1="121" y2="139" /><line stroke="rgb(10%,10%,16%)" x1="136" x2="118" y1="172" y2="151" /><line stroke="rgb(10%,10%,16%)" x1="137" x2="125" y1="119" y2="144" /><line stroke="rgb(10%,10%,16%)" x1="64" x2="78" y1="161" y2="185" /><line stroke="rgb(10%,10%,16%)" x1="121" x2="128" y1="74" y2="47" /><line stroke="rgb(10%,10%,16%)" x1="151" x2="174" y1="120" y2="136" /><line stroke="rgb(10%,10%,16%)" x1="79" x2="77" y1="117" y2="89" /><line stroke="rgb(10%,10%,16%)" x1="129" x2="157" y1="5" y2="9" /><line stroke="rgb(10%,10%,16%)" x1="114" x2="86" y1="74" y2="78" /><line stroke="rgb(10%,10%,16%)" x1="1" x2="25" y1="56" y2="71" /><line stroke="rgb(10%,10%,16%)" x1="31" x2="55" y1="122" y2="107" /><line stroke="rgb(10%,10%,16%)" x1="116" x2="98" y1="44" y2="66" /><line stroke="rgb(10%,10%,16%)" x1="133" x2="128" y1="19" y2="47" /><line stroke="rgb(10%,10%,16%)" x1="43" x2="57" y1="4" y2="29" /><line stroke="rgb(10%,10%,16%)" x1="165" x2="186" y1="17" y2="37" /><line stroke="rgb(10%,10%,16%)" x1="190" x2="161" y1="68" y2="68" /><line stroke="rgb(10%,10%,16%)" x1="114" x2="118" y1="180" y2="151" /><line stroke="rgb(10%,10%,16%)" x1="137" x2="112" y1="119" y2="103" /><line stroke="rgb(10%,10%,16%)" x1="31" x2="55" y1="122" y2="140" /><line stroke="rgb(10%,10%,16%)" x1="157" x2="181" y1="9" y2="27" /><line stroke="rgb(10%,10%,16%)" x1="133" x2="116" y1="19" y2="44" /><line stroke="rgb(10%,10%,16%)" x1="91" x2="77" y1="62" y2="89" /><line stroke="rgb(10%,10%,16%)" x1="121" x2="116" y1="74" y2="44" /><line stroke="rgb(10%,10%,16%)" x1="43" x2="38" y1="38" y2="68" /><line stroke="rgb(10%,10%,16%)" x1="91" x2="116" y1="62" y2="44" /><line stroke="rgb(10%,10%,16%)" x1="11" x2="19" y1="168" y2="138" /><line stroke="rgb(10%,10%,16%)" x1="38" x2="55" y1="166" y2="140" /><line stroke="rgb(10%,10%,16%)" x1="186" x2="190" y1="37" y2="68" /><line stroke="rgb(10%,10%,16%)" x1="186" x2="174" y1="165" y2="136" /><line stroke="rgb(10%,10%,16%)" x1="158" x2="153" y1="114" y2="83" /><line stroke="rgb(10%,10%,16%)" x1="158" x2="175" y1="114" y2="87" /><line stroke="rgb(10%,10%,16%)" x1="8" x2="19" y1="108" y2="138" /><line stroke="rgb(10%,10%,16%)" x1="47" x2="79" y1="189" y2="190" /><line stroke="rgb(10%,10%,16%)" x1="174" x2="175" y1="119" y2="87" /><line stroke="rgb(10%,10%,16%)" x1="93" x2="115" y1="121" y2="145" /><line stroke="rgb(10%,10%,16%)" x1="25" x2="19" y1="71" y2="39" /><line stroke="rgb(10%,10%,16%)" x1="55" x2="55" y1="140" y2="107" /><line stroke="rgb(10%,10%,16%)" x1="79" x2="55" y1="117" y2="140" /><line stroke="rgb(10%,10%,16%)" x1="121" x2="153" y1="74" y2="83" /><line stroke="rgb(10%,10%,16%)" x1="192" x2="174" y1="91" y2="119" /><line stroke="rgb(10%,10%,16%)" x1="47" x2="17" y1="101" y2="86" /><line stroke="rgb(10%,10%,16%)" x1="96" x2="116" y1="17" y2="44" /><line stroke="rgb(10%,10%,16%)" x1="38" x2="19" y1="166" y2="138" /><line stroke="rgb(10%,10%,16%)" x1="1" x2="17" y1="56" y2="86" /><line stroke="rgb(10%,10%,16%)" x1="38" x2="19" y1="68" y2="39" /><line stroke="rgb(10%,10%,16%)" x1="115" x2="114" y1="145" y2="180" /><line stroke="rgb(10%,10%,16%)" x1="153" x2="118" y1="83" y2="85" /><line stroke="rgb(10%,10%,16%)" x1="151" x2="125" y1="120" y2="144" /><line stroke="rgb(10%,10%,16%)" x1="144" x2="174" y1="155" y2="136" /><line stroke="rgb(10%,10%,16%)" x1="144" x2="151" y1="155" y2="120" /><line stroke="rgb(10%,10%,16%)" x1="144" x2="168" y1="155" y2="182" /><line stroke="rgb(10%,10%,16%)" x1="114" x2="78" y1="180" y2="185" /><line stroke="rgb(10%,10%,16%)" x1="115" x2="79" y1="182" y2="190" /><line stroke="rgb(10%,10%,16%)" x1="133" x2="96" y1="19" y2="17" /><line stroke="rgb(10%,10%,16%)" x1="56" x2="53" y1="84" y2="47" /><line stroke="rgb(10%,10%,16%)" x1="195" x2="174" y1="168" y2="136" /><line stroke="rgb(10%,10%,16%)" x1="137" x2="118" y1="119" y2="85" /><line stroke="rgb(10%,10%,16%)" x1="128" x2="161" y1="47" y2="68" /><line stroke="rgb(10%,10%,16%)" x1="137" x2="153" y1="119" y2="83" /><line stroke="rgb(10%,10%,16%)" x1="156" x2="193" y1="189" y2="175" /><line stroke="rgb(10%,10%,16%)" x1="118" x2="157" y1="1" y2="9" /><line stroke="rgb(10%,10%,16%)" x1="186" x2="161" y1="37" y2="68" /><line stroke="rgb(10%,10%,16%)" x1="121" x2="161" y1="74" y2="68" /><line stroke="rgb(10%,10%,16%)" x1="146" x2="186" y1="30" y2="37" /><line stroke="rgb(10%,10%,16%)" x1="96" x2="57" y1="17" y2="29" /><line stroke="rgb(10%,10%,16%)" x1="146" x2="161" y1="30" y2="68" /><line stroke="rgb(10%,10%,16%)" x1="91" x2="53" y1="62" y2="47" /><line stroke="rgb(10%,10%,16%)" x1="91" x2="56" y1="62" y2="84" /><line stroke="rgb(10%,10%,16%)" x1="156" x2="115" y1="189" y2="182" /><line stroke="rgb(10%,10%,16%)" x1="11" x2="47" y1="168" y2="189" /><line stroke="rgb(10%,10%,16%)" x1="93" x2="55" y1="121" y2="140" /><line stroke="rgb(10%,10%,16%)" x1="144" x2="186" y1="155" y2="165" /><line stroke="rgb(10%,10%,16%)" x1="91" x2="96" y1="62" y2="17" /><line stroke="rgb(10%,10%,16%)" x1="43" x2="10" y1="4" y2="36" /><line stroke="rgb(10%,10%,16%)" x1="91" x2="57" y1="62" y2="29" /><line stroke="rgb(10%,10%,16%)" x1="192" x2="174" y1="91" y2="136" /><line stroke="rgb(10%,10%,16%)" x1="93" x2="64" y1="121" y2="161" /><line stroke="rgb(10%,10%,16%)" x1="8" x2="1" y1="108" y2="56" /><line stroke="rgb(10%,10%,16%)" x1="115" x2="64" y1="145" y2="161" /><line stroke="rgb(10%,10%,16%)" x1="114" x2="64" y1="180" y2="161" /><line stroke="rgb(10%,10%,16%)" x1="96" x2="43" y1="17" y2="4" /><line stroke="rgb(10%,10%,16%)" x1="8" x2="11" y1="108" y2="168" /><line stroke="rgb(10%,10%,16%)" x1="118" x2="43" y1="1" y2="4" /><line stroke="rgb(10%,10%,16%)" x1="156" x2="79" y1="189" y2="190" /><line stroke="rgb(10%,10%,16%)" x1="195" x2="192" y1="168" y2="91" /><line stroke="rgb(10%,10%,16%)" x1="1" x2="11" y1="56" y2="168" /><circle cx="93" cy="121" r="3" /><circle cx="8" cy="108" r="3" /><circle cx="1" cy="56" r="3" /><circle cx="115" cy="145" r="3" /><circle cx="137" cy="119" r="3" /><circle cx="28" cy="21" r="3" /><circle cx="79" cy="117" r="3" /><circle cx="146" cy="30" r="3" /><circle cx="144" cy="155" r="3" /><circle cx="11" cy="168" r="3" /><circle cx="91" cy="62" r="3" /><circle cx="133" cy="19" r="3" /><circle cx="114" cy="180" r="3" /><circle cx="5" cy="56" r="3" /><circle cx="121" cy="74" r="3" /><circle cx="158" cy="114" r="3" /><circle cx="195" cy="168" r="3" /><circle cx="12" cy="104" r="3" /><circle cx="151" cy="120" r="3" /><circle cx="31" cy="122" r="3" /><circle cx="77" cy="89" r="3" /><circle cx="165" cy="17" r="3" /><circle cx="86" cy="185" r="3" /><circle cx="129" cy="5" r="3" /><circle cx="146" cy="179" r="3" /><circle cx="47" cy="23" r="3" /><circle cx="168" cy="182" r="3" /><circle cx="48" cy="168" r="3" /><circle cx="48" cy="102" r="3" /><circle cx="186" cy="37" r="3" /><circle cx="64" cy="161" r="3" /><circle cx="32" cy="74" r="3" /><circle cx="136" cy="172" r="3" /><circle cx="46" cy="11" r="3" /><circle cx="96" cy="17" r="3" /><circle cx="192" cy="91" r="3" /><circle cx="23" cy="112" r="3" /><circle cx="186" cy="165" r="3" /><circle cx="33" cy="139" r="3" /><circle cx="56" cy="84" r="3" /><circle cx="156" cy="189" r="3" /><circle cx="114" cy="74" r="3" /><circle cx="124" cy="49" r="3" /><circle cx="118" cy="1" r="3" /><circle cx="101" cy="97" r="3" /><circle cx="190" cy="68" r="3" /><circle cx="27" cy="116" r="3" /><circle cx="177" cy="57" r="3" /><circle cx="25" cy="71" r="3" /><circle cx="43" cy="38" r="3" /><circle cx="43" cy="4" r="3" /><circle cx="194" cy="170" r="3" /><circle cx="38" cy="166" r="3" /><circle cx="157" cy="9" r="3" /><circle cx="116" cy="44" r="3" /><circle cx="128" cy="47" r="3" /><circle cx="68" cy="188" r="3" /><circle cx="86" cy="78" r="3" /><circle cx="43" cy="81" r="3" /><circle cx="193" cy="175" r="3" /><circle cx="112" cy="103" r="3" /><circle cx="115" cy="129" r="3" /><circle cx="19" cy="138" r="3" /><circle cx="153" cy="83" r="3" /><circle cx="47" cy="189" r="3" /><circle cx="115" cy="182" r="3" /><circle cx="181" cy="27" r="3" /><circle cx="47" cy="101" r="3" /><circle cx="38" cy="68" r="3" /><circle cx="174" cy="119" r="3" /><circle cx="55" cy="140" r="3" /><circle cx="43" cy="172" r="3" /><circle cx="79" cy="190" r="3" /><circle cx="116" cy="4" r="3" /><circle cx="55" cy="107" r="3" /><circle cx="118" cy="85" r="3" /><circle cx="187" cy="64" r="3" /><circle cx="123" cy="3" r="3" /><circle cx="114" cy="139" r="3" /><circle cx="44" cy="30" r="3" /><circle cx="125" cy="144" r="3" /><circle cx="57" cy="29" r="3" /><circle cx="175" cy="87" r="3" /><circle cx="53" cy="47" r="3" /><circle cx="161" cy="68" r="3" /><circle cx="78" cy="185" r="3" /><circle cx="98" cy="66" r="3" /><circle cx="67" cy="107" r="3" /><circle cx="174" cy="136" r="3" /><circle cx="19" cy="39" r="3" /><circle cx="131" cy="7" r="3" /><circle cx="39" cy="166" r="3" /><circle cx="99" cy="183" r="3" /><circle cx="114" cy="93" r="3" /><circle cx="118" cy="151" r="3" /><circle cx="10" cy="36" r="3" /><circle cx="59" cy="184" r="3" /><circle cx="98" cy="102" r="3" /><circle cx="17" cy="86" r="3" /><circle cx="161" cy="83" r="3" /></svg>