<?xml version="1.0" encoding="utf-8" ?>
<svg baseProfile="tiny" height="100%" version="1.2" width="100%" xmlns="http://www.w3.org/2000/svg" xmlns:ev="http://www.w3.org/2001/xml-events" xmlns:xlink="http://www.w3.org/1999/xlink"><defs /><line stroke="rgb(10%,10%,16%)" x1="100" x2="100" y1="100" y2="210" /><line stroke="rgb(10%,10%,16%)" x1="100" x2="210" y1="210" y2="210" /><line stroke="rgb(10%,10%,16%)" x1="210" x2="210" y1="210" y2="100" /><line stroke="rgb(10%,10%,16%)" x1="210" x2="100" y1="100" y2="100" /><line stroke="rgb(10%,10%,16%)" x1="100" x2="100" y1="100" y2="221" /><line stroke="rgb(10%,10%,16%)" x1="100" x2="221" y1="221" y2="221" /><line stroke="rgb(10%,10%,16%)" x1="221" x2="221" y1="221" y2="100" /><line stroke="rgb(10%,10%,16%)" x1="221" x2="100" y1="100" y2="100" /><line stroke="rgb(10%,10%,16%)" x1="100" x2="100" y1="100" y2="233" /><line stroke="rgb(10%,10%,16%)" x1="100" x2="233" y1="233" y2="233" /><line stroke="rgb(10%,10%,16%)" x1="233" x2="233" y1="233" y2="100" /><line stroke="rgb(10%,10%,16%)" x1="233" x2="100" y1="100" y2="100" /><line stroke="rgb(10%,10%,16%)" x1="100" x2="100" y1="100" y2="246" /><line stroke="rgb(10%,10%,16%)" x1="100" x2="246" y1="246" y2="246" /><line stroke="rgb(10%,10%,16%)" x1="246" x2="246" y1="246" y2="100" /><line stroke="rgb(10%,10%,16%)" x1="246" x2="100" y1="100" y2="100" /><line stroke="rgb(10%,10%,16%)" x1="100" x2="100" y1="100" y2="261" /><line stroke="rgb(10%,10%,16%)" x1="100" x2="261" y1="261" y2="261" /><line stroke="rgb(10%,10%,16%)" x1="261" x2="261" y1="261" y2="100" /><line stroke="rgb(10%,10%,16%)" x1="261" x2="100" y1="100" y2="100" /><line stroke="rgb(10%,10%,16%)" x1="100" x2="100" y1="100" y2="277" /><line stroke="rgb(10%,10%,16%)" x1="100" x2="277" y1="277" y2="277" /><line stroke="rgb(10%,10%,16%)" x1="277" x2="277" y1="277" y2="100" /><line stroke="rgb(10%,10%,16%)" x1="277" x2="100" y1="100" y2="100" /><line stroke="rgb(10%,10%,16%)" x1="100" x2="100" y1="100" y2="294" /><line stroke="rgb(10%,10%,16%)" x1="100" x2="294" y1="294" y2="294" /><line stroke="rgb(10%,10%,16%)" x1="294" x2="294" y1="294" y2="100" /><line stroke="rgb(10%,10%,16%)" x1="294" x2="100" y1="100" y2="100" /><line stroke="rgb(10%,10%,16%)" x1="100" x2="100" y1="100" y2="314" /><line stroke="rgb(10%,10%,16%)" x1="100" x2="314" y1="314" y2="314" /><line stroke="rgb(10%,10%,16%)" x1="314" x2="314" y1="314" y2="100" /><line stroke="rgb(10%,10%,16%)" x1="314" x2="100" y1="100" y2="100" /><line stroke="rgb(10%,10%,16%)" x1="100" x2="100" y1="100" y2="335" /><line stroke="rgb(10%,10%,16%)" x1="100" x2="335" y1="335" y2="335" /><line stroke="rgb(10%,10%,16%)" x1="335" x2="335" y1="335" y2="100" /><line stroke="rgb(10%,10%,16%)" x1="335" x2="100" y1="100" y2="100" /><line stroke="rgb(10%,10%,16%)" x1="100" x2="100" y1="100" y2="359" /><line stroke="rgb(10%,10%,16%)" x1="100" x2="359" y1="359" y2="359" /><line stroke="rgb(10%,10%,16%)" x1="359" x2="359" y1="359" y2="100" /><line stroke="rgb(10%,10%,16%)" x1="359" x2="100" y1="100" y2="100" /></svg>