<?xml version="1.0" encoding="utf-8" ?>
<svg baseProfile="tiny" height="100%" version="1.2" width="100%" xmlns="http://www.w3.org/2000/svg" xmlns:ev="http://www.w3.org/2001/xml-events" xmlns:xlink="http://www.w3.org/1999/xlink"><defs /><line stroke="rgb(10%,10%,16%)" x1="250" x2="222" y1="250" y2="407" /><line stroke="rgb(10%,10%,16%)" x1="222" x2="438" y1="407" y2="445" /><line stroke="rgb(10%,10%,16%)" x1="438" x2="466" y1="445" y2="288" /><line stroke="rgb(10%,10%,16%)" x1="466" x2="250" y1="288" y2="250" /><line stroke="rgb(10%,10%,16%)" x1="250" x2="198" y1="250" y2="368" /><line stroke="rgb(10%,10%,16%)" x1="198" x2="427" y1="368" y2="440" /><line stroke="rgb(10%,10%,16%)" x1="427" x2="479" y1="440" y2="321" /><line stroke="rgb(10%,10%,16%)" x1="479" x2="250" y1="321" y2="250" /><line stroke="rgb(10%,10%,16%)" x1="250" x2="177" y1="250" y2="333" /><line stroke="rgb(10%,10%,16%)" x1="177" x2="415" y1="333" y2="433" /><line stroke="rgb(10%,10%,16%)" x1="415" x2="488" y1="433" y2="350" /><line stroke="rgb(10%,10%,16%)" x1="488" x2="250" y1="350" y2="250" /><line stroke="rgb(10%,10%,16%)" x1="250" x2="159" y1="250" y2="302" /><line stroke="rgb(10%,10%,16%)" x1="159" x2="404" y1="302" y2="426" /><line stroke="rgb(10%,10%,16%)" x1="404" x2="494" y1="426" y2="374" /><line stroke="rgb(10%,10%,16%)" x1="494" x2="250" y1="374" y2="250" /><line stroke="rgb(10%,10%,16%)" x1="250" x2="144" y1="250" y2="273" /><line stroke="rgb(10%,10%,16%)" x1="144" x2="392" y1="273" y2="418" /><line stroke="rgb(10%,10%,16%)" x1="392" x2="497" y1="418" y2="394" /><line stroke="rgb(10%,10%,16%)" x1="497" x2="250" y1="394" y2="250" /><line stroke="rgb(10%,10%,16%)" x1="250" x2="132" y1="250" y2="249" /><line stroke="rgb(10%,10%,16%)" x1="132" x2="380" y1="249" y2="409" /><line stroke="rgb(10%,10%,16%)" x1="380" x2="498" y1="409" y2="411" /><line stroke="rgb(10%,10%,16%)" x1="498" x2="250" y1="411" y2="250" /><line stroke="rgb(10%,10%,16%)" x1="250" x2="123" y1="250" y2="227" /><line stroke="rgb(10%,10%,16%)" x1="123" x2="369" y1="227" y2="400" /><line stroke="rgb(10%,10%,16%)" x1="369" x2="496" y1="400" y2="424" /><line stroke="rgb(10%,10%,16%)" x1="496" x2="250" y1="424" y2="250" /><line stroke="rgb(10%,10%,16%)" x1="250" x2="115" y1="250" y2="208" /><line stroke="rgb(10%,10%,16%)" x1="115" x2="358" y1="208" y2="391" /><line stroke="rgb(10%,10%,16%)" x1="358" x2="492" y1="391" y2="434" /><line stroke="rgb(10%,10%,16%)" x1="492" x2="250" y1="434" y2="250" /><line stroke="rgb(10%,10%,16%)" x1="250" x2="110" y1="250" y2="191" /><line stroke="rgb(10%,10%,16%)" x1="110" x2="347" y1="191" y2="382" /><line stroke="rgb(10%,10%,16%)" x1="347" x2="487" y1="382" y2="441" /><line stroke="rgb(10%,10%,16%)" x1="487" x2="250" y1="441" y2="250" /><line stroke="rgb(10%,10%,16%)" x1="250" x2="107" y1="250" y2="177" /><line stroke="rgb(10%,10%,16%)" x1="107" x2="337" y1="177" y2="372" /><line stroke="rgb(10%,10%,16%)" x1="337" x2="480" y1="372" y2="446" /><line stroke="rgb(10%,10%,16%)" x1="480" x2="250" y1="446" y2="250" /><line stroke="rgb(10%,10%,16%)" x1="250" x2="105" y1="250" y2="165" /><line stroke="rgb(10%,10%,16%)" x1="105" x2="327" y1="165" y2="363" /><line stroke="rgb(10%,10%,16%)" x1="327" x2="472" y1="363" y2="448" /><line stroke="rgb(10%,10%,16%)" x1="472" x2="250" y1="448" y2="250" /><line stroke="rgb(10%,10%,16%)" x1="250" x2="105" y1="250" y2="156" /><line stroke="rgb(10%,10%,16%)" x1="105" x2="318" y1="156" y2="354" /><line stroke="rgb(10%,10%,16%)" x1="318" x2="463" y1="354" y2="449" /><line stroke="rgb(10%,10%,16%)" x1="463" x2="250" y1="449" y2="250" /><line stroke="rgb(10%,10%,16%)" x1="250" x2="106" y1="250" y2="148" /><line stroke="rgb(10%,10%,16%)" x1="106" x2="309" y1="148" y2="345" /><line stroke="rgb(10%,10%,16%)" x1="309" x2="453" y1="345" y2="447" /><line stroke="rgb(10%,10%,16%)" x1="453" x2="250" y1="447" y2="250" /><line stroke="rgb(10%,10%,16%)" x1="250" x2="108" y1="250" y2="143" /><line stroke="rgb(10%,10%,16%)" x1="108" x2="301" y1="143" y2="336" /><line stroke="rgb(10%,10%,16%)" x1="301" x2="442" y1="336" y2="444" /><line stroke="rgb(10%,10%,16%)" x1="442" x2="250" y1="444" y2="250" /><line stroke="rgb(10%,10%,16%)" x1="250" x2="111" y1="250" y2="138" /><line stroke="rgb(10%,10%,16%)" x1="111" x2="293" y1="138" y2="327" /><line stroke="rgb(10%,10%,16%)" x1="293" x2="431" y1="327" y2="439" /><line stroke="rgb(10%,10%,16%)" x1="431" x2="250" y1="439" y2="250" /></svg>