<?xml version="1.0" encoding="utf-8" ?>
<svg baseProfile="tiny" height="100%" version="1.2" width="100%" xmlns="http://www.w3.org/2000/svg" xmlns:ev="http://www.w3.org/2001/xml-events" xmlns:xlink="http://www.w3.org/1999/xlink"><defs /><line stroke="rgb(10%,10%,16%)" x1="500" x2="495" y1="500" y2="698" /><line stroke="rgb(10%,10%,16%)" x1="495" x2="696" y1="698" y2="722" /><line stroke="rgb(10%,10%,16%)" x1="696" x2="700" y1="722" y2="524" /><line stroke="rgb(10%,10%,16%)" x1="700" x2="500" y1="524" y2="500" /><line stroke="rgb(10%,10%,16%)" x1="500" x2="490" y1="500" y2="696" /><line stroke="rgb(10%,10%,16%)" x1="490" x2="692" y1="696" y2="745" /><line stroke="rgb(10%,10%,16%)" x1="692" x2="701" y1="745" y2="548" /><line stroke="rgb(10%,10%,16%)" x1="701" x2="500" y1="548" y2="500" /><line stroke="rgb(10%,10%,16%)" x1="500" x2="486" y1="500" y2="693" /><line stroke="rgb(10%,10%,16%)" x1="486" x2="687" y1="693" y2="766" /><line stroke="rgb(10%,10%,16%)" x1="687" x2="701" y1="766" y2="572" /><line stroke="rgb(10%,10%,16%)" x1="701" x2="500" y1="572" y2="500" /><line stroke="rgb(10%,10%,16%)" x1="500" x2="482" y1="500" y2="690" /><line stroke="rgb(10%,10%,16%)" x1="482" x2="682" y1="690" y2="787" /><line stroke="rgb(10%,10%,16%)" x1="682" x2="700" y1="787" y2="596" /><line stroke="rgb(10%,10%,16%)" x1="700" x2="500" y1="596" y2="500" /><line stroke="rgb(10%,10%,16%)" x1="500" x2="477" y1="500" y2="687" /><line stroke="rgb(10%,10%,16%)" x1="477" x2="676" y1="687" y2="807" /><line stroke="rgb(10%,10%,16%)" x1="676" x2="699" y1="807" y2="620" /><line stroke="rgb(10%,10%,16%)" x1="699" x2="500" y1="620" y2="500" /><line stroke="rgb(10%,10%,16%)" x1="500" x2="473" y1="500" y2="683" /><line stroke="rgb(10%,10%,16%)" x1="473" x2="670" y1="683" y2="827" /><line stroke="rgb(10%,10%,16%)" x1="670" x2="697" y1="827" y2="643" /><line stroke="rgb(10%,10%,16%)" x1="697" x2="500" y1="643" y2="500" /><line stroke="rgb(10%,10%,16%)" x1="500" x2="469" y1="500" y2="678" /><line stroke="rgb(10%,10%,16%)" x1="469" x2="664" y1="678" y2="845" /><line stroke="rgb(10%,10%,16%)" x1="664" x2="695" y1="845" y2="666" /><line stroke="rgb(10%,10%,16%)" x1="695" x2="500" y1="666" y2="500" /><line stroke="rgb(10%,10%,16%)" x1="500" x2="464" y1="500" y2="673" /><line stroke="rgb(10%,10%,16%)" x1="464" x2="657" y1="673" y2="862" /><line stroke="rgb(10%,10%,16%)" x1="657" x2="692" y1="862" y2="689" /><line stroke="rgb(10%,10%,16%)" x1="692" x2="500" y1="689" y2="500" /><line stroke="rgb(10%,10%,16%)" x1="500" x2="460" y1="500" y2="667" /><line stroke="rgb(10%,10%,16%)" x1="460" x2="649" y1="667" y2="879" /><line stroke="rgb(10%,10%,16%)" x1="649" x2="688" y1="879" y2="711" /><line stroke="rgb(10%,10%,16%)" x1="688" x2="500" y1="711" y2="500" /><line stroke="rgb(10%,10%,16%)" x1="500" x2="456" y1="500" y2="661" /><line stroke="rgb(10%,10%,16%)" x1="456" x2="641" y1="661" y2="894" /><line stroke="rgb(10%,10%,16%)" x1="641" x2="685" y1="894" y2="732" /><line stroke="rgb(10%,10%,16%)" x1="685" x2="500" y1="732" y2="500" /><line stroke="rgb(10%,10%,16%)" x1="500" x2="452" y1="500" y2="655" /><line stroke="rgb(10%,10%,16%)" x1="452" x2="633" y1="655" y2="909" /><line stroke="rgb(10%,10%,16%)" x1="633" x2="680" y1="909" y2="753" /><line stroke="rgb(10%,10%,16%)" x1="680" x2="500" y1="753" y2="500" /><line stroke="rgb(10%,10%,16%)" x1="500" x2="449" y1="500" y2="648" /><line stroke="rgb(10%,10%,16%)" x1="449" x2="624" y1="648" y2="922" /><line stroke="rgb(10%,10%,16%)" x1="624" x2="675" y1="922" y2="773" /><line stroke="rgb(10%,10%,16%)" x1="675" x2="500" y1="773" y2="500" /><line stroke="rgb(10%,10%,16%)" x1="500" x2="445" y1="500" y2="641" /><line stroke="rgb(10%,10%,16%)" x1="445" x2="615" y1="641" y2="934" /><line stroke="rgb(10%,10%,16%)" x1="615" x2="670" y1="934" y2="793" /><line stroke="rgb(10%,10%,16%)" x1="670" x2="500" y1="793" y2="500" /><line stroke="rgb(10%,10%,16%)" x1="500" x2="442" y1="500" y2="633" /><line stroke="rgb(10%,10%,16%)" x1="442" x2="606" y1="633" y2="945" /><line stroke="rgb(10%,10%,16%)" x1="606" x2="664" y1="945" y2="811" /><line stroke="rgb(10%,10%,16%)" x1="664" x2="500" y1="811" y2="500" /><line stroke="rgb(10%,10%,16%)" x1="500" x2="438" y1="500" y2="625" /><line stroke="rgb(10%,10%,16%)" x1="438" x2="597" y1="625" y2="954" /><line stroke="rgb(10%,10%,16%)" x1="597" x2="658" y1="954" y2="829" /><line stroke="rgb(10%,10%,16%)" x1="658" x2="500" y1="829" y2="500" /><line stroke="rgb(10%,10%,16%)" x1="500" x2="435" y1="500" y2="616" /><line stroke="rgb(10%,10%,16%)" x1="435" x2="587" y1="616" y2="963" /><line stroke="rgb(10%,10%,16%)" x1="587" x2="651" y1="963" y2="846" /><line stroke="rgb(10%,10%,16%)" x1="651" x2="500" y1="846" y2="500" /><line stroke="rgb(10%,10%,16%)" x1="500" x2="432" y1="500" y2="608" /><line stroke="rgb(10%,10%,16%)" x1="432" x2="577" y1="608" y2="970" /><line stroke="rgb(10%,10%,16%)" x1="577" x2="644" y1="970" y2="862" /><line stroke="rgb(10%,10%,16%)" x1="644" x2="500" y1="862" y2="500" /><line stroke="rgb(10%,10%,16%)" x1="500" x2="430" y1="500" y2="599" /><line stroke="rgb(10%,10%,16%)" x1="430" x2="566" y1="599" y2="976" /><line stroke="rgb(10%,10%,16%)" x1="566" x2="636" y1="976" y2="877" /><line stroke="rgb(10%,10%,16%)" x1="636" x2="500" y1="877" y2="500" /><line stroke="rgb(10%,10%,16%)" x1="500" x2="427" y1="500" y2="589" /><line stroke="rgb(10%,10%,16%)" x1="427" x2="556" y1="589" y2="981" /><line stroke="rgb(10%,10%,16%)" x1="556" x2="629" y1="981" y2="891" /><line stroke="rgb(10%,10%,16%)" x1="629" x2="500" y1="891" y2="500" /><line stroke="rgb(10%,10%,16%)" x1="500" x2="425" y1="500" y2="580" /><line stroke="rgb(10%,10%,16%)" x1="425" x2="545" y1="580" y2="984" /><line stroke="rgb(10%,10%,16%)" x1="545" x2="620" y1="984" y2="903" /><line stroke="rgb(10%,10%,16%)" x1="620" x2="500" y1="903" y2="500" /><line stroke="rgb(10%,10%,16%)" x1="500" x2="422" y1="500" y2="570" /><line stroke="rgb(10%,10%,16%)" x1="422" x2="535" y1="570" y2="986" /><line stroke="rgb(10%,10%,16%)" x1="535" x2="612" y1="986" y2="915" /><line stroke="rgb(10%,10%,16%)" x1="612" x2="500" y1="915" y2="500" /><line stroke="rgb(10%,10%,16%)" x1="500" x2="420" y1="500" y2="560" /><line stroke="rgb(10%,10%,16%)" x1="420" x2="524" y1="560" y2="987" /><line stroke="rgb(10%,10%,16%)" x1="524" x2="603" y1="987" y2="926" /><line stroke="rgb(10%,10%,16%)" x1="603" x2="500" y1="926" y2="500" /><line stroke="rgb(10%,10%,16%)" x1="500" x2="419" y1="500" y2="550" /><line stroke="rgb(10%,10%,16%)" x1="419" x2="513" y1="550" y2="986" /><line stroke="rgb(10%,10%,16%)" x1="513" x2="594" y1="986" y2="935" /><line stroke="rgb(10%,10%,16%)" x1="594" x2="500" y1="935" y2="500" /><line stroke="rgb(10%,10%,16%)" x1="500" x2="417" y1="500" y2="540" /><line stroke="rgb(10%,10%,16%)" x1="417" x2="502" y1="540" y2="984" /><line stroke="rgb(10%,10%,16%)" x1="502" x2="584" y1="984" y2="943" /><line stroke="rgb(10%,10%,16%)" x1="584" x2="500" y1="943" y2="500" /><line stroke="rgb(10%,10%,16%)" x1="500" x2="416" y1="500" y2="530" /><line stroke="rgb(10%,10%,16%)" x1="416" x2="491" y1="530" y2="981" /><line stroke="rgb(10%,10%,16%)" x1="491" x2="575" y1="981" y2="950" /><line stroke="rgb(10%,10%,16%)" x1="575" x2="500" y1="950" y2="500" /><line stroke="rgb(10%,10%,16%)" x1="500" x2="415" y1="500" y2="519" /><line stroke="rgb(10%,10%,16%)" x1="415" x2="480" y1="519" y2="976" /><line stroke="rgb(10%,10%,16%)" x1="480" x2="565" y1="976" y2="956" /><line stroke="rgb(10%,10%,16%)" x1="565" x2="500" y1="956" y2="500" /><line stroke="rgb(10%,10%,16%)" x1="500" x2="414" y1="500" y2="509" /><line stroke="rgb(10%,10%,16%)" x1="414" x2="469" y1="509" y2="970" /><line stroke="rgb(10%,10%,16%)" x1="469" x2="555" y1="970" y2="961" /><line stroke="rgb(10%,10%,16%)" x1="555" x2="500" y1="961" y2="500" /><line stroke="rgb(10%,10%,16%)" x1="500" x2="413" y1="500" y2="499" /><line stroke="rgb(10%,10%,16%)" x1="413" x2="458" y1="499" y2="963" /><line stroke="rgb(10%,10%,16%)" x1="458" x2="545" y1="963" y2="964" /><line stroke="rgb(10%,10%,16%)" x1="545" x2="500" y1="964" y2="500" /><line stroke="rgb(10%,10%,16%)" x1="500" x2="413" y1="500" y2="489" /><line stroke="rgb(10%,10%,16%)" x1="413" x2="448" y1="489" y2="954" /><line stroke="rgb(10%,10%,16%)" x1="448" x2="534" y1="954" y2="966" /><line stroke="rgb(10%,10%,16%)" x1="534" x2="500" y1="966" y2="500" /><line stroke="rgb(10%,10%,16%)" x1="500" x2="413" y1="500" y2="478" /><line stroke="rgb(10%,10%,16%)" x1="413" x2="437" y1="478" y2="945" /><line stroke="rgb(10%,10%,16%)" x1="437" x2="524" y1="945" y2="967" /><line stroke="rgb(10%,10%,16%)" x1="524" x2="500" y1="967" y2="500" /><line stroke="rgb(10%,10%,16%)" x1="500" x2="413" y1="500" y2="468" /><line stroke="rgb(10%,10%,16%)" x1="413" x2="427" y1="468" y2="934" /><line stroke="rgb(10%,10%,16%)" x1="427" x2="514" y1="934" y2="966" /><line stroke="rgb(10%,10%,16%)" x1="514" x2="500" y1="966" y2="500" /><line stroke="rgb(10%,10%,16%)" x1="500" x2="413" y1="500" y2="458" /><line stroke="rgb(10%,10%,16%)" x1="413" x2="417" y1="458" y2="922" /><line stroke="rgb(10%,10%,16%)" x1="417" x2="503" y1="922" y2="965" /><line stroke="rgb(10%,10%,16%)" x1="503" x2="500" y1="965" y2="500" /><line stroke="rgb(10%,10%,16%)" x1="500" x2="414" y1="500" y2="447" /><line stroke="rgb(10%,10%,16%)" x1="414" x2="407" y1="447" y2="909" /><line stroke="rgb(10%,10%,16%)" x1="407" x2="493" y1="909" y2="962" /><line stroke="rgb(10%,10%,16%)" x1="493" x2="500" y1="962" y2="500" /><line stroke="rgb(10%,10%,16%)" x1="500" x2="415" y1="500" y2="437" /><line stroke="rgb(10%,10%,16%)" x1="415" x2="397" y1="437" y2="894" /><line stroke="rgb(10%,10%,16%)" x1="397" x2="482" y1="894" y2="957" /><line stroke="rgb(10%,10%,16%)" x1="482" x2="500" y1="957" y2="500" /><line stroke="rgb(10%,10%,16%)" x1="500" x2="416" y1="500" y2="427" /><line stroke="rgb(10%,10%,16%)" x1="416" x2="388" y1="427" y2="879" /><line stroke="rgb(10%,10%,16%)" x1="388" x2="472" y1="879" y2="952" /><line stroke="rgb(10%,10%,16%)" x1="472" x2="500" y1="952" y2="500" /><line stroke="rgb(10%,10%,16%)" x1="500" x2="417" y1="500" y2="418" /><line stroke="rgb(10%,10%,16%)" x1="417" x2="379" y1="418" y2="862" /><line stroke="rgb(10%,10%,16%)" x1="379" x2="461" y1="862" y2="945" /><line stroke="rgb(10%,10%,16%)" x1="461" x2="500" y1="945" y2="500" /><line stroke="rgb(10%,10%,16%)" x1="500" x2="418" y1="500" y2="408" /><line stroke="rgb(10%,10%,16%)" x1="418" x2="370" y1="408" y2="845" /><line stroke="rgb(10%,10%,16%)" x1="370" x2="451" y1="845" y2="937" /><line stroke="rgb(10%,10%,16%)" x1="451" x2="500" y1="937" y2="500" /><line stroke="rgb(10%,10%,16%)" x1="500" x2="420" y1="500" y2="399" /><line stroke="rgb(10%,10%,16%)" x1="420" x2="361" y1="399" y2="826" /><line stroke="rgb(10%,10%,16%)" x1="361" x2="441" y1="826" y2="928" /><line stroke="rgb(10%,10%,16%)" x1="441" x2="500" y1="928" y2="500" /><line stroke="rgb(10%,10%,16%)" x1="500" x2="422" y1="500" y2="390" /><line stroke="rgb(10%,10%,16%)" x1="422" x2="353" y1="390" y2="807" /><line stroke="rgb(10%,10%,16%)" x1="353" x2="431" y1="807" y2="918" /><line stroke="rgb(10%,10%,16%)" x1="431" x2="500" y1="918" y2="500" /><line stroke="rgb(10%,10%,16%)" x1="500" x2="424" y1="500" y2="382" /><line stroke="rgb(10%,10%,16%)" x1="424" x2="346" y1="382" y2="787" /><line stroke="rgb(10%,10%,16%)" x1="346" x2="421" y1="787" y2="906" /><line stroke="rgb(10%,10%,16%)" x1="421" x2="500" y1="906" y2="500" /><line stroke="rgb(10%,10%,16%)" x1="500" x2="426" y1="500" y2="373" /><line stroke="rgb(10%,10%,16%)" x1="426" x2="338" y1="373" y2="766" /><line stroke="rgb(10%,10%,16%)" x1="338" x2="412" y1="766" y2="894" /><line stroke="rgb(10%,10%,16%)" x1="412" x2="500" y1="894" y2="500" /><line stroke="rgb(10%,10%,16%)" x1="500" x2="429" y1="500" y2="365" /><line stroke="rgb(10%,10%,16%)" x1="429" x2="332" y1="365" y2="745" /><line stroke="rgb(10%,10%,16%)" x1="332" x2="402" y1="745" y2="880" /><line stroke="rgb(10%,10%,16%)" x1="402" x2="500" y1="880" y2="500" /><line stroke="rgb(10%,10%,16%)" x1="500" x2="432" y1="500" y2="358" /><line stroke="rgb(10%,10%,16%)" x1="432" x2="325" y1="358" y2="722" /><line stroke="rgb(10%,10%,16%)" x1="325" x2="393" y1="722" y2="865" /><line stroke="rgb(10%,10%,16%)" x1="393" x2="500" y1="865" y2="500" /><line stroke="rgb(10%,10%,16%)" x1="500" x2="435" y1="500" y2="350" /><line stroke="rgb(10%,10%,16%)" x1="435" x2="319" y1="350" y2="699" /><line stroke="rgb(10%,10%,16%)" x1="319" x2="384" y1="699" y2="850" /><line stroke="rgb(10%,10%,16%)" x1="384" x2="500" y1="850" y2="500" /><line stroke="rgb(10%,10%,16%)" x1="500" x2="438" y1="500" y2="344" /><line stroke="rgb(10%,10%,16%)" x1="438" x2="314" y1="344" y2="676" /><line stroke="rgb(10%,10%,16%)" x1="314" x2="376" y1="676" y2="833" /><line stroke="rgb(10%,10%,16%)" x1="376" x2="500" y1="833" y2="500" /><line stroke="rgb(10%,10%,16%)" x1="500" x2="441" y1="500" y2="337" /><line stroke="rgb(10%,10%,16%)" x1="441" x2="309" y1="337" y2="652" /><line stroke="rgb(10%,10%,16%)" x1="309" x2="368" y1="652" y2="815" /><line stroke="rgb(10%,10%,16%)" x1="368" x2="500" y1="815" y2="500" /><line stroke="rgb(10%,10%,16%)" x1="500" x2="444" y1="500" y2="331" /><line stroke="rgb(10%,10%,16%)" x1="444" x2="305" y1="331" y2="628" /><line stroke="rgb(10%,10%,16%)" x1="305" x2="360" y1="628" y2="797" /><line stroke="rgb(10%,10%,16%)" x1="360" x2="500" y1="797" y2="500" /><line stroke="rgb(10%,10%,16%)" x1="500" x2="448" y1="500" y2="326" /><line stroke="rgb(10%,10%,16%)" x1="448" x2="301" y1="326" y2="603" /><line stroke="rgb(10%,10%,16%)" x1="301" x2="353" y1="603" y2="778" /><line stroke="rgb(10%,10%,16%)" x1="353" x2="500" y1="778" y2="500" /><line stroke="rgb(10%,10%,16%)" x1="500" x2="452" y1="500" y2="321" /><line stroke="rgb(10%,10%,16%)" x1="452" x2="298" y1="321" y2="578" /><line stroke="rgb(10%,10%,16%)" x1="298" x2="346" y1="578" y2="758" /><line stroke="rgb(10%,10%,16%)" x1="346" x2="500" y1="758" y2="500" /><line stroke="rgb(10%,10%,16%)" x1="500" x2="455" y1="500" y2="316" /><line stroke="rgb(10%,10%,16%)" x1="455" x2="295" y1="316" y2="553" /><line stroke="rgb(10%,10%,16%)" x1="295" x2="339" y1="553" y2="737" /><line stroke="rgb(10%,10%,16%)" x1="339" x2="500" y1="737" y2="500" /><line stroke="rgb(10%,10%,16%)" x1="500" x2="459" y1="500" y2="312" /><line stroke="rgb(10%,10%,16%)" x1="459" x2="293" y1="312" y2="528" /><line stroke="rgb(10%,10%,16%)" x1="293" x2="333" y1="528" y2="716" /><line stroke="rgb(10%,10%,16%)" x1="333" x2="500" y1="716" y2="500" /><line stroke="rgb(10%,10%,16%)" x1="500" x2="463" y1="500" y2="309" /><line stroke="rgb(10%,10%,16%)" x1="463" x2="291" y1="309" y2="502" /><line stroke="rgb(10%,10%,16%)" x1="291" x2="327" y1="502" y2="694" /><line stroke="rgb(10%,10%,16%)" x1="327" x2="500" y1="694" y2="500" /><line stroke="rgb(10%,10%,16%)" x1="500" x2="468" y1="500" y2="306" /><line stroke="rgb(10%,10%,16%)" x1="468" x2="290" y1="306" y2="478" /><line stroke="rgb(10%,10%,16%)" x1="290" x2="322" y1="478" y2="671" /><line stroke="rgb(10%,10%,16%)" x1="322" x2="500" y1="671" y2="500" /><line stroke="rgb(10%,10%,16%)" x1="500" x2="472" y1="500" y2="303" /><line stroke="rgb(10%,10%,16%)" x1="472" x2="290" y1="303" y2="453" /><line stroke="rgb(10%,10%,16%)" x1="290" x2="317" y1="453" y2="649" /><line stroke="rgb(10%,10%,16%)" x1="317" x2="500" y1="649" y2="500" /><line stroke="rgb(10%,10%,16%)" x1="500" x2="476" y1="500" y2="302" /><line stroke="rgb(10%,10%,16%)" x1="476" x2="290" y1="302" y2="427" /><line stroke="rgb(10%,10%,16%)" x1="290" x2="313" y1="427" y2="625" /><line stroke="rgb(10%,10%,16%)" x1="313" x2="500" y1="625" y2="500" /><line stroke="rgb(10%,10%,16%)" x1="500" x2="481" y1="500" y2="300" /><line stroke="rgb(10%,10%,16%)" x1="481" x2="290" y1="300" y2="402" /><line stroke="rgb(10%,10%,16%)" x1="290" x2="309" y1="402" y2="602" /><line stroke="rgb(10%,10%,16%)" x1="309" x2="500" y1="602" y2="500" /><line stroke="rgb(10%,10%,16%)" x1="500" x2="485" y1="500" y2="299" /><line stroke="rgb(10%,10%,16%)" x1="485" x2="292" y1="299" y2="378" /><line stroke="rgb(10%,10%,16%)" x1="292" x2="306" y1="378" y2="578" /><line stroke="rgb(10%,10%,16%)" x1="306" x2="500" y1="578" y2="500" /><line stroke="rgb(10%,10%,16%)" x1="500" x2="489" y1="500" y2="299" /><line stroke="rgb(10%,10%,16%)" x1="489" x2="294" y1="299" y2="353" /><line stroke="rgb(10%,10%,16%)" x1="294" x2="304" y1="353" y2="554" /><line stroke="rgb(10%,10%,16%)" x1="304" x2="500" y1="554" y2="500" /><line stroke="rgb(10%,10%,16%)" x1="500" x2="494" y1="500" y2="299" /><line stroke="rgb(10%,10%,16%)" x1="494" x2="296" y1="299" y2="329" /><line stroke="rgb(10%,10%,16%)" x1="296" x2="301" y1="329" y2="529" /><line stroke="rgb(10%,10%,16%)" x1="301" x2="500" y1="529" y2="500" /><line stroke="rgb(10%,10%,16%)" x1="500" x2="498" y1="500" y2="300" /><line stroke="rgb(10%,10%,16%)" x1="498" x2="299" y1="300" y2="306" /><line stroke="rgb(10%,10%,16%)" x1="299" x2="300" y1="306" y2="505" /><line stroke="rgb(10%,10%,16%)" x1="300" x2="500" y1="505" y2="500" /><line stroke="rgb(10%,10%,16%)" x1="500" x2="503" y1="500" y2="302" /><line stroke="rgb(10%,10%,16%)" x1="503" x2="302" y1="302" y2="283" /><line stroke="rgb(10%,10%,16%)" x1="302" x2="299" y1="283" y2="482" /><line stroke="rgb(10%,10%,16%)" x1="299" x2="500" y1="482" y2="500" /><line stroke="rgb(10%,10%,16%)" x1="500" x2="508" y1="500" y2="304" /><line stroke="rgb(10%,10%,16%)" x1="508" x2="306" y1="304" y2="260" /><line stroke="rgb(10%,10%,16%)" x1="306" x2="298" y1="260" y2="457" /><line stroke="rgb(10%,10%,16%)" x1="298" x2="500" y1="457" y2="500" /><line stroke="rgb(10%,10%,16%)" x1="500" x2="512" y1="500" y2="306" /><line stroke="rgb(10%,10%,16%)" x1="512" x2="311" y1="306" y2="238" /><line stroke="rgb(10%,10%,16%)" x1="311" x2="298" y1="238" y2="433" /><line stroke="rgb(10%,10%,16%)" x1="298" x2="500" y1="433" y2="500" /><line stroke="rgb(10%,10%,16%)" x1="500" x2="516" y1="500" y2="309" /><line stroke="rgb(10%,10%,16%)" x1="516" x2="316" y1="309" y2="217" /><line stroke="rgb(10%,10%,16%)" x1="316" x2="299" y1="217" y2="409" /><line stroke="rgb(10%,10%,16%)" x1="299" x2="500" y1="409" y2="500" /><line stroke="rgb(10%,10%,16%)" x1="500" x2="521" y1="500" y2="312" /><line stroke="rgb(10%,10%,16%)" x1="521" x2="321" y1="312" y2="197" /><line stroke="rgb(10%,10%,16%)" x1="321" x2="300" y1="197" y2="385" /><line stroke="rgb(10%,10%,16%)" x1="300" x2="500" y1="385" y2="500" /><line stroke="rgb(10%,10%,16%)" x1="500" x2="525" y1="500" y2="316" /><line stroke="rgb(10%,10%,16%)" x1="525" x2="327" y1="316" y2="178" /><line stroke="rgb(10%,10%,16%)" x1="327" x2="302" y1="178" y2="362" /><line stroke="rgb(10%,10%,16%)" x1="302" x2="500" y1="362" y2="500" /><line stroke="rgb(10%,10%,16%)" x1="500" x2="530" y1="500" y2="321" /><line stroke="rgb(10%,10%,16%)" x1="530" x2="334" y1="321" y2="159" /><line stroke="rgb(10%,10%,16%)" x1="334" x2="304" y1="159" y2="339" /><line stroke="rgb(10%,10%,16%)" x1="304" x2="500" y1="339" y2="500" /><line stroke="rgb(10%,10%,16%)" x1="500" x2="534" y1="500" y2="326" /><line stroke="rgb(10%,10%,16%)" x1="534" x2="341" y1="326" y2="141" /><line stroke="rgb(10%,10%,16%)" x1="341" x2="307" y1="141" y2="316" /><line stroke="rgb(10%,10%,16%)" x1="307" x2="500" y1="316" y2="500" /><line stroke="rgb(10%,10%,16%)" x1="500" x2="538" y1="500" y2="331" /><line stroke="rgb(10%,10%,16%)" x1="538" x2="348" y1="331" y2="125" /><line stroke="rgb(10%,10%,16%)" x1="348" x2="310" y1="125" y2="294" /><line stroke="rgb(10%,10%,16%)" x1="310" x2="500" y1="294" y2="500" /><line stroke="rgb(10%,10%,16%)" x1="500" x2="542" y1="500" y2="337" /><line stroke="rgb(10%,10%,16%)" x1="542" x2="356" y1="337" y2="109" /><line stroke="rgb(10%,10%,16%)" x1="356" x2="314" y1="109" y2="272" /><line stroke="rgb(10%,10%,16%)" x1="314" x2="500" y1="272" y2="500" /><line stroke="rgb(10%,10%,16%)" x1="500" x2="546" y1="500" y2="344" /><line stroke="rgb(10%,10%,16%)" x1="546" x2="364" y1="344" y2="95" /><line stroke="rgb(10%,10%,16%)" x1="364" x2="318" y1="95" y2="251" /><line stroke="rgb(10%,10%,16%)" x1="318" x2="500" y1="251" y2="500" /><line stroke="rgb(10%,10%,16%)" x1="500" x2="550" y1="500" y2="351" /><line stroke="rgb(10%,10%,16%)" x1="550" x2="373" y1="351" y2="81" /><line stroke="rgb(10%,10%,16%)" x1="373" x2="323" y1="81" y2="231" /><line stroke="rgb(10%,10%,16%)" x1="323" x2="500" y1="231" y2="500" /><line stroke="rgb(10%,10%,16%)" x1="500" x2="553" y1="500" y2="358" /><line stroke="rgb(10%,10%,16%)" x1="553" x2="381" y1="358" y2="69" /><line stroke="rgb(10%,10%,16%)" x1="381" x2="328" y1="69" y2="211" /><line stroke="rgb(10%,10%,16%)" x1="328" x2="500" y1="211" y2="500" /><line stroke="rgb(10%,10%,16%)" x1="500" x2="557" y1="500" y2="365" /><line stroke="rgb(10%,10%,16%)" x1="557" x2="391" y1="365" y2="58" /><line stroke="rgb(10%,10%,16%)" x1="391" x2="334" y1="58" y2="193" /><line stroke="rgb(10%,10%,16%)" x1="334" x2="500" y1="193" y2="500" /><line stroke="rgb(10%,10%,16%)" x1="500" x2="560" y1="500" y2="373" /><line stroke="rgb(10%,10%,16%)" x1="560" x2="400" y1="373" y2="48" /><line stroke="rgb(10%,10%,16%)" x1="400" x2="340" y1="48" y2="175" /><line stroke="rgb(10%,10%,16%)" x1="340" x2="500" y1="175" y2="500" /><line stroke="rgb(10%,10%,16%)" x1="500" x2="563" y1="500" y2="382" /><line stroke="rgb(10%,10%,16%)" x1="563" x2="410" y1="382" y2="39" /><line stroke="rgb(10%,10%,16%)" x1="410" x2="346" y1="39" y2="158" /><line stroke="rgb(10%,10%,16%)" x1="346" x2="500" y1="158" y2="500" /><line stroke="rgb(10%,10%,16%)" x1="500" x2="566" y1="500" y2="390" /><line stroke="rgb(10%,10%,16%)" x1="566" x2="420" y1="390" y2="31" /><line stroke="rgb(10%,10%,16%)" x1="420" x2="353" y1="31" y2="142" /><line stroke="rgb(10%,10%,16%)" x1="353" x2="500" y1="142" y2="500" /><line stroke="rgb(10%,10%,16%)" x1="500" x2="569" y1="500" y2="399" /><line stroke="rgb(10%,10%,16%)" x1="569" x2="430" y1="399" y2="25" /><line stroke="rgb(10%,10%,16%)" x1="430" x2="361" y1="25" y2="127" /><line stroke="rgb(10%,10%,16%)" x1="361" x2="500" y1="127" y2="500" /><line stroke="rgb(10%,10%,16%)" x1="500" x2="572" y1="500" y2="408" /><line stroke="rgb(10%,10%,16%)" x1="572" x2="441" y1="408" y2="20" /><line stroke="rgb(10%,10%,16%)" x1="441" x2="369" y1="20" y2="112" /><line stroke="rgb(10%,10%,16%)" x1="369" x2="500" y1="112" y2="500" /><line stroke="rgb(10%,10%,16%)" x1="500" x2="574" y1="500" y2="418" /><line stroke="rgb(10%,10%,16%)" x1="574" x2="451" y1="418" y2="17" /><line stroke="rgb(10%,10%,16%)" x1="451" x2="377" y1="17" y2="99" /><line stroke="rgb(10%,10%,16%)" x1="377" x2="500" y1="99" y2="500" /><line stroke="rgb(10%,10%,16%)" x1="500" x2="576" y1="500" y2="428" /><line stroke="rgb(10%,10%,16%)" x1="576" x2="462" y1="428" y2="14" /><line stroke="rgb(10%,10%,16%)" x1="462" x2="385" y1="14" y2="87" /><line stroke="rgb(10%,10%,16%)" x1="385" x2="500" y1="87" y2="500" /><line stroke="rgb(10%,10%,16%)" x1="500" x2="578" y1="500" y2="437" /><line stroke="rgb(10%,10%,16%)" x1="578" x2="473" y1="437" y2="14" /><line stroke="rgb(10%,10%,16%)" x1="473" x2="394" y1="14" y2="77" /><line stroke="rgb(10%,10%,16%)" x1="394" x2="500" y1="77" y2="500" /><line stroke="rgb(10%,10%,16%)" x1="500" x2="580" y1="500" y2="448" /><line stroke="rgb(10%,10%,16%)" x1="580" x2="484" y1="448" y2="14" /><line stroke="rgb(10%,10%,16%)" x1="484" x2="403" y1="14" y2="67" /><line stroke="rgb(10%,10%,16%)" x1="403" x2="500" y1="67" y2="500" /><line stroke="rgb(10%,10%,16%)" x1="500" x2="582" y1="500" y2="458" /><line stroke="rgb(10%,10%,16%)" x1="582" x2="495" y1="458" y2="16" /><line stroke="rgb(10%,10%,16%)" x1="495" x2="413" y1="16" y2="58" /><line stroke="rgb(10%,10%,16%)" x1="413" x2="500" y1="58" y2="500" /><line stroke="rgb(10%,10%,16%)" x1="500" x2="583" y1="500" y2="468" /><line stroke="rgb(10%,10%,16%)" x1="583" x2="506" y1="468" y2="19" /><line stroke="rgb(10%,10%,16%)" x1="506" x2="422" y1="19" y2="51" /><line stroke="rgb(10%,10%,16%)" x1="422" x2="500" y1="51" y2="500" /><line stroke="rgb(10%,10%,16%)" x1="500" x2="584" y1="500" y2="478" /><line stroke="rgb(10%,10%,16%)" x1="584" x2="516" y1="478" y2="23" /><line stroke="rgb(10%,10%,16%)" x1="516" x2="432" y1="23" y2="45" /><line stroke="rgb(10%,10%,16%)" x1="432" x2="500" y1="45" y2="500" /><line stroke="rgb(10%,10%,16%)" x1="500" x2="585" y1="500" y2="489" /><line stroke="rgb(10%,10%,16%)" x1="585" x2="527" y1="489" y2="29" /><line stroke="rgb(10%,10%,16%)" x1="527" x2="442" y1="29" y2="40" /><line stroke="rgb(10%,10%,16%)" x1="442" x2="500" y1="40" y2="500" /><line stroke="rgb(10%,10%,16%)" x1="500" x2="586" y1="500" y2="499" /><line stroke="rgb(10%,10%,16%)" x1="586" x2="538" y1="499" y2="35" /><line stroke="rgb(10%,10%,16%)" x1="538" x2="452" y1="35" y2="37" /><line stroke="rgb(10%,10%,16%)" x1="452" x2="500" y1="37" y2="500" /><line stroke="rgb(10%,10%,16%)" x1="500" x2="586" y1="500" y2="509" /><line stroke="rgb(10%,10%,16%)" x1="586" x2="549" y1="509" y2="44" /><line stroke="rgb(10%,10%,16%)" x1="549" x2="462" y1="44" y2="34" /><line stroke="rgb(10%,10%,16%)" x1="462" x2="500" y1="34" y2="500" /><line stroke="rgb(10%,10%,16%)" x1="500" x2="586" y1="500" y2="519" /><line stroke="rgb(10%,10%,16%)" x1="586" x2="559" y1="519" y2="53" /><line stroke="rgb(10%,10%,16%)" x1="559" x2="473" y1="53" y2="33" /><line stroke="rgb(10%,10%,16%)" x1="473" x2="500" y1="33" y2="500" /><line stroke="rgb(10%,10%,16%)" x1="500" x2="586" y1="500" y2="530" /><line stroke="rgb(10%,10%,16%)" x1="586" x2="570" y1="530" y2="64" /><line stroke="rgb(10%,10%,16%)" x1="570" x2="483" y1="64" y2="33" /><line stroke="rgb(10%,10%,16%)" x1="483" x2="500" y1="33" y2="500" /><line stroke="rgb(10%,10%,16%)" x1="500" x2="586" y1="500" y2="540" /><line stroke="rgb(10%,10%,16%)" x1="586" x2="580" y1="540" y2="75" /><line stroke="rgb(10%,10%,16%)" x1="580" x2="494" y1="75" y2="35" /><line stroke="rgb(10%,10%,16%)" x1="494" x2="500" y1="35" y2="500" /><line stroke="rgb(10%,10%,16%)" x1="500" x2="585" y1="500" y2="550" /><line stroke="rgb(10%,10%,16%)" x1="585" x2="590" y1="550" y2="88" /><line stroke="rgb(10%,10%,16%)" x1="590" x2="504" y1="88" y2="38" /><line stroke="rgb(10%,10%,16%)" x1="504" x2="500" y1="38" y2="500" /><line stroke="rgb(10%,10%,16%)" x1="500" x2="585" y1="500" y2="560" /><line stroke="rgb(10%,10%,16%)" x1="585" x2="600" y1="560" y2="103" /><line stroke="rgb(10%,10%,16%)" x1="600" x2="515" y1="103" y2="42" /><line stroke="rgb(10%,10%,16%)" x1="515" x2="500" y1="42" y2="500" /><line stroke="rgb(10%,10%,16%)" x1="500" x2="584" y1="500" y2="570" /><line stroke="rgb(10%,10%,16%)" x1="584" x2="609" y1="570" y2="118" /><line stroke="rgb(10%,10%,16%)" x1="609" x2="525" y1="118" y2="47" /><line stroke="rgb(10%,10%,16%)" x1="525" x2="500" y1="47" y2="500" /><line stroke="rgb(10%,10%,16%)" x1="500" x2="582" y1="500" y2="580" /><line stroke="rgb(10%,10%,16%)" x1="582" x2="618" y1="580" y2="134" /><line stroke="rgb(10%,10%,16%)" x1="618" x2="535" y1="134" y2="53" /><line stroke="rgb(10%,10%,16%)" x1="535" x2="500" y1="53" y2="500" /><line stroke="rgb(10%,10%,16%)" x1="500" x2="581" y1="500" y2="590" /><line stroke="rgb(10%,10%,16%)" x1="581" x2="627" y1="590" y2="151" /><line stroke="rgb(10%,10%,16%)" x1="627" x2="546" y1="151" y2="61" /><line stroke="rgb(10%,10%,16%)" x1="546" x2="500" y1="61" y2="500" /><line stroke="rgb(10%,10%,16%)" x1="500" x2="579" y1="500" y2="599" /><line stroke="rgb(10%,10%,16%)" x1="579" x2="636" y1="599" y2="169" /><line stroke="rgb(10%,10%,16%)" x1="636" x2="556" y1="169" y2="70" /><line stroke="rgb(10%,10%,16%)" x1="556" x2="500" y1="70" y2="500" /><line stroke="rgb(10%,10%,16%)" x1="500" x2="578" y1="500" y2="608" /><line stroke="rgb(10%,10%,16%)" x1="578" x2="644" y1="608" y2="188" /><line stroke="rgb(10%,10%,16%)" x1="644" x2="566" y1="188" y2="80" /><line stroke="rgb(10%,10%,16%)" x1="566" x2="500" y1="80" y2="500" /><line stroke="rgb(10%,10%,16%)" x1="500" x2="575" y1="500" y2="617" /><line stroke="rgb(10%,10%,16%)" x1="575" x2="652" y1="617" y2="208" /><line stroke="rgb(10%,10%,16%)" x1="652" x2="576" y1="208" y2="91" /><line stroke="rgb(10%,10%,16%)" x1="576" x2="500" y1="91" y2="500" /><line stroke="rgb(10%,10%,16%)" x1="500" x2="573" y1="500" y2="625" /><line stroke="rgb(10%,10%,16%)" x1="573" x2="659" y1="625" y2="229" /><line stroke="rgb(10%,10%,16%)" x1="659" x2="585" y1="229" y2="104" /><line stroke="rgb(10%,10%,16%)" x1="585" x2="500" y1="104" y2="500" /><line stroke="rgb(10%,10%,16%)" x1="500" x2="571" y1="500" y2="633" /><line stroke="rgb(10%,10%,16%)" x1="571" x2="666" y1="633" y2="251" /><line stroke="rgb(10%,10%,16%)" x1="666" x2="595" y1="251" y2="117" /><line stroke="rgb(10%,10%,16%)" x1="595" x2="500" y1="117" y2="500" /><line stroke="rgb(10%,10%,16%)" x1="500" x2="568" y1="500" y2="641" /><line stroke="rgb(10%,10%,16%)" x1="568" x2="672" y1="641" y2="273" /><line stroke="rgb(10%,10%,16%)" x1="672" x2="604" y1="273" y2="131" /><line stroke="rgb(10%,10%,16%)" x1="604" x2="500" y1="131" y2="500" /><line stroke="rgb(10%,10%,16%)" x1="500" x2="565" y1="500" y2="648" /><line stroke="rgb(10%,10%,16%)" x1="565" x2="678" y1="648" y2="295" /><line stroke="rgb(10%,10%,16%)" x1="678" x2="613" y1="295" y2="147" /><line stroke="rgb(10%,10%,16%)" x1="613" x2="500" y1="147" y2="500" /><line stroke="rgb(10%,10%,16%)" x1="500" x2="562" y1="500" y2="655" /><line stroke="rgb(10%,10%,16%)" x1="562" x2="684" y1="655" y2="319" /><line stroke="rgb(10%,10%,16%)" x1="684" x2="621" y1="319" y2="163" /><line stroke="rgb(10%,10%,16%)" x1="621" x2="500" y1="163" y2="500" /><line stroke="rgb(10%,10%,16%)" x1="500" x2="559" y1="500" y2="661" /><line stroke="rgb(10%,10%,16%)" x1="559" x2="689" y1="661" y2="343" /><line stroke="rgb(10%,10%,16%)" x1="689" x2="629" y1="343" y2="181" /><line stroke="rgb(10%,10%,16%)" x1="629" x2="500" y1="181" y2="500" /><line stroke="rgb(10%,10%,16%)" x1="500" x2="555" y1="500" y2="667" /><line stroke="rgb(10%,10%,16%)" x1="555" x2="693" y1="667" y2="367" /><line stroke="rgb(10%,10%,16%)" x1="693" x2="637" y1="367" y2="199" /><line stroke="rgb(10%,10%,16%)" x1="637" x2="500" y1="199" y2="500" /><line stroke="rgb(10%,10%,16%)" x1="500" x2="552" y1="500" y2="673" /><line stroke="rgb(10%,10%,16%)" x1="552" x2="697" y1="673" y2="391" /><line stroke="rgb(10%,10%,16%)" x1="697" x2="645" y1="391" y2="218" /><line stroke="rgb(10%,10%,16%)" x1="645" x2="500" y1="218" y2="500" /><line stroke="rgb(10%,10%,16%)" x1="500" x2="548" y1="500" y2="678" /><line stroke="rgb(10%,10%,16%)" x1="548" x2="701" y1="678" y2="416" /><line stroke="rgb(10%,10%,16%)" x1="701" x2="652" y1="416" y2="238" /><line stroke="rgb(10%,10%,16%)" x1="652" x2="500" y1="238" y2="500" /><line stroke="rgb(10%,10%,16%)" x1="500" x2="544" y1="500" y2="683" /><line stroke="rgb(10%,10%,16%)" x1="544" x2="703" y1="683" y2="441" /><line stroke="rgb(10%,10%,16%)" x1="703" x2="658" y1="441" y2="258" /><line stroke="rgb(10%,10%,16%)" x1="658" x2="500" y1="258" y2="500" /><line stroke="rgb(10%,10%,16%)" x1="500" x2="541" y1="500" y2="687" /><line stroke="rgb(10%,10%,16%)" x1="541" x2="706" y1="687" y2="467" /><line stroke="rgb(10%,10%,16%)" x1="706" x2="665" y1="467" y2="279" /><line stroke="rgb(10%,10%,16%)" x1="665" x2="500" y1="279" y2="500" /><line stroke="rgb(10%,10%,16%)" x1="500" x2="536" y1="500" y2="690" /><line stroke="rgb(10%,10%,16%)" x1="536" x2="707" y1="690" y2="492" /><line stroke="rgb(10%,10%,16%)" x1="707" x2="670" y1="492" y2="301" /><line stroke="rgb(10%,10%,16%)" x1="670" x2="500" y1="301" y2="500" /><line stroke="rgb(10%,10%,16%)" x1="500" x2="532" y1="500" y2="693" /><line stroke="rgb(10%,10%,16%)" x1="532" x2="709" y1="693" y2="516" /><line stroke="rgb(10%,10%,16%)" x1="709" x2="676" y1="516" y2="324" /><line stroke="rgb(10%,10%,16%)" x1="676" x2="500" y1="324" y2="500" /><line stroke="rgb(10%,10%,16%)" x1="500" x2="528" y1="500" y2="696" /><line stroke="rgb(10%,10%,16%)" x1="528" x2="709" y1="696" y2="542" /><line stroke="rgb(10%,10%,16%)" x1="709" x2="681" y1="542" y2="346" /><line stroke="rgb(10%,10%,16%)" x1="681" x2="500" y1="346" y2="500" /><line stroke="rgb(10%,10%,16%)" x1="500" x2="524" y1="500" y2="698" /><line stroke="rgb(10%,10%,16%)" x1="524" x2="709" y1="698" y2="567" /><line stroke="rgb(10%,10%,16%)" x1="709" x2="685" y1="567" y2="370" /><line stroke="rgb(10%,10%,16%)" x1="685" x2="500" y1="370" y2="500" /><line stroke="rgb(10%,10%,16%)" x1="500" x2="519" y1="500" y2="700" /><line stroke="rgb(10%,10%,16%)" x1="519" x2="709" y1="700" y2="592" /><line stroke="rgb(10%,10%,16%)" x1="709" x2="689" y1="592" y2="393" /><line stroke="rgb(10%,10%,16%)" x1="689" x2="500" y1="393" y2="500" /><line stroke="rgb(10%,10%,16%)" x1="500" x2="515" y1="500" y2="700" /><line stroke="rgb(10%,10%,16%)" x1="515" x2="708" y1="700" y2="617" /><line stroke="rgb(10%,10%,16%)" x1="708" x2="692" y1="617" y2="417" /><line stroke="rgb(10%,10%,16%)" x1="692" x2="500" y1="417" y2="500" /><line stroke="rgb(10%,10%,16%)" x1="500" x2="511" y1="500" y2="701" /><line stroke="rgb(10%,10%,16%)" x1="511" x2="706" y1="701" y2="641" /><line stroke="rgb(10%,10%,16%)" x1="706" x2="695" y1="641" y2="441" /><line stroke="rgb(10%,10%,16%)" x1="695" x2="500" y1="441" y2="500" /><line stroke="rgb(10%,10%,16%)" x1="500" x2="506" y1="500" y2="701" /><line stroke="rgb(10%,10%,16%)" x1="506" x2="704" y1="701" y2="666" /><line stroke="rgb(10%,10%,16%)" x1="704" x2="697" y1="666" y2="465" /><line stroke="rgb(10%,10%,16%)" x1="697" x2="500" y1="465" y2="500" /><line stroke="rgb(10%,10%,16%)" x1="500" x2="502" y1="500" y2="700" /><line stroke="rgb(10%,10%,16%)" x1="502" x2="701" y1="700" y2="689" /><line stroke="rgb(10%,10%,16%)" x1="701" x2="699" y1="689" y2="490" /><line stroke="rgb(10%,10%,16%)" x1="699" x2="500" y1="490" y2="500" /></svg>