<?xml version="1.0" encoding="utf-8" ?>
<svg baseProfile="tiny" height="100%" version="1.2" width="100%" xmlns="http://www.w3.org/2000/svg" xmlns:ev="http://www.w3.org/2001/xml-events" xmlns:xlink="http://www.w3.org/1999/xlink"><defs /><line stroke="rgb(10%,10%,16%)" x1="507" x2="489" y1="526" y2="577" /><line stroke="rgb(10%,10%,16%)" x1="489" x2="540" y1="577" y2="596" /><line stroke="rgb(10%,10%,16%)" x1="540" x2="559" y1="596" y2="545" /><line stroke="rgb(10%,10%,16%)" x1="559" x2="507" y1="545" y2="526" /><line stroke="rgb(10%,10%,16%)" x1="506" x2="467" y1="556" y2="602" /><line stroke="rgb(10%,10%,16%)" x1="467" x2="513" y1="602" y2="641" /><line stroke="rgb(10%,10%,16%)" x1="513" x2="552" y1="641" y2="595" /><line stroke="rgb(10%,10%,16%)" x1="552" x2="506" y1="595" y2="556" /><line stroke="rgb(10%,10%,16%)" x1="493" x2="435" y1="587" y2="620" /><line stroke="rgb(10%,10%,16%)" x1="435" x2="468" y1="620" y2="678" /><line stroke="rgb(10%,10%,16%)" x1="468" x2="526" y1="678" y2="644" /><line stroke="rgb(10%,10%,16%)" x1="526" x2="493" y1="644" y2="587" /><line stroke="rgb(10%,10%,16%)" x1="468" x2="396" y1="613" y2="626" /><line stroke="rgb(10%,10%,16%)" x1="396" x2="408" y1="626" y2="698" /><line stroke="rgb(10%,10%,16%)" x1="408" x2="480" y1="698" y2="685" /><line stroke="rgb(10%,10%,16%)" x1="480" x2="468" y1="685" y2="613" /><line stroke="rgb(10%,10%,16%)" x1="432" x2="353" y1="632" y2="618" /><line stroke="rgb(10%,10%,16%)" x1="353" x2="339" y1="618" y2="697" /><line stroke="rgb(10%,10%,16%)" x1="339" x2="418" y1="697" y2="711" /><line stroke="rgb(10%,10%,16%)" x1="418" x2="432" y1="711" y2="632" /><line stroke="rgb(10%,10%,16%)" x1="388" x2="311" y1="637" y2="593" /><line stroke="rgb(10%,10%,16%)" x1="311" x2="267" y1="593" y2="669" /><line stroke="rgb(10%,10%,16%)" x1="267" x2="344" y1="669" y2="714" /><line stroke="rgb(10%,10%,16%)" x1="344" x2="388" y1="714" y2="637" /><line stroke="rgb(10%,10%,16%)" x1="340" x2="278" y1="626" y2="551" /><line stroke="rgb(10%,10%,16%)" x1="278" x2="203" y1="551" y2="614" /><line stroke="rgb(10%,10%,16%)" x1="203" x2="266" y1="614" y2="688" /><line stroke="rgb(10%,10%,16%)" x1="266" x2="340" y1="688" y2="626" /><line stroke="rgb(10%,10%,16%)" x1="296" x2="259" y1="596" y2="497" /><line stroke="rgb(10%,10%,16%)" x1="259" x2="158" y1="497" y2="532" /><line stroke="rgb(10%,10%,16%)" x1="158" x2="195" y1="532" y2="633" /><line stroke="rgb(10%,10%,16%)" x1="195" x2="296" y1="633" y2="596" /><line stroke="rgb(10%,10%,16%)" x1="260" x2="260" y1="549" y2="432" /><line stroke="rgb(10%,10%,16%)" x1="260" x2="142" y1="432" y2="432" /><line stroke="rgb(10%,10%,16%)" x1="142" x2="142" y1="432" y2="549" /><line stroke="rgb(10%,10%,16%)" x1="142" x2="260" y1="549" y2="549" /><line stroke="rgb(10%,10%,16%)" x1="241" x2="286" y1="488" y2="366" /><line stroke="rgb(10%,10%,16%)" x1="286" x2="164" y1="366" y2="322" /><line stroke="rgb(10%,10%,16%)" x1="164" x2="119" y1="322" y2="444" /><line stroke="rgb(10%,10%,16%)" x1="119" x2="241" y1="444" y2="488" /><line stroke="rgb(10%,10%,16%)" x1="245" x2="337" y1="417" y2="308" /><line stroke="rgb(10%,10%,16%)" x1="337" x2="228" y1="308" y2="216" /><line stroke="rgb(10%,10%,16%)" x1="228" x2="136" y1="216" y2="325" /><line stroke="rgb(10%,10%,16%)" x1="136" x2="245" y1="325" y2="417" /><line stroke="rgb(10%,10%,16%)" x1="276" x2="412" y1="345" y2="266" /><line stroke="rgb(10%,10%,16%)" x1="412" x2="333" y1="266" y2="131" /><line stroke="rgb(10%,10%,16%)" x1="333" x2="198" y1="131" y2="209" /><line stroke="rgb(10%,10%,16%)" x1="198" x2="276" y1="209" y2="345" /><line stroke="rgb(10%,10%,16%)" x1="335" x2="505" y1="282" y2="252" /><line stroke="rgb(10%,10%,16%)" x1="505" x2="475" y1="252" y2="82" /><line stroke="rgb(10%,10%,16%)" x1="475" x2="305" y1="82" y2="112" /><line stroke="rgb(10%,10%,16%)" x1="305" x2="335" y1="112" y2="282" /><line stroke="rgb(10%,10%,16%)" x1="420" x2="607" y1="239" y2="272" /><line stroke="rgb(10%,10%,16%)" x1="607" x2="640" y1="272" y2="85" /><line stroke="rgb(10%,10%,16%)" x1="640" x2="453" y1="85" y2="52" /><line stroke="rgb(10%,10%,16%)" x1="453" x2="420" y1="52" y2="239" /><line stroke="rgb(10%,10%,16%)" x1="523" x2="704" y1="226" y2="331" /><line stroke="rgb(10%,10%,16%)" x1="704" x2="809" y1="331" y2="150" /><line stroke="rgb(10%,10%,16%)" x1="809" x2="628" y1="150" y2="46" /><line stroke="rgb(10%,10%,16%)" x1="628" x2="523" y1="46" y2="226" /></svg>