<?xml version="1.0" encoding="utf-8" ?>
<svg baseProfile="full" height="100%" version="1.1" width="100%" xmlns="http://www.w3.org/2000/svg" xmlns:ev="http://www.w3.org/2001/xml-events" xmlns:xlink="http://www.w3.org/1999/xlink"><defs /><rect fill="rgb(0, 86, 216)" height="10" stroke="black" width="10" x="145" y="0" /><rect fill="rgb(0, 86, 216)" height="10" stroke="black" width="10" x="140" y="10" /><rect fill="rgb(0, 86, 216)" height="10" stroke="black" width="10" x="150" y="10" /><rect fill="rgb(0, 86, 216)" height="10" stroke="black" width="10" x="135" y="20" /><rect fill="rgb(173, 0, 216)" height="10" stroke="black" width="10" x="145" y="20" /><rect fill="rgb(0, 86, 216)" height="10" stroke="black" width="10" x="155" y="20" /><rect fill="rgb(0, 86, 216)" height="10" stroke="black" width="10" x="130" y="30" /><rect fill="rgb(216, 0, 0)" height="10" stroke="black" width="10" x="140" y="30" /><rect fill="rgb(216, 0, 0)" height="10" stroke="black" width="10" x="150" y="30" /><rect fill="rgb(0, 86, 216)" height="10" stroke="black" width="10" x="160" y="30" /><rect fill="rgb(0, 86, 216)" height="10" stroke="black" width="10" x="125" y="40" /><rect fill="rgb(173, 216, 0)" height="10" stroke="black" width="10" x="135" y="40" /><rect fill="rgb(0, 86, 216)" height="10" stroke="black" width="10" x="145" y="40" /><rect fill="rgb(173, 216, 0)" height="10" stroke="black" width="10" x="155" y="40" /><rect fill="rgb(0, 86, 216)" height="10" stroke="black" width="10" x="165" y="40" /><rect fill="rgb(0, 86, 216)" height="10" stroke="black" width="10" x="120" y="50" /><rect fill="rgb(0, 216, 86)" height="10" stroke="black" width="10" x="130" y="50" /><rect fill="rgb(0, 216, 86)" height="10" stroke="black" width="10" x="140" y="50" /><rect fill="rgb(0, 216, 86)" height="10" stroke="black" width="10" x="150" y="50" /><rect fill="rgb(0, 216, 86)" height="10" stroke="black" width="10" x="160" y="50" /><rect fill="rgb(0, 86, 216)" height="10" stroke="black" width="10" x="170" y="50" /><rect fill="rgb(0, 86, 216)" height="10" stroke="black" width="10" x="115" y="60" /><rect fill="rgb(0, 86, 216)" height="10" stroke="black" width="10" x="125" y="60" /><rect fill="rgb(0, 216, 86)" height="10" stroke="black" width="10" x="135" y="60" /><rect fill="rgb(0, 216, 86)" height="10" stroke="black" width="10" x="145" y="60" /><rect fill="rgb(0, 216, 86)" height="10" stroke="black" width="10" x="155" y="60" /><rect fill="rgb(0, 86, 216)" height="10" stroke="black" width="10" x="165" y="60" /><rect fill="rgb(0, 86, 216)" height="10" stroke="black" width="10" x="175" y="60" /><rect fill="rgb(0, 86, 216)" height="10" stroke="black" width="10" x="110" y="70" /><rect fill="rgb(173, 0, 216)" height="10" stroke="black" width="10" x="120" y="70" /><rect fill="rgb(0, 86, 216)" height="10" stroke="black" width="10" x="130" y="70" /><rect fill="rgb(0, 216, 86)" height="10" stroke="black" width="10" x="140" y="70" /><rect fill="rgb(0, 216, 86)" height="10" stroke="black" width="10" x="150" y="70" /><rect fill="rgb(0, 86, 216)" height="10" stroke="black" width="10" x="160" y="70" /><rect fill="rgb(173, 0, 216)" height="10" stroke="black" width="10" x="170" y="70" /><rect fill="rgb(0, 86, 216)" height="10" stroke="black" width="10" x="180" y="70" /><rect fill="rgb(0, 86, 216)" height="10" stroke="black" width="10" x="105" y="80" /><rect fill="rgb(216, 0, 0)" height="10" stroke="black" width="10" x="115" y="80" /><rect fill="rgb(216, 0, 0)" height="10" stroke="black" width="10" x="125" y="80" /><rect fill="rgb(0, 86, 216)" height="10" stroke="black" width="10" x="135" y="80" /><rect fill="rgb(0, 216, 86)" height="10" stroke="black" width="10" x="145" y="80" /><rect fill="rgb(0, 86, 216)" height="10" stroke="black" width="10" x="155" y="80" /><rect fill="rgb(216, 0, 0)" height="10" stroke="black" width="10" x="165" y="80" /><rect fill="rgb(216, 0, 0)" height="10" stroke="black" width="10" x="175" y="80" /><rect fill="rgb(0, 86, 216)" height="10" stroke="black" width="10" x="185" y="80" /><rect fill="rgb(0, 86, 216)" height="10" stroke="black" width="10" x="100" y="90" /><rect fill="rgb(173, 216, 0)" height="10" stroke="black" width="10" x="110" y="90" /><rect fill="rgb(0, 86, 216)" height="10" stroke="black" width="10" x="120" y="90" /><rect fill="rgb(173, 216, 0)" height="10" stroke="black" width="10" x="130" y="90" /><rect fill="rgb(0, 86, 216)" height="10" stroke="black" width="10" x="140" y="90" /><rect fill="rgb(0, 86, 216)" height="10" stroke="black" width="10" x="150" y="90" /><rect fill="rgb(173, 216, 0)" height="10" stroke="black" width="10" x="160" y="90" /><rect fill="rgb(0, 86, 216)" height="10" stroke="black" width="10" x="170" y="90" /><rect fill="rgb(173, 216, 0)" height="10" stroke="black" width="10" x="180" y="90" /><rect fill="rgb(0, 86, 216)" height="10" stroke="black" width="10" x="190" y="90" /><rect fill="rgb(0, 86, 216)" height="10" stroke="black" width="10" x="95" y="100" /><rect fill="rgb(0, 216, 86)" height="10" stroke="black" width="10" x="105" y="100" /><rect fill="rgb(0, 216, 86)" height="10" stroke="black" width="10" x="115" y="100" /><rect fill="rgb(0, 216, 86)" height="10" stroke="black" width="10" x="125" y="100" /><rect fill="rgb(0, 216, 86)" height="10" stroke="black" width="10" x="135" y="100" /><rect fill="rgb(173, 0, 216)" height="10" stroke="black" width="10" x="145" y="100" /><rect fill="rgb(0, 216, 86)" height="10" stroke="black" width="10" x="155" y="100" /><rect fill="rgb(0, 216, 86)" height="10" stroke="black" width="10" x="165" y="100" /><rect fill="rgb(0, 216, 86)" height="10" stroke="black" width="10" x="175" y="100" /><rect fill="rgb(0, 216, 86)" height="10" stroke="black" width="10" x="185" y="100" /><rect fill="rgb(0, 86, 216)" height="10" stroke="black" width="10" x="195" y="100" /><rect fill="rgb(0, 86, 216)" height="10" stroke="black" width="10" x="90" y="110" /><rect fill="rgb(0, 86, 216)" height="10" stroke="black" width="10" x="100" y="110" /><rect fill="rgb(0, 216, 86)" height="10" stroke="black" width="10" x="110" y="110" /><rect fill="rgb(0, 216, 86)" height="10" stroke="black" width="10" x="120" y="110" /><rect fill="rgb(0, 216, 86)" height="10" stroke="black" width="10" x="130" y="110" /><rect fill="rgb(173, 0, 216)" height="10" stroke="black" width="10" x="140" y="110" /><rect fill="rgb(173, 0, 216)" height="10" stroke="black" width="10" x="150" y="110" /><rect fill="rgb(0, 216, 86)" height="10" stroke="black" width="10" x="160" y="110" /><rect fill="rgb(0, 216, 86)" height="10" stroke="black" width="10" x="170" y="110" /><rect fill="rgb(0, 216, 86)" height="10" stroke="black" width="10" x="180" y="110" /><rect fill="rgb(0, 86, 216)" height="10" stroke="black" width="10" x="190" y="110" /><rect fill="rgb(0, 86, 216)" height="10" stroke="black" width="10" x="200" y="110" /><rect fill="rgb(0, 86, 216)" height="10" stroke="black" width="10" x="85" y="120" /><rect fill="rgb(173, 0, 216)" height="10" stroke="black" width="10" x="95" y="120" /><rect fill="rgb(0, 86, 216)" height="10" stroke="black" width="10" x="105" y="120" /><rect fill="rgb(0, 216, 86)" height="10" stroke="black" width="10" x="115" y="120" /><rect fill="rgb(0, 216, 86)" height="10" stroke="black" width="10" x="125" y="120" /><rect fill="rgb(173, 0, 216)" height="10" stroke="black" width="10" x="135" y="120" /><rect fill="rgb(173, 216, 0)" height="10" stroke="black" width="10" x="145" y="120" /><rect fill="rgb(173, 0, 216)" height="10" stroke="black" width="10" x="155" y="120" /><rect fill="rgb(0, 216, 86)" height="10" stroke="black" width="10" x="165" y="120" /><rect fill="rgb(0, 216, 86)" height="10" stroke="black" width="10" x="175" y="120" /><rect fill="rgb(0, 86, 216)" height="10" stroke="black" width="10" x="185" y="120" /><rect fill="rgb(173, 0, 216)" height="10" stroke="black" width="10" x="195" y="120" /><rect fill="rgb(0, 86, 216)" height="10" stroke="black" width="10" x="205" y="120" /><rect fill="rgb(0, 86, 216)" height="10" stroke="black" width="10" x="80" y="130" /><rect fill="rgb(216, 0, 0)" height="10" stroke="black" width="10" x="90" y="130" /><rect fill="rgb(216, 0, 0)" height="10" stroke="black" width="10" x="100" y="130" /><rect fill="rgb(0, 86, 216)" height="10" stroke="black" width="10" x="110" y="130" /><rect fill="rgb(0, 216, 86)" height="10" stroke="black" width="10" x="120" y="130" /><rect fill="rgb(173, 0, 216)" height="10" stroke="black" width="10" x="130" y="130" /><rect fill="rgb(0, 86, 216)" height="10" stroke="black" width="10" x="140" y="130" /><rect fill="rgb(0, 86, 216)" height="10" stroke="black" width="10" x="150" y="130" /><rect fill="rgb(173, 0, 216)" height="10" stroke="black" width="10" x="160" y="130" /><rect fill="rgb(0, 216, 86)" height="10" stroke="black" width="10" x="170" y="130" /><rect fill="rgb(0, 86, 216)" height="10" stroke="black" width="10" x="180" y="130" /><rect fill="rgb(216, 0, 0)" height="10" stroke="black" width="10" x="190" y="130" /><rect fill="rgb(216, 0, 0)" height="10" stroke="black" width="10" x="200" y="130" /><rect fill="rgb(0, 86, 216)" height="10" stroke="black" width="10" x="210" y="130" /><rect fill="rgb(0, 86, 216)" height="10" stroke="black" width="10" x="75" y="140" /><rect fill="rgb(173, 216, 0)" height="10" stroke="black" width="10" x="85" y="140" /><rect fill="rgb(0, 86, 216)" height="10" stroke="black" width="10" x="95" y="140" /><rect fill="rgb(173, 216, 0)" height="10" stroke="black" width="10" x="105" y="140" /><rect fill="rgb(0, 86, 216)" height="10" stroke="black" width="10" x="115" y="140" /><rect fill="rgb(173, 0, 216)" height="10" stroke="black" width="10" x="125" y="140" /><rect fill="rgb(216, 0, 0)" height="10" stroke="black" width="10" x="135" y="140" /><rect fill="rgb(173, 0, 216)" height="10" stroke="black" width="10" x="145" y="140" /><rect fill="rgb(216, 0, 0)" height="10" stroke="black" width="10" x="155" y="140" /><rect fill="rgb(173, 0, 216)" height="10" stroke="black" width="10" x="165" y="140" /><rect fill="rgb(0, 86, 216)" height="10" stroke="black" width="10" x="175" y="140" /><rect fill="rgb(173, 216, 0)" height="10" stroke="black" width="10" x="185" y="140" /><rect fill="rgb(0, 86, 216)" height="10" stroke="black" width="10" x="195" y="140" /><rect fill="rgb(173, 216, 0)" height="10" stroke="black" width="10" x="205" y="140" /><rect fill="rgb(0, 86, 216)" height="10" stroke="black" width="10" x="215" y="140" /><rect fill="rgb(0, 86, 216)" height="10" stroke="black" width="10" x="70" y="150" /><rect fill="rgb(0, 216, 86)" height="10" stroke="black" width="10" x="80" y="150" /><rect fill="rgb(0, 216, 86)" height="10" stroke="black" width="10" x="90" y="150" /><rect fill="rgb(0, 216, 86)" height="10" stroke="black" width="10" x="100" y="150" /><rect fill="rgb(0, 216, 86)" height="10" stroke="black" width="10" x="110" y="150" /><rect fill="rgb(216, 0, 0)" height="10" stroke="black" width="10" x="120" y="150" /><rect fill="rgb(0, 216, 86)" height="10" stroke="black" width="10" x="130" y="150" /><rect fill="rgb(0, 216, 86)" height="10" stroke="black" width="10" x="140" y="150" /><rect fill="rgb(0, 216, 86)" height="10" stroke="black" width="10" x="150" y="150" /><rect fill="rgb(0, 216, 86)" height="10" stroke="black" width="10" x="160" y="150" /><rect fill="rgb(216, 0, 0)" height="10" stroke="black" width="10" x="170" y="150" /><rect fill="rgb(0, 216, 86)" height="10" stroke="black" width="10" x="180" y="150" /><rect fill="rgb(0, 216, 86)" height="10" stroke="black" width="10" x="190" y="150" /><rect fill="rgb(0, 216, 86)" height="10" stroke="black" width="10" x="200" y="150" /><rect fill="rgb(0, 216, 86)" height="10" stroke="black" width="10" x="210" y="150" /><rect fill="rgb(0, 86, 216)" height="10" stroke="black" width="10" x="220" y="150" /><rect fill="rgb(0, 86, 216)" height="10" stroke="black" width="10" x="65" y="160" /><rect fill="rgb(0, 86, 216)" height="10" stroke="black" width="10" x="75" y="160" /><rect fill="rgb(0, 216, 86)" height="10" stroke="black" width="10" x="85" y="160" /><rect fill="rgb(0, 216, 86)" height="10" stroke="black" width="10" x="95" y="160" /><rect fill="rgb(0, 216, 86)" height="10" stroke="black" width="10" x="105" y="160" /><rect fill="rgb(216, 0, 0)" height="10" stroke="black" width="10" x="115" y="160" /><rect fill="rgb(216, 0, 0)" height="10" stroke="black" width="10" x="125" y="160" /><rect fill="rgb(0, 216, 86)" height="10" stroke="black" width="10" x="135" y="160" /><rect fill="rgb(0, 216, 86)" height="10" stroke="black" width="10" x="145" y="160" /><rect fill="rgb(0, 216, 86)" height="10" stroke="black" width="10" x="155" y="160" /><rect fill="rgb(216, 0, 0)" height="10" stroke="black" width="10" x="165" y="160" /><rect fill="rgb(216, 0, 0)" height="10" stroke="black" width="10" x="175" y="160" /><rect fill="rgb(0, 216, 86)" height="10" stroke="black" width="10" x="185" y="160" /><rect fill="rgb(0, 216, 86)" height="10" stroke="black" width="10" x="195" y="160" /><rect fill="rgb(0, 216, 86)" height="10" stroke="black" width="10" x="205" y="160" /><rect fill="rgb(0, 86, 216)" height="10" stroke="black" width="10" x="215" y="160" /><rect fill="rgb(0, 86, 216)" height="10" stroke="black" width="10" x="225" y="160" /><rect fill="rgb(0, 86, 216)" height="10" stroke="black" width="10" x="60" y="170" /><rect fill="rgb(173, 0, 216)" height="10" stroke="black" width="10" x="70" y="170" /><rect fill="rgb(0, 86, 216)" height="10" stroke="black" width="10" x="80" y="170" /><rect fill="rgb(0, 216, 86)" height="10" stroke="black" width="10" x="90" y="170" /><rect fill="rgb(0, 216, 86)" height="10" stroke="black" width="10" x="100" y="170" /><rect fill="rgb(216, 0, 0)" height="10" stroke="black" width="10" x="110" y="170" /><rect fill="rgb(0, 86, 216)" height="10" stroke="black" width="10" x="120" y="170" /><rect fill="rgb(216, 0, 0)" height="10" stroke="black" width="10" x="130" y="170" /><rect fill="rgb(0, 216, 86)" height="10" stroke="black" width="10" x="140" y="170" /><rect fill="rgb(0, 216, 86)" height="10" stroke="black" width="10" x="150" y="170" /><rect fill="rgb(216, 0, 0)" height="10" stroke="black" width="10" x="160" y="170" /><rect fill="rgb(0, 86, 216)" height="10" stroke="black" width="10" x="170" y="170" /><rect fill="rgb(216, 0, 0)" height="10" stroke="black" width="10" x="180" y="170" /><rect fill="rgb(0, 216, 86)" height="10" stroke="black" width="10" x="190" y="170" /><rect fill="rgb(0, 216, 86)" height="10" stroke="black" width="10" x="200" y="170" /><rect fill="rgb(0, 86, 216)" height="10" stroke="black" width="10" x="210" y="170" /><rect fill="rgb(173, 0, 216)" height="10" stroke="black" width="10" x="220" y="170" /><rect fill="rgb(0, 86, 216)" height="10" stroke="black" width="10" x="230" y="170" /><rect fill="rgb(0, 86, 216)" height="10" stroke="black" width="10" x="55" y="180" /><rect fill="rgb(216, 0, 0)" height="10" stroke="black" width="10" x="65" y="180" /><rect fill="rgb(216, 0, 0)" height="10" stroke="black" width="10" x="75" y="180" /><rect fill="rgb(0, 86, 216)" height="10" stroke="black" width="10" x="85" y="180" /><rect fill="rgb(0, 216, 86)" height="10" stroke="black" width="10" x="95" y="180" /><rect fill="rgb(216, 0, 0)" height="10" stroke="black" width="10" x="105" y="180" /><rect fill="rgb(173, 216, 0)" height="10" stroke="black" width="10" x="115" y="180" /><rect fill="rgb(173, 216, 0)" height="10" stroke="black" width="10" x="125" y="180" /><rect fill="rgb(216, 0, 0)" height="10" stroke="black" width="10" x="135" y="180" /><rect fill="rgb(0, 216, 86)" height="10" stroke="black" width="10" x="145" y="180" /><rect fill="rgb(216, 0, 0)" height="10" stroke="black" width="10" x="155" y="180" /><rect fill="rgb(173, 216, 0)" height="10" stroke="black" width="10" x="165" y="180" /><rect fill="rgb(173, 216, 0)" height="10" stroke="black" width="10" x="175" y="180" /><rect fill="rgb(216, 0, 0)" height="10" stroke="black" width="10" x="185" y="180" /><rect fill="rgb(0, 216, 86)" height="10" stroke="black" width="10" x="195" y="180" /><rect fill="rgb(0, 86, 216)" height="10" stroke="black" width="10" x="205" y="180" /><rect fill="rgb(216, 0, 0)" height="10" stroke="black" width="10" x="215" y="180" /><rect fill="rgb(216, 0, 0)" height="10" stroke="black" width="10" x="225" y="180" /><rect fill="rgb(0, 86, 216)" height="10" stroke="black" width="10" x="235" y="180" /><rect fill="rgb(0, 86, 216)" height="10" stroke="black" width="10" x="50" y="190" /><rect fill="rgb(173, 216, 0)" height="10" stroke="black" width="10" x="60" y="190" /><rect fill="rgb(0, 86, 216)" height="10" stroke="black" width="10" x="70" y="190" /><rect fill="rgb(173, 216, 0)" height="10" stroke="black" width="10" x="80" y="190" /><rect fill="rgb(0, 86, 216)" height="10" stroke="black" width="10" x="90" y="190" /><rect fill="rgb(216, 0, 0)" height="10" stroke="black" width="10" x="100" y="190" /><rect fill="rgb(173, 0, 216)" height="10" stroke="black" width="10" x="110" y="190" /><rect fill="rgb(216, 0, 0)" height="10" stroke="black" width="10" x="120" y="190" /><rect fill="rgb(173, 0, 216)" height="10" stroke="black" width="10" x="130" y="190" /><rect fill="rgb(216, 0, 0)" height="10" stroke="black" width="10" x="140" y="190" /><rect fill="rgb(216, 0, 0)" height="10" stroke="black" width="10" x="150" y="190" /><rect fill="rgb(173, 0, 216)" height="10" stroke="black" width="10" x="160" y="190" /><rect fill="rgb(216, 0, 0)" height="10" stroke="black" width="10" x="170" y="190" /><rect fill="rgb(173, 0, 216)" height="10" stroke="black" width="10" x="180" y="190" /><rect fill="rgb(216, 0, 0)" height="10" stroke="black" width="10" x="190" y="190" /><rect fill="rgb(0, 86, 216)" height="10" stroke="black" width="10" x="200" y="190" /><rect fill="rgb(173, 216, 0)" height="10" stroke="black" width="10" x="210" y="190" /><rect fill="rgb(0, 86, 216)" height="10" stroke="black" width="10" x="220" y="190" /><rect fill="rgb(173, 216, 0)" height="10" stroke="black" width="10" x="230" y="190" /><rect fill="rgb(0, 86, 216)" height="10" stroke="black" width="10" x="240" y="190" /><rect fill="rgb(0, 86, 216)" height="10" stroke="black" width="10" x="45" y="200" /><rect fill="rgb(0, 216, 86)" height="10" stroke="black" width="10" x="55" y="200" /><rect fill="rgb(0, 216, 86)" height="10" stroke="black" width="10" x="65" y="200" /><rect fill="rgb(0, 216, 86)" height="10" stroke="black" width="10" x="75" y="200" /><rect fill="rgb(0, 216, 86)" height="10" stroke="black" width="10" x="85" y="200" /><rect fill="rgb(173, 216, 0)" height="10" stroke="black" width="10" x="95" y="200" /><rect fill="rgb(0, 216, 86)" height="10" stroke="black" width="10" x="105" y="200" /><rect fill="rgb(0, 216, 86)" height="10" stroke="black" width="10" x="115" y="200" /><rect fill="rgb(0, 216, 86)" height="10" stroke="black" width="10" x="125" y="200" /><rect fill="rgb(0, 216, 86)" height="10" stroke="black" width="10" x="135" y="200" /><rect fill="rgb(0, 86, 216)" height="10" stroke="black" width="10" x="145" y="200" /><rect fill="rgb(0, 216, 86)" height="10" stroke="black" width="10" x="155" y="200" /><rect fill="rgb(0, 216, 86)" height="10" stroke="black" width="10" x="165" y="200" /><rect fill="rgb(0, 216, 86)" height="10" stroke="black" width="10" x="175" y="200" /><rect fill="rgb(0, 216, 86)" height="10" stroke="black" width="10" x="185" y="200" /><rect fill="rgb(173, 216, 0)" height="10" stroke="black" width="10" x="195" y="200" /><rect fill="rgb(0, 216, 86)" height="10" stroke="black" width="10" x="205" y="200" /><rect fill="rgb(0, 216, 86)" height="10" stroke="black" width="10" x="215" y="200" /><rect fill="rgb(0, 216, 86)" height="10" stroke="black" width="10" x="225" y="200" /><rect fill="rgb(0, 216, 86)" height="10" stroke="black" width="10" x="235" y="200" /><rect fill="rgb(0, 86, 216)" height="10" stroke="black" width="10" x="245" y="200" /><rect fill="rgb(0, 86, 216)" height="10" stroke="black" width="10" x="40" y="210" /><rect fill="rgb(0, 86, 216)" height="10" stroke="black" width="10" x="50" y="210" /><rect fill="rgb(0, 216, 86)" height="10" stroke="black" width="10" x="60" y="210" /><rect fill="rgb(0, 216, 86)" height="10" stroke="black" width="10" x="70" y="210" /><rect fill="rgb(0, 216, 86)" height="10" stroke="black" width="10" x="80" y="210" /><rect fill="rgb(173, 216, 0)" height="10" stroke="black" width="10" x="90" y="210" /><rect fill="rgb(173, 216, 0)" height="10" stroke="black" width="10" x="100" y="210" /><rect fill="rgb(0, 216, 86)" height="10" stroke="black" width="10" x="110" y="210" /><rect fill="rgb(0, 216, 86)" height="10" stroke="black" width="10" x="120" y="210" /><rect fill="rgb(0, 216, 86)" height="10" stroke="black" width="10" x="130" y="210" /><rect fill="rgb(0, 86, 216)" height="10" stroke="black" width="10" x="140" y="210" /><rect fill="rgb(0, 86, 216)" height="10" stroke="black" width="10" x="150" y="210" /><rect fill="rgb(0, 216, 86)" height="10" stroke="black" width="10" x="160" y="210" /><rect fill="rgb(0, 216, 86)" height="10" stroke="black" width="10" x="170" y="210" /><rect fill="rgb(0, 216, 86)" height="10" stroke="black" width="10" x="180" y="210" /><rect fill="rgb(173, 216, 0)" height="10" stroke="black" width="10" x="190" y="210" /><rect fill="rgb(173, 216, 0)" height="10" stroke="black" width="10" x="200" y="210" /><rect fill="rgb(0, 216, 86)" height="10" stroke="black" width="10" x="210" y="210" /><rect fill="rgb(0, 216, 86)" height="10" stroke="black" width="10" x="220" y="210" /><rect fill="rgb(0, 216, 86)" height="10" stroke="black" width="10" x="230" y="210" /><rect fill="rgb(0, 86, 216)" height="10" stroke="black" width="10" x="240" y="210" /><rect fill="rgb(0, 86, 216)" height="10" stroke="black" width="10" x="250" y="210" /><rect fill="rgb(0, 86, 216)" height="10" stroke="black" width="10" x="35" y="220" /><rect fill="rgb(173, 0, 216)" height="10" stroke="black" width="10" x="45" y="220" /><rect fill="rgb(0, 86, 216)" height="10" stroke="black" width="10" x="55" y="220" /><rect fill="rgb(0, 216, 86)" height="10" stroke="black" width="10" x="65" y="220" /><rect fill="rgb(0, 216, 86)" height="10" stroke="black" width="10" x="75" y="220" /><rect fill="rgb(173, 216, 0)" height="10" stroke="black" width="10" x="85" y="220" /><rect fill="rgb(216, 0, 0)" height="10" stroke="black" width="10" x="95" y="220" /><rect fill="rgb(173, 216, 0)" height="10" stroke="black" width="10" x="105" y="220" /><rect fill="rgb(0, 216, 86)" height="10" stroke="black" width="10" x="115" y="220" /><rect fill="rgb(0, 216, 86)" height="10" stroke="black" width="10" x="125" y="220" /><rect fill="rgb(0, 86, 216)" height="10" stroke="black" width="10" x="135" y="220" /><rect fill="rgb(173, 0, 216)" height="10" stroke="black" width="10" x="145" y="220" /><rect fill="rgb(0, 86, 216)" height="10" stroke="black" width="10" x="155" y="220" /><rect fill="rgb(0, 216, 86)" height="10" stroke="black" width="10" x="165" y="220" /><rect fill="rgb(0, 216, 86)" height="10" stroke="black" width="10" x="175" y="220" /><rect fill="rgb(173, 216, 0)" height="10" stroke="black" width="10" x="185" y="220" /><rect fill="rgb(216, 0, 0)" height="10" stroke="black" width="10" x="195" y="220" /><rect fill="rgb(173, 216, 0)" height="10" stroke="black" width="10" x="205" y="220" /><rect fill="rgb(0, 216, 86)" height="10" stroke="black" width="10" x="215" y="220" /><rect fill="rgb(0, 216, 86)" height="10" stroke="black" width="10" x="225" y="220" /><rect fill="rgb(0, 86, 216)" height="10" stroke="black" width="10" x="235" y="220" /><rect fill="rgb(173, 0, 216)" height="10" stroke="black" width="10" x="245" y="220" /><rect fill="rgb(0, 86, 216)" height="10" stroke="black" width="10" x="255" y="220" /><rect fill="rgb(0, 86, 216)" height="10" stroke="black" width="10" x="30" y="230" /><rect fill="rgb(216, 0, 0)" height="10" stroke="black" width="10" x="40" y="230" /><rect fill="rgb(216, 0, 0)" height="10" stroke="black" width="10" x="50" y="230" /><rect fill="rgb(0, 86, 216)" height="10" stroke="black" width="10" x="60" y="230" /><rect fill="rgb(0, 216, 86)" height="10" stroke="black" width="10" x="70" y="230" /><rect fill="rgb(173, 216, 0)" height="10" stroke="black" width="10" x="80" y="230" /><rect fill="rgb(173, 0, 216)" height="10" stroke="black" width="10" x="90" y="230" /><rect fill="rgb(173, 0, 216)" height="10" stroke="black" width="10" x="100" y="230" /><rect fill="rgb(173, 216, 0)" height="10" stroke="black" width="10" x="110" y="230" /><rect fill="rgb(0, 216, 86)" height="10" stroke="black" width="10" x="120" y="230" /><rect fill="rgb(0, 86, 216)" height="10" stroke="black" width="10" x="130" y="230" /><rect fill="rgb(216, 0, 0)" height="10" stroke="black" width="10" x="140" y="230" /><rect fill="rgb(216, 0, 0)" height="10" stroke="black" width="10" x="150" y="230" /><rect fill="rgb(0, 86, 216)" height="10" stroke="black" width="10" x="160" y="230" /><rect fill="rgb(0, 216, 86)" height="10" stroke="black" width="10" x="170" y="230" /><rect fill="rgb(173, 216, 0)" height="10" stroke="black" width="10" x="180" y="230" /><rect fill="rgb(173, 0, 216)" height="10" stroke="black" width="10" x="190" y="230" /><rect fill="rgb(173, 0, 216)" height="10" stroke="black" width="10" x="200" y="230" /><rect fill="rgb(173, 216, 0)" height="10" stroke="black" width="10" x="210" y="230" /><rect fill="rgb(0, 216, 86)" height="10" stroke="black" width="10" x="220" y="230" /><rect fill="rgb(0, 86, 216)" height="10" stroke="black" width="10" x="230" y="230" /><rect fill="rgb(216, 0, 0)" height="10" stroke="black" width="10" x="240" y="230" /><rect fill="rgb(216, 0, 0)" height="10" stroke="black" width="10" x="250" y="230" /><rect fill="rgb(0, 86, 216)" height="10" stroke="black" width="10" x="260" y="230" /><rect fill="rgb(0, 86, 216)" height="10" stroke="black" width="10" x="25" y="240" /><rect fill="rgb(173, 216, 0)" height="10" stroke="black" width="10" x="35" y="240" /><rect fill="rgb(0, 86, 216)" height="10" stroke="black" width="10" x="45" y="240" /><rect fill="rgb(173, 216, 0)" height="10" stroke="black" width="10" x="55" y="240" /><rect fill="rgb(0, 86, 216)" height="10" stroke="black" width="10" x="65" y="240" /><rect fill="rgb(173, 216, 0)" height="10" stroke="black" width="10" x="75" y="240" /><rect fill="rgb(0, 86, 216)" height="10" stroke="black" width="10" x="85" y="240" /><rect fill="rgb(173, 216, 0)" height="10" stroke="black" width="10" x="95" y="240" /><rect fill="rgb(0, 86, 216)" height="10" stroke="black" width="10" x="105" y="240" /><rect fill="rgb(173, 216, 0)" height="10" stroke="black" width="10" x="115" y="240" /><rect fill="rgb(0, 86, 216)" height="10" stroke="black" width="10" x="125" y="240" /><rect fill="rgb(173, 216, 0)" height="10" stroke="black" width="10" x="135" y="240" /><rect fill="rgb(0, 86, 216)" height="10" stroke="black" width="10" x="145" y="240" /><rect fill="rgb(173, 216, 0)" height="10" stroke="black" width="10" x="155" y="240" /><rect fill="rgb(0, 86, 216)" height="10" stroke="black" width="10" x="165" y="240" /><rect fill="rgb(173, 216, 0)" height="10" stroke="black" width="10" x="175" y="240" /><rect fill="rgb(0, 86, 216)" height="10" stroke="black" width="10" x="185" y="240" /><rect fill="rgb(173, 216, 0)" height="10" stroke="black" width="10" x="195" y="240" /><rect fill="rgb(0, 86, 216)" height="10" stroke="black" width="10" x="205" y="240" /><rect fill="rgb(173, 216, 0)" height="10" stroke="black" width="10" x="215" y="240" /><rect fill="rgb(0, 86, 216)" height="10" stroke="black" width="10" x="225" y="240" /><rect fill="rgb(173, 216, 0)" height="10" stroke="black" width="10" x="235" y="240" /><rect fill="rgb(0, 86, 216)" height="10" stroke="black" width="10" x="245" y="240" /><rect fill="rgb(173, 216, 0)" height="10" stroke="black" width="10" x="255" y="240" /><rect fill="rgb(0, 86, 216)" height="10" stroke="black" width="10" x="265" y="240" /><rect fill="rgb(0, 86, 216)" height="10" stroke="black" width="10" x="20" y="250" /><rect fill="rgb(0, 216, 86)" height="10" stroke="black" width="10" x="30" y="250" /><rect fill="rgb(0, 216, 86)" height="10" stroke="black" width="10" x="40" y="250" /><rect fill="rgb(0, 216, 86)" height="10" stroke="black" width="10" x="50" y="250" /><rect fill="rgb(0, 216, 86)" height="10" stroke="black" width="10" x="60" y="250" /><rect fill="rgb(0, 216, 86)" height="10" stroke="black" width="10" x="70" y="250" /><rect fill="rgb(0, 216, 86)" height="10" stroke="black" width="10" x="80" y="250" /><rect fill="rgb(0, 216, 86)" height="10" stroke="black" width="10" x="90" y="250" /><rect fill="rgb(0, 216, 86)" height="10" stroke="black" width="10" x="100" y="250" /><rect fill="rgb(0, 216, 86)" height="10" stroke="black" width="10" x="110" y="250" /><rect fill="rgb(0, 216, 86)" height="10" stroke="black" width="10" x="120" y="250" /><rect fill="rgb(0, 216, 86)" height="10" stroke="black" width="10" x="130" y="250" /><rect fill="rgb(0, 216, 86)" height="10" stroke="black" width="10" x="140" y="250" /><rect fill="rgb(0, 216, 86)" height="10" stroke="black" width="10" x="150" y="250" /><rect fill="rgb(0, 216, 86)" height="10" stroke="black" width="10" x="160" y="250" /><rect fill="rgb(0, 216, 86)" height="10" stroke="black" width="10" x="170" y="250" /><rect fill="rgb(0, 216, 86)" height="10" stroke="black" width="10" x="180" y="250" /><rect fill="rgb(0, 216, 86)" height="10" stroke="black" width="10" x="190" y="250" /><rect fill="rgb(0, 216, 86)" height="10" stroke="black" width="10" x="200" y="250" /><rect fill="rgb(0, 216, 86)" height="10" stroke="black" width="10" x="210" y="250" /><rect fill="rgb(0, 216, 86)" height="10" stroke="black" width="10" x="220" y="250" /><rect fill="rgb(0, 216, 86)" height="10" stroke="black" width="10" x="230" y="250" /><rect fill="rgb(0, 216, 86)" height="10" stroke="black" width="10" x="240" y="250" /><rect fill="rgb(0, 216, 86)" height="10" stroke="black" width="10" x="250" y="250" /><rect fill="rgb(0, 216, 86)" height="10" stroke="black" width="10" x="260" y="250" /><rect fill="rgb(0, 86, 216)" height="10" stroke="black" width="10" x="270" y="250" /><rect fill="rgb(0, 86, 216)" height="10" stroke="black" width="10" x="15" y="260" /><rect fill="rgb(0, 86, 216)" height="10" stroke="black" width="10" x="25" y="260" /><rect fill="rgb(0, 216, 86)" height="10" stroke="black" width="10" x="35" y="260" /><rect fill="rgb(0, 216, 86)" height="10" stroke="black" width="10" x="45" y="260" /><rect fill="rgb(0, 216, 86)" height="10" stroke="black" width="10" x="55" y="260" /><rect fill="rgb(0, 216, 86)" height="10" stroke="black" width="10" x="65" y="260" /><rect fill="rgb(0, 216, 86)" height="10" stroke="black" width="10" x="75" y="260" /><rect fill="rgb(0, 216, 86)" height="10" stroke="black" width="10" x="85" y="260" /><rect fill="rgb(0, 216, 86)" height="10" stroke="black" width="10" x="95" y="260" /><rect fill="rgb(0, 216, 86)" height="10" stroke="black" width="10" x="105" y="260" /><rect fill="rgb(0, 216, 86)" height="10" stroke="black" width="10" x="115" y="260" /><rect fill="rgb(0, 216, 86)" height="10" stroke="black" width="10" x="125" y="260" /><rect fill="rgb(0, 216, 86)" height="10" stroke="black" width="10" x="135" y="260" /><rect fill="rgb(0, 216, 86)" height="10" stroke="black" width="10" x="145" y="260" /><rect fill="rgb(0, 216, 86)" height="10" stroke="black" width="10" x="155" y="260" /><rect fill="rgb(0, 216, 86)" height="10" stroke="black" width="10" x="165" y="260" /><rect fill="rgb(0, 216, 86)" height="10" stroke="black" width="10" x="175" y="260" /><rect fill="rgb(0, 216, 86)" height="10" stroke="black" width="10" x="185" y="260" /><rect fill="rgb(0, 216, 86)" height="10" stroke="black" width="10" x="195" y="260" /><rect fill="rgb(0, 216, 86)" height="10" stroke="black" width="10" x="205" y="260" /><rect fill="rgb(0, 216, 86)" height="10" stroke="black" width="10" x="215" y="260" /><rect fill="rgb(0, 216, 86)" height="10" stroke="black" width="10" x="225" y="260" /><rect fill="rgb(0, 216, 86)" height="10" stroke="black" width="10" x="235" y="260" /><rect fill="rgb(0, 216, 86)" height="10" stroke="black" width="10" x="245" y="260" /><rect fill="rgb(0, 216, 86)" height="10" stroke="black" width="10" x="255" y="260" /><rect fill="rgb(0, 86, 216)" height="10" stroke="black" width="10" x="265" y="260" /><rect fill="rgb(0, 86, 216)" height="10" stroke="black" width="10" x="275" y="260" /><rect fill="rgb(0, 86, 216)" height="10" stroke="black" width="10" x="10" y="270" /><rect fill="rgb(173, 0, 216)" height="10" stroke="black" width="10" x="20" y="270" /><rect fill="rgb(0, 86, 216)" height="10" stroke="black" width="10" x="30" y="270" /><rect fill="rgb(0, 216, 86)" height="10" stroke="black" width="10" x="40" y="270" /><rect fill="rgb(0, 216, 86)" height="10" stroke="black" width="10" x="50" y="270" /><rect fill="rgb(0, 216, 86)" height="10" stroke="black" width="10" x="60" y="270" /><rect fill="rgb(0, 216, 86)" height="10" stroke="black" width="10" x="70" y="270" /><rect fill="rgb(0, 216, 86)" height="10" stroke="black" width="10" x="80" y="270" /><rect fill="rgb(0, 216, 86)" height="10" stroke="black" width="10" x="90" y="270" /><rect fill="rgb(0, 216, 86)" height="10" stroke="black" width="10" x="100" y="270" /><rect fill="rgb(0, 216, 86)" height="10" stroke="black" width="10" x="110" y="270" /><rect fill="rgb(0, 216, 86)" height="10" stroke="black" width="10" x="120" y="270" /><rect fill="rgb(0, 216, 86)" height="10" stroke="black" width="10" x="130" y="270" /><rect fill="rgb(0, 216, 86)" height="10" stroke="black" width="10" x="140" y="270" /><rect fill="rgb(0, 216, 86)" height="10" stroke="black" width="10" x="150" y="270" /><rect fill="rgb(0, 216, 86)" height="10" stroke="black" width="10" x="160" y="270" /><rect fill="rgb(0, 216, 86)" height="10" stroke="black" width="10" x="170" y="270" /><rect fill="rgb(0, 216, 86)" height="10" stroke="black" width="10" x="180" y="270" /><rect fill="rgb(0, 216, 86)" height="10" stroke="black" width="10" x="190" y="270" /><rect fill="rgb(0, 216, 86)" height="10" stroke="black" width="10" x="200" y="270" /><rect fill="rgb(0, 216, 86)" height="10" stroke="black" width="10" x="210" y="270" /><rect fill="rgb(0, 216, 86)" height="10" stroke="black" width="10" x="220" y="270" /><rect fill="rgb(0, 216, 86)" height="10" stroke="black" width="10" x="230" y="270" /><rect fill="rgb(0, 216, 86)" height="10" stroke="black" width="10" x="240" y="270" /><rect fill="rgb(0, 216, 86)" height="10" stroke="black" width="10" x="250" y="270" /><rect fill="rgb(0, 86, 216)" height="10" stroke="black" width="10" x="260" y="270" /><rect fill="rgb(173, 0, 216)" height="10" stroke="black" width="10" x="270" y="270" /><rect fill="rgb(0, 86, 216)" height="10" stroke="black" width="10" x="280" y="270" /><rect fill="rgb(0, 86, 216)" height="10" stroke="black" width="10" x="5" y="280" /><rect fill="rgb(216, 0, 0)" height="10" stroke="black" width="10" x="15" y="280" /><rect fill="rgb(216, 0, 0)" height="10" stroke="black" width="10" x="25" y="280" /><rect fill="rgb(0, 86, 216)" height="10" stroke="black" width="10" x="35" y="280" /><rect fill="rgb(0, 216, 86)" height="10" stroke="black" width="10" x="45" y="280" /><rect fill="rgb(0, 216, 86)" height="10" stroke="black" width="10" x="55" y="280" /><rect fill="rgb(0, 216, 86)" height="10" stroke="black" width="10" x="65" y="280" /><rect fill="rgb(0, 216, 86)" height="10" stroke="black" width="10" x="75" y="280" /><rect fill="rgb(0, 216, 86)" height="10" stroke="black" width="10" x="85" y="280" /><rect fill="rgb(0, 216, 86)" height="10" stroke="black" width="10" x="95" y="280" /><rect fill="rgb(0, 216, 86)" height="10" stroke="black" width="10" x="105" y="280" /><rect fill="rgb(0, 216, 86)" height="10" stroke="black" width="10" x="115" y="280" /><rect fill="rgb(0, 216, 86)" height="10" stroke="black" width="10" x="125" y="280" /><rect fill="rgb(0, 216, 86)" height="10" stroke="black" width="10" x="135" y="280" /><rect fill="rgb(0, 216, 86)" height="10" stroke="black" width="10" x="145" y="280" /><rect fill="rgb(0, 216, 86)" height="10" stroke="black" width="10" x="155" y="280" /><rect fill="rgb(0, 216, 86)" height="10" stroke="black" width="10" x="165" y="280" /><rect fill="rgb(0, 216, 86)" height="10" stroke="black" width="10" x="175" y="280" /><rect fill="rgb(0, 216, 86)" height="10" stroke="black" width="10" x="185" y="280" /><rect fill="rgb(0, 216, 86)" height="10" stroke="black" width="10" x="195" y="280" /><rect fill="rgb(0, 216, 86)" height="10" stroke="black" width="10" x="205" y="280" /><rect fill="rgb(0, 216, 86)" height="10" stroke="black" width="10" x="215" y="280" /><rect fill="rgb(0, 216, 86)" height="10" stroke="black" width="10" x="225" y="280" /><rect fill="rgb(0, 216, 86)" height="10" stroke="black" width="10" x="235" y="280" /><rect fill="rgb(0, 216, 86)" height="10" stroke="black" width="10" x="245" y="280" /><rect fill="rgb(0, 86, 216)" height="10" stroke="black" width="10" x="255" y="280" /><rect fill="rgb(216, 0, 0)" height="10" stroke="black" width="10" x="265" y="280" /><rect fill="rgb(216, 0, 0)" height="10" stroke="black" width="10" x="275" y="280" /><rect fill="rgb(0, 86, 216)" height="10" stroke="black" width="10" x="285" y="280" /><rect fill="rgb(0, 86, 216)" height="10" stroke="black" width="10" x="0" y="290" /><rect fill="rgb(173, 216, 0)" height="10" stroke="black" width="10" x="10" y="290" /><rect fill="rgb(0, 86, 216)" height="10" stroke="black" width="10" x="20" y="290" /><rect fill="rgb(173, 216, 0)" height="10" stroke="black" width="10" x="30" y="290" /><rect fill="rgb(0, 86, 216)" height="10" stroke="black" width="10" x="40" y="290" /><rect fill="rgb(0, 216, 86)" height="10" stroke="black" width="10" x="50" y="290" /><rect fill="rgb(0, 216, 86)" height="10" stroke="black" width="10" x="60" y="290" /><rect fill="rgb(0, 216, 86)" height="10" stroke="black" width="10" x="70" y="290" /><rect fill="rgb(0, 216, 86)" height="10" stroke="black" width="10" x="80" y="290" /><rect fill="rgb(0, 216, 86)" height="10" stroke="black" width="10" x="90" y="290" /><rect fill="rgb(0, 216, 86)" height="10" stroke="black" width="10" x="100" y="290" /><rect fill="rgb(0, 216, 86)" height="10" stroke="black" width="10" x="110" y="290" /><rect fill="rgb(0, 216, 86)" height="10" stroke="black" width="10" x="120" y="290" /><rect fill="rgb(0, 216, 86)" height="10" stroke="black" width="10" x="130" y="290" /><rect fill="rgb(0, 216, 86)" height="10" stroke="black" width="10" x="140" y="290" /><rect fill="rgb(0, 216, 86)" height="10" stroke="black" width="10" x="150" y="290" /><rect fill="rgb(0, 216, 86)" height="10" stroke="black" width="10" x="160" y="290" /><rect fill="rgb(0, 216, 86)" height="10" stroke="black" width="10" x="170" y="290" /><rect fill="rgb(0, 216, 86)" height="10" stroke="black" width="10" x="180" y="290" /><rect fill="rgb(0, 216, 86)" height="10" stroke="black" width="10" x="190" y="290" /><rect fill="rgb(0, 216, 86)" height="10" stroke="black" width="10" x="200" y="290" /><rect fill="rgb(0, 216, 86)" height="10" stroke="black" width="10" x="210" y="290" /><rect fill="rgb(0, 216, 86)" height="10" stroke="black" width="10" x="220" y="290" /><rect fill="rgb(0, 216, 86)" height="10" stroke="black" width="10" x="230" y="290" /><rect fill="rgb(0, 216, 86)" height="10" stroke="black" width="10" x="240" y="290" /><rect fill="rgb(0, 86, 216)" height="10" stroke="black" width="10" x="250" y="290" /><rect fill="rgb(173, 216, 0)" height="10" stroke="black" width="10" x="260" y="290" /><rect fill="rgb(0, 86, 216)" height="10" stroke="black" width="10" x="270" y="290" /><rect fill="rgb(173, 216, 0)" height="10" stroke="black" width="10" x="280" y="290" /><rect fill="rgb(0, 86, 216)" height="10" stroke="black" width="10" x="290" y="290" /></svg>